M48
METRIC,LZ,000.000
;FILE_FORMAT=3:3
;TYPE=PLATED
;Layer: PTH_Through_Via
;EasyEDA v6.5.47, 2024-11-13 01:40:09
;1c21e17b061f4530800f8f8e294a802d,69e988d02e8547bda770e33b2b7d29c3,10
;Gerber Generator version 0.2
;Holesize 1 = 0.310 mm
T01C0.310
%
G05
G90
T01
X179197Y-105283
X164211Y-105283
X148336Y-105283
X134239Y-105283
X119253Y-105283
X103886Y-105410
X088773Y-105410
X073279Y-105283
X058674Y-105410
X043688Y-105410
X030226Y-105410
X020193Y-108325
X028956Y-090297
X044323Y-090297
X059563Y-090043
X074422Y-090043
X088773Y-090043
X103759Y-090043
X118872Y-090043
X133604Y-090043
X148844Y-090043
X164084Y-090043
X178562Y-090297
X014224Y-090170
X014224Y-075184
X029925Y-075311
X044450Y-075311
X058674Y-075311
X073787Y-075311
X088900Y-075311
X103886Y-075311
X118745Y-075311
X133985Y-075311
X148844Y-075311
X164084Y-075311
X178816Y-075438
X178816Y-060071
X163703Y-060071
X148844Y-060071
X118872Y-060071
X103759Y-060071
X088773Y-060071
X073787Y-060071
X058674Y-060071
X043942Y-059944
X029549Y-060070
X014478Y-060071
X133858Y-060071
X178816Y-045212
X163830Y-045212
X148971Y-045212
X133858Y-045212
X118618Y-045212
X103759Y-045212
X088773Y-045212
X073787Y-045212
X058674Y-045212
X178816Y-030226
X163703Y-030226
X148844Y-030226
X133858Y-030226
X118745Y-030226
X103759Y-030226
X088646Y-030226
X073787Y-030226
X178816Y-015113
X163576Y-015113
X148590Y-015113
X133604Y-015113
X118618Y-015113
X103505Y-015113
X088646Y-015113
X073787Y-015113
X058801Y-015113
X043942Y-045212
X028956Y-045085
X014351Y-045339
X014351Y-030099
X014224Y-015113
X058547Y-030226
X043815Y-030226
X028829Y-030099
X043942Y-015113
X029210Y-015113
X180086Y-097536
X181610Y-097790
M30
