M48
METRIC,LZ,000.000
;FILE_FORMAT=3:3
;TYPE=PLATED
;Layer: PTH_Through
;EasyEDA v6.5.47, 2024-11-13 01:40:09
;1c21e17b061f4530800f8f8e294a802d,69e988d02e8547bda770e33b2b7d29c3,10
;Gerber Generator version 0.2
;Holesize 1 = 0.305 mm
T01C0.305
;Holesize 2 = 0.310 mm
T02C0.310
;Holesize 3 = 0.600 mm
T03C0.600
;Holesize 4 = 0.915 mm
T04C0.915
;Holesize 5 = 1.016 mm
T05C1.016
;Holesize 6 = 2.701 mm
T06C2.701
%
G05
G90
T01
X020524Y-115740
X019174Y-115190
X018624Y-113840
X019174Y-112490
X020524Y-111940
X021874Y-112490
X022424Y-113840
X021874Y-115190
X027724Y-115740
X026374Y-115190
X025824Y-113840
X026374Y-112490
X027724Y-111940
X029074Y-112490
X029624Y-113840
X029074Y-115190
T02
X179197Y-105283
X164211Y-105283
X148336Y-105283
X134239Y-105283
X119253Y-105283
X103886Y-105410
X088773Y-105410
X073279Y-105283
X058674Y-105410
X043688Y-105410
X030226Y-105410
X020193Y-108325
X028956Y-090297
X044323Y-090297
X059563Y-090043
X074422Y-090043
X088773Y-090043
X103759Y-090043
X118872Y-090043
X133604Y-090043
X148844Y-090043
X164084Y-090043
X178562Y-090297
X014224Y-090170
X014224Y-075184
X029925Y-075311
X044450Y-075311
X058674Y-075311
X073787Y-075311
X088900Y-075311
X103886Y-075311
X118745Y-075311
X133985Y-075311
X148844Y-075311
X164084Y-075311
X178816Y-075438
X178816Y-060071
X163703Y-060071
X148844Y-060071
X118872Y-060071
X103759Y-060071
X088773Y-060071
X073787Y-060071
X058674Y-060071
X043942Y-059944
X029549Y-060070
X014478Y-060071
X133858Y-060071
X178816Y-045212
X163830Y-045212
X148971Y-045212
X133858Y-045212
X118618Y-045212
X103759Y-045212
X088773Y-045212
X073787Y-045212
X058674Y-045212
X178816Y-030226
X163703Y-030226
X148844Y-030226
X133858Y-030226
X118745Y-030226
X103759Y-030226
X088646Y-030226
X073787Y-030226
X178816Y-015113
X163576Y-015113
X148590Y-015113
X133604Y-015113
X118618Y-015113
X103505Y-015113
X088646Y-015113
X073787Y-015113
X058801Y-015113
X043942Y-045212
X028956Y-045085
X014351Y-045339
X014351Y-030099
X014224Y-015113
X058547Y-030226
X043815Y-030226
X028829Y-030099
X043942Y-015113
X029210Y-015113
X180086Y-097536
X181610Y-097790
T03
X030873Y-119289G85X030873Y-120389
X017373Y-119289G85X017373Y-120389
T04
X010000Y-010000
X010000Y-025000
X025000Y-010000
X025000Y-025000
X040000Y-010000
X040000Y-025000
X055000Y-010000
X055000Y-025000
X055000Y-040000
X040000Y-040000
X025000Y-040000
X010000Y-040000
X010000Y-025000
X025000Y-025000
X040000Y-025000
X055000Y-025000
X100000Y-055000
X085000Y-055000
X070000Y-055000
X055000Y-055000
X055000Y-040000
X070000Y-040000
X085000Y-040000
X100000Y-040000
X100000Y-025000
X085000Y-025000
X070000Y-025000
X055000Y-025000
X055000Y-010000
X070000Y-010000
X085000Y-010000
X100000Y-010000
X055000Y-055000
X040000Y-055000
X025000Y-055000
X010000Y-055000
X010000Y-040000
X025000Y-040000
X040000Y-040000
X055000Y-040000
X055000Y-070000
X040000Y-070000
X025000Y-070000
X010000Y-070000
X010000Y-055000
X025000Y-055000
X040000Y-055000
X055000Y-055000
X055000Y-085000
X040000Y-085000
X025000Y-085000
X010000Y-085000
X010000Y-070000
X025000Y-070000
X040000Y-070000
X055000Y-070000
X055000Y-100000
X040000Y-100000
X025000Y-100000
X010000Y-100000
X010000Y-085000
X025000Y-085000
X040000Y-085000
X055000Y-085000
X100000Y-100000
X085000Y-100000
X070000Y-100000
X055000Y-100000
X055000Y-085000
X070000Y-085000
X085000Y-085000
X100000Y-085000
X100000Y-070000
X085000Y-070000
X070000Y-070000
X055000Y-070000
X055000Y-055000
X070000Y-055000
X085000Y-055000
X100000Y-055000
X145000Y-025000
X130000Y-025000
X115000Y-025000
X100000Y-025000
X100000Y-010000
X115000Y-010000
X130000Y-010000
X145000Y-010000
X175000Y-025000
X160000Y-025000
X145000Y-025000
X130000Y-025000
X130000Y-010000
X145000Y-010000
X160000Y-010000
X175000Y-010000
X160000Y-040000
X145000Y-040000
X130000Y-040000
X115000Y-040000
X115000Y-025000
X130000Y-025000
X145000Y-025000
X160000Y-025000
X175000Y-040000
X160000Y-040000
X145000Y-040000
X130000Y-040000
X130000Y-025000
X145000Y-025000
X160000Y-025000
X175000Y-025000
X160000Y-055000
X145000Y-055000
X130000Y-055000
X115000Y-055000
X115000Y-040000
X130000Y-040000
X145000Y-040000
X160000Y-040000
X160000Y-070000
X145000Y-070000
X130000Y-070000
X115000Y-070000
X115000Y-055000
X130000Y-055000
X145000Y-055000
X160000Y-055000
X175000Y-070000
X160000Y-070000
X145000Y-070000
X130000Y-070000
X130000Y-055000
X145000Y-055000
X160000Y-055000
X175000Y-055000
X145000Y-100000
X130000Y-100000
X115000Y-100000
X100000Y-100000
X100000Y-085000
X115000Y-085000
X130000Y-085000
X145000Y-085000
X175000Y-100000
X160000Y-100000
X145000Y-100000
X130000Y-100000
X130000Y-085000
X145000Y-085000
X160000Y-085000
X175000Y-085000
T05
X021230Y000003G85X021230Y-000003
X023770Y000003G85X023770Y-000003
X163770Y-000003G85X163770Y000003
X161230Y-000003G85X161230Y000003
T06
X020524Y-113840
X027724Y-113840
M30
