G04 Layer: TopSilkscreenLayer*
G04 EasyEDA v6.5.47, 2024-11-13 01:40:09*
G04 1c21e17b061f4530800f8f8e294a802d,69e988d02e8547bda770e33b2b7d29c3,10*
G04 Gerber Generator version 0.2*
G04 Scale: 100 percent, Rotated: No, Reflected: No *
G04 Dimensions in millimeters *
G04 leading zeros omitted , absolute positions ,4 integer and 5 decimal *
%FSLAX45Y45*%
%MOMM*%

%ADD10C,0.1524*%
%ADD11C,0.1520*%
%ADD12C,0.1000*%
%ADD13C,0.2000*%

%LPD*%
D10*
X6947408Y-1716404D02*
G01*
X6952741Y-1726819D01*
X6963156Y-1737232D01*
X6973315Y-1742312D01*
X6994143Y-1742312D01*
X7004558Y-1737232D01*
X7014972Y-1726819D01*
X7020306Y-1716404D01*
X7025386Y-1700656D01*
X7025386Y-1674748D01*
X7020306Y-1659254D01*
X7014972Y-1648840D01*
X7004558Y-1638427D01*
X6994143Y-1633346D01*
X6973315Y-1633346D01*
X6963156Y-1638427D01*
X6952741Y-1648840D01*
X6947408Y-1659254D01*
X6908038Y-1716404D02*
G01*
X6908038Y-1721485D01*
X6902704Y-1731898D01*
X6897624Y-1737232D01*
X6887209Y-1742312D01*
X6866381Y-1742312D01*
X6855968Y-1737232D01*
X6850888Y-1731898D01*
X6845554Y-1721485D01*
X6845554Y-1711070D01*
X6850888Y-1700656D01*
X6861302Y-1685162D01*
X6913118Y-1633346D01*
X6840474Y-1633346D01*
X6738620Y-1705990D02*
G01*
X6743700Y-1690496D01*
X6754113Y-1680082D01*
X6769861Y-1674748D01*
X6774941Y-1674748D01*
X6790436Y-1680082D01*
X6800850Y-1690496D01*
X6806184Y-1705990D01*
X6806184Y-1711070D01*
X6800850Y-1726819D01*
X6790436Y-1737232D01*
X6774941Y-1742312D01*
X6769861Y-1742312D01*
X6754113Y-1737232D01*
X6743700Y-1726819D01*
X6738620Y-1705990D01*
X6738620Y-1680082D01*
X6743700Y-1653920D01*
X6754113Y-1638427D01*
X6769861Y-1633346D01*
X6780275Y-1633346D01*
X6795770Y-1638427D01*
X6800850Y-1648840D01*
X6947408Y-3216402D02*
G01*
X6952741Y-3226815D01*
X6963156Y-3237229D01*
X6973315Y-3242310D01*
X6994143Y-3242310D01*
X7004558Y-3237229D01*
X7014972Y-3226815D01*
X7020306Y-3216402D01*
X7025386Y-3200654D01*
X7025386Y-3174745D01*
X7020306Y-3159252D01*
X7014972Y-3148837D01*
X7004558Y-3138423D01*
X6994143Y-3133344D01*
X6973315Y-3133344D01*
X6963156Y-3138423D01*
X6952741Y-3148837D01*
X6947408Y-3159252D01*
X6902704Y-3242310D02*
G01*
X6845554Y-3242310D01*
X6876795Y-3200654D01*
X6861302Y-3200654D01*
X6850888Y-3195573D01*
X6845554Y-3190494D01*
X6840474Y-3174745D01*
X6840474Y-3164331D01*
X6845554Y-3148837D01*
X6855968Y-3138423D01*
X6871715Y-3133344D01*
X6887209Y-3133344D01*
X6902704Y-3138423D01*
X6908038Y-3143504D01*
X6913118Y-3153918D01*
X6774941Y-3242310D02*
G01*
X6790436Y-3237229D01*
X6800850Y-3221481D01*
X6806184Y-3195573D01*
X6806184Y-3180079D01*
X6800850Y-3153918D01*
X6790436Y-3138423D01*
X6774941Y-3133344D01*
X6764527Y-3133344D01*
X6749034Y-3138423D01*
X6738620Y-3153918D01*
X6733286Y-3180079D01*
X6733286Y-3195573D01*
X6738620Y-3221481D01*
X6749034Y-3237229D01*
X6764527Y-3242310D01*
X6774941Y-3242310D01*
X6947408Y-4716398D02*
G01*
X6952741Y-4726812D01*
X6963156Y-4737227D01*
X6973315Y-4742306D01*
X6994143Y-4742306D01*
X7004558Y-4737227D01*
X7014972Y-4726812D01*
X7020306Y-4716398D01*
X7025386Y-4700651D01*
X7025386Y-4674743D01*
X7020306Y-4659248D01*
X7014972Y-4648835D01*
X7004558Y-4638420D01*
X6994143Y-4633340D01*
X6973315Y-4633340D01*
X6963156Y-4638420D01*
X6952741Y-4648835D01*
X6947408Y-4659248D01*
X6902704Y-4742306D02*
G01*
X6845554Y-4742306D01*
X6876795Y-4700651D01*
X6861302Y-4700651D01*
X6850888Y-4695570D01*
X6845554Y-4690490D01*
X6840474Y-4674743D01*
X6840474Y-4664329D01*
X6845554Y-4648835D01*
X6855968Y-4638420D01*
X6871715Y-4633340D01*
X6887209Y-4633340D01*
X6902704Y-4638420D01*
X6908038Y-4643501D01*
X6913118Y-4653914D01*
X6806184Y-4721479D02*
G01*
X6795770Y-4726812D01*
X6780275Y-4742306D01*
X6780275Y-4633340D01*
X6947408Y-6216395D02*
G01*
X6952741Y-6226810D01*
X6963156Y-6237223D01*
X6973315Y-6242304D01*
X6994143Y-6242304D01*
X7004558Y-6237223D01*
X7014972Y-6226810D01*
X7020306Y-6216395D01*
X7025386Y-6200647D01*
X7025386Y-6174739D01*
X7020306Y-6159245D01*
X7014972Y-6148831D01*
X7004558Y-6138418D01*
X6994143Y-6133337D01*
X6973315Y-6133337D01*
X6963156Y-6138418D01*
X6952741Y-6148831D01*
X6947408Y-6159245D01*
X6902704Y-6242304D02*
G01*
X6845554Y-6242304D01*
X6876795Y-6200647D01*
X6861302Y-6200647D01*
X6850888Y-6195568D01*
X6845554Y-6190487D01*
X6840474Y-6174739D01*
X6840474Y-6164326D01*
X6845554Y-6148831D01*
X6855968Y-6138418D01*
X6871715Y-6133337D01*
X6887209Y-6133337D01*
X6902704Y-6138418D01*
X6908038Y-6143497D01*
X6913118Y-6153912D01*
X6800850Y-6216395D02*
G01*
X6800850Y-6221476D01*
X6795770Y-6231889D01*
X6790436Y-6237223D01*
X6780275Y-6242304D01*
X6759447Y-6242304D01*
X6749034Y-6237223D01*
X6743700Y-6231889D01*
X6738620Y-6221476D01*
X6738620Y-6211062D01*
X6743700Y-6200647D01*
X6754113Y-6185154D01*
X6806184Y-6133337D01*
X6733286Y-6133337D01*
X6947408Y-7716393D02*
G01*
X6952741Y-7726806D01*
X6963156Y-7737220D01*
X6973315Y-7742301D01*
X6994143Y-7742301D01*
X7004558Y-7737220D01*
X7014972Y-7726806D01*
X7020306Y-7716393D01*
X7025386Y-7700645D01*
X7025386Y-7674737D01*
X7020306Y-7659243D01*
X7014972Y-7648829D01*
X7004558Y-7638414D01*
X6994143Y-7633335D01*
X6973315Y-7633335D01*
X6963156Y-7638414D01*
X6952741Y-7648829D01*
X6947408Y-7659243D01*
X6902704Y-7742301D02*
G01*
X6845554Y-7742301D01*
X6876795Y-7700645D01*
X6861302Y-7700645D01*
X6850888Y-7695564D01*
X6845554Y-7690485D01*
X6840474Y-7674737D01*
X6840474Y-7664322D01*
X6845554Y-7648829D01*
X6855968Y-7638414D01*
X6871715Y-7633335D01*
X6887209Y-7633335D01*
X6902704Y-7638414D01*
X6908038Y-7643495D01*
X6913118Y-7653909D01*
X6795770Y-7742301D02*
G01*
X6738620Y-7742301D01*
X6769861Y-7700645D01*
X6754113Y-7700645D01*
X6743700Y-7695564D01*
X6738620Y-7690485D01*
X6733286Y-7674737D01*
X6733286Y-7664322D01*
X6738620Y-7648829D01*
X6749034Y-7638414D01*
X6764527Y-7633335D01*
X6780275Y-7633335D01*
X6795770Y-7638414D01*
X6800850Y-7643495D01*
X6806184Y-7653909D01*
X6947408Y-9216389D02*
G01*
X6952741Y-9226804D01*
X6963156Y-9237218D01*
X6973315Y-9242297D01*
X6994143Y-9242297D01*
X7004558Y-9237218D01*
X7014972Y-9226804D01*
X7020306Y-9216389D01*
X7025386Y-9200642D01*
X7025386Y-9174734D01*
X7020306Y-9159239D01*
X7014972Y-9148826D01*
X7004558Y-9138412D01*
X6994143Y-9133331D01*
X6973315Y-9133331D01*
X6963156Y-9138412D01*
X6952741Y-9148826D01*
X6947408Y-9159239D01*
X6902704Y-9242297D02*
G01*
X6845554Y-9242297D01*
X6876795Y-9200642D01*
X6861302Y-9200642D01*
X6850888Y-9195562D01*
X6845554Y-9190481D01*
X6840474Y-9174734D01*
X6840474Y-9164320D01*
X6845554Y-9148826D01*
X6855968Y-9138412D01*
X6871715Y-9133331D01*
X6887209Y-9133331D01*
X6902704Y-9138412D01*
X6908038Y-9143492D01*
X6913118Y-9153905D01*
X6754113Y-9242297D02*
G01*
X6806184Y-9169654D01*
X6728206Y-9169654D01*
X6754113Y-9242297D02*
G01*
X6754113Y-9133331D01*
X6947408Y-10716387D02*
G01*
X6952741Y-10726801D01*
X6963156Y-10737214D01*
X6973315Y-10742295D01*
X6994143Y-10742295D01*
X7004558Y-10737214D01*
X7014972Y-10726801D01*
X7020306Y-10716387D01*
X7025386Y-10700638D01*
X7025386Y-10674730D01*
X7020306Y-10659237D01*
X7014972Y-10648822D01*
X7004558Y-10638409D01*
X6994143Y-10633329D01*
X6973315Y-10633329D01*
X6963156Y-10638409D01*
X6952741Y-10648822D01*
X6947408Y-10659237D01*
X6902704Y-10742295D02*
G01*
X6845554Y-10742295D01*
X6876795Y-10700638D01*
X6861302Y-10700638D01*
X6850888Y-10695559D01*
X6845554Y-10690479D01*
X6840474Y-10674730D01*
X6840474Y-10664317D01*
X6845554Y-10648822D01*
X6855968Y-10638409D01*
X6871715Y-10633329D01*
X6887209Y-10633329D01*
X6902704Y-10638409D01*
X6908038Y-10643488D01*
X6913118Y-10653903D01*
X6743700Y-10742295D02*
G01*
X6795770Y-10742295D01*
X6800850Y-10695559D01*
X6795770Y-10700638D01*
X6780275Y-10705972D01*
X6764527Y-10705972D01*
X6749034Y-10700638D01*
X6738620Y-10690479D01*
X6733286Y-10674730D01*
X6733286Y-10664317D01*
X6738620Y-10648822D01*
X6749034Y-10638409D01*
X6764527Y-10633329D01*
X6780275Y-10633329D01*
X6795770Y-10638409D01*
X6800850Y-10643488D01*
X6806184Y-10653903D01*
X8447404Y-1716404D02*
G01*
X8452738Y-1726819D01*
X8463152Y-1737232D01*
X8473313Y-1742312D01*
X8494140Y-1742312D01*
X8504554Y-1737232D01*
X8514968Y-1726819D01*
X8520302Y-1716404D01*
X8525383Y-1700656D01*
X8525383Y-1674748D01*
X8520302Y-1659254D01*
X8514968Y-1648840D01*
X8504554Y-1638427D01*
X8494140Y-1633346D01*
X8473313Y-1633346D01*
X8463152Y-1638427D01*
X8452738Y-1648840D01*
X8447404Y-1659254D01*
X8402700Y-1742312D02*
G01*
X8345550Y-1742312D01*
X8376793Y-1700656D01*
X8361299Y-1700656D01*
X8350884Y-1695577D01*
X8345550Y-1690496D01*
X8340470Y-1674748D01*
X8340470Y-1664335D01*
X8345550Y-1648840D01*
X8355965Y-1638427D01*
X8371713Y-1633346D01*
X8387206Y-1633346D01*
X8402700Y-1638427D01*
X8408034Y-1643506D01*
X8413115Y-1653920D01*
X8243697Y-1726819D02*
G01*
X8249031Y-1737232D01*
X8264525Y-1742312D01*
X8274938Y-1742312D01*
X8290433Y-1737232D01*
X8300847Y-1721485D01*
X8306181Y-1695577D01*
X8306181Y-1669669D01*
X8300847Y-1648840D01*
X8290433Y-1638427D01*
X8274938Y-1633346D01*
X8269859Y-1633346D01*
X8254111Y-1638427D01*
X8243697Y-1648840D01*
X8238616Y-1664335D01*
X8238616Y-1669669D01*
X8243697Y-1685162D01*
X8254111Y-1695577D01*
X8269859Y-1700656D01*
X8274938Y-1700656D01*
X8290433Y-1695577D01*
X8300847Y-1685162D01*
X8306181Y-1669669D01*
X8447404Y-3216402D02*
G01*
X8452738Y-3226815D01*
X8463152Y-3237229D01*
X8473313Y-3242310D01*
X8494140Y-3242310D01*
X8504554Y-3237229D01*
X8514968Y-3226815D01*
X8520302Y-3216402D01*
X8525383Y-3200654D01*
X8525383Y-3174745D01*
X8520302Y-3159252D01*
X8514968Y-3148837D01*
X8504554Y-3138423D01*
X8494140Y-3133344D01*
X8473313Y-3133344D01*
X8463152Y-3138423D01*
X8452738Y-3148837D01*
X8447404Y-3159252D01*
X8402700Y-3242310D02*
G01*
X8345550Y-3242310D01*
X8376793Y-3200654D01*
X8361299Y-3200654D01*
X8350884Y-3195573D01*
X8345550Y-3190494D01*
X8340470Y-3174745D01*
X8340470Y-3164331D01*
X8345550Y-3148837D01*
X8355965Y-3138423D01*
X8371713Y-3133344D01*
X8387206Y-3133344D01*
X8402700Y-3138423D01*
X8408034Y-3143504D01*
X8413115Y-3153918D01*
X8233283Y-3242310D02*
G01*
X8285352Y-3133344D01*
X8306181Y-3242310D02*
G01*
X8233283Y-3242310D01*
X8447404Y-4716398D02*
G01*
X8452738Y-4726812D01*
X8463152Y-4737227D01*
X8473313Y-4742306D01*
X8494140Y-4742306D01*
X8504554Y-4737227D01*
X8514968Y-4726812D01*
X8520302Y-4716398D01*
X8525383Y-4700651D01*
X8525383Y-4674743D01*
X8520302Y-4659248D01*
X8514968Y-4648835D01*
X8504554Y-4638420D01*
X8494140Y-4633340D01*
X8473313Y-4633340D01*
X8463152Y-4638420D01*
X8452738Y-4648835D01*
X8447404Y-4659248D01*
X8402700Y-4742306D02*
G01*
X8345550Y-4742306D01*
X8376793Y-4700651D01*
X8361299Y-4700651D01*
X8350884Y-4695570D01*
X8345550Y-4690490D01*
X8340470Y-4674743D01*
X8340470Y-4664329D01*
X8345550Y-4648835D01*
X8355965Y-4638420D01*
X8371713Y-4633340D01*
X8387206Y-4633340D01*
X8402700Y-4638420D01*
X8408034Y-4643501D01*
X8413115Y-4653914D01*
X8280272Y-4742306D02*
G01*
X8295766Y-4737227D01*
X8300847Y-4726812D01*
X8300847Y-4716398D01*
X8295766Y-4705985D01*
X8285352Y-4700651D01*
X8264525Y-4695570D01*
X8249031Y-4690490D01*
X8238616Y-4680077D01*
X8233283Y-4669662D01*
X8233283Y-4653914D01*
X8238616Y-4643501D01*
X8243697Y-4638420D01*
X8259445Y-4633340D01*
X8280272Y-4633340D01*
X8295766Y-4638420D01*
X8300847Y-4643501D01*
X8306181Y-4653914D01*
X8306181Y-4669662D01*
X8300847Y-4680077D01*
X8290433Y-4690490D01*
X8274938Y-4695570D01*
X8254111Y-4700651D01*
X8243697Y-4705985D01*
X8238616Y-4716398D01*
X8238616Y-4726812D01*
X8243697Y-4737227D01*
X8259445Y-4742306D01*
X8280272Y-4742306D01*
X8447404Y-6216395D02*
G01*
X8452738Y-6226810D01*
X8463152Y-6237223D01*
X8473313Y-6242304D01*
X8494140Y-6242304D01*
X8504554Y-6237223D01*
X8514968Y-6226810D01*
X8520302Y-6216395D01*
X8525383Y-6200647D01*
X8525383Y-6174739D01*
X8520302Y-6159245D01*
X8514968Y-6148831D01*
X8504554Y-6138418D01*
X8494140Y-6133337D01*
X8473313Y-6133337D01*
X8463152Y-6138418D01*
X8452738Y-6148831D01*
X8447404Y-6159245D01*
X8402700Y-6242304D02*
G01*
X8345550Y-6242304D01*
X8376793Y-6200647D01*
X8361299Y-6200647D01*
X8350884Y-6195568D01*
X8345550Y-6190487D01*
X8340470Y-6174739D01*
X8340470Y-6164326D01*
X8345550Y-6148831D01*
X8355965Y-6138418D01*
X8371713Y-6133337D01*
X8387206Y-6133337D01*
X8402700Y-6138418D01*
X8408034Y-6143497D01*
X8413115Y-6153912D01*
X8238616Y-6205981D02*
G01*
X8243697Y-6190487D01*
X8254111Y-6180073D01*
X8269859Y-6174739D01*
X8274938Y-6174739D01*
X8290433Y-6180073D01*
X8300847Y-6190487D01*
X8306181Y-6205981D01*
X8306181Y-6211062D01*
X8300847Y-6226810D01*
X8290433Y-6237223D01*
X8274938Y-6242304D01*
X8269859Y-6242304D01*
X8254111Y-6237223D01*
X8243697Y-6226810D01*
X8238616Y-6205981D01*
X8238616Y-6180073D01*
X8243697Y-6153912D01*
X8254111Y-6138418D01*
X8269859Y-6133337D01*
X8280272Y-6133337D01*
X8295766Y-6138418D01*
X8300847Y-6148831D01*
X8447404Y-7716393D02*
G01*
X8452738Y-7726806D01*
X8463152Y-7737220D01*
X8473313Y-7742301D01*
X8494140Y-7742301D01*
X8504554Y-7737220D01*
X8514968Y-7726806D01*
X8520302Y-7716393D01*
X8525383Y-7700645D01*
X8525383Y-7674737D01*
X8520302Y-7659243D01*
X8514968Y-7648829D01*
X8504554Y-7638414D01*
X8494140Y-7633335D01*
X8473313Y-7633335D01*
X8463152Y-7638414D01*
X8452738Y-7648829D01*
X8447404Y-7659243D01*
X8361299Y-7742301D02*
G01*
X8413115Y-7669656D01*
X8335136Y-7669656D01*
X8361299Y-7742301D02*
G01*
X8361299Y-7633335D01*
X8269859Y-7742301D02*
G01*
X8285352Y-7737220D01*
X8295766Y-7721472D01*
X8300847Y-7695564D01*
X8300847Y-7680070D01*
X8295766Y-7653909D01*
X8285352Y-7638414D01*
X8269859Y-7633335D01*
X8259445Y-7633335D01*
X8243697Y-7638414D01*
X8233283Y-7653909D01*
X8228202Y-7680070D01*
X8228202Y-7695564D01*
X8233283Y-7721472D01*
X8243697Y-7737220D01*
X8259445Y-7742301D01*
X8269859Y-7742301D01*
X8447404Y-9216389D02*
G01*
X8452738Y-9226804D01*
X8463152Y-9237218D01*
X8473313Y-9242297D01*
X8494140Y-9242297D01*
X8504554Y-9237218D01*
X8514968Y-9226804D01*
X8520302Y-9216389D01*
X8525383Y-9200642D01*
X8525383Y-9174734D01*
X8520302Y-9159239D01*
X8514968Y-9148826D01*
X8504554Y-9138412D01*
X8494140Y-9133331D01*
X8473313Y-9133331D01*
X8463152Y-9138412D01*
X8452738Y-9148826D01*
X8447404Y-9159239D01*
X8361299Y-9242297D02*
G01*
X8413115Y-9169654D01*
X8335136Y-9169654D01*
X8361299Y-9242297D02*
G01*
X8361299Y-9133331D01*
X8300847Y-9221470D02*
G01*
X8290433Y-9226804D01*
X8274938Y-9242297D01*
X8274938Y-9133331D01*
X8447404Y-10716387D02*
G01*
X8452738Y-10726801D01*
X8463152Y-10737214D01*
X8473313Y-10742295D01*
X8494140Y-10742295D01*
X8504554Y-10737214D01*
X8514968Y-10726801D01*
X8520302Y-10716387D01*
X8525383Y-10700638D01*
X8525383Y-10674730D01*
X8520302Y-10659237D01*
X8514968Y-10648822D01*
X8504554Y-10638409D01*
X8494140Y-10633329D01*
X8473313Y-10633329D01*
X8463152Y-10638409D01*
X8452738Y-10648822D01*
X8447404Y-10659237D01*
X8361299Y-10742295D02*
G01*
X8413115Y-10669651D01*
X8335136Y-10669651D01*
X8361299Y-10742295D02*
G01*
X8361299Y-10633329D01*
X8295766Y-10716387D02*
G01*
X8295766Y-10721467D01*
X8290433Y-10731880D01*
X8285352Y-10737214D01*
X8274938Y-10742295D01*
X8254111Y-10742295D01*
X8243697Y-10737214D01*
X8238616Y-10731880D01*
X8233283Y-10721467D01*
X8233283Y-10711053D01*
X8238616Y-10700638D01*
X8249031Y-10685145D01*
X8300847Y-10633329D01*
X8228202Y-10633329D01*
X9947402Y-1716404D02*
G01*
X9952736Y-1726819D01*
X9963150Y-1737232D01*
X9973309Y-1742312D01*
X9994138Y-1742312D01*
X10004552Y-1737232D01*
X10014965Y-1726819D01*
X10020300Y-1716404D01*
X10025379Y-1700656D01*
X10025379Y-1674748D01*
X10020300Y-1659254D01*
X10014965Y-1648840D01*
X10004552Y-1638427D01*
X9994138Y-1633346D01*
X9973309Y-1633346D01*
X9963150Y-1638427D01*
X9952736Y-1648840D01*
X9947402Y-1659254D01*
X9861295Y-1742312D02*
G01*
X9913111Y-1669669D01*
X9835134Y-1669669D01*
X9861295Y-1742312D02*
G01*
X9861295Y-1633346D01*
X9790429Y-1742312D02*
G01*
X9733279Y-1742312D01*
X9764522Y-1700656D01*
X9749027Y-1700656D01*
X9738613Y-1695577D01*
X9733279Y-1690496D01*
X9728200Y-1674748D01*
X9728200Y-1664335D01*
X9733279Y-1648840D01*
X9743693Y-1638427D01*
X9759441Y-1633346D01*
X9774936Y-1633346D01*
X9790429Y-1638427D01*
X9795763Y-1643506D01*
X9800843Y-1653920D01*
X9947402Y-3216402D02*
G01*
X9952736Y-3226815D01*
X9963150Y-3237229D01*
X9973309Y-3242310D01*
X9994138Y-3242310D01*
X10004552Y-3237229D01*
X10014965Y-3226815D01*
X10020300Y-3216402D01*
X10025379Y-3200654D01*
X10025379Y-3174745D01*
X10020300Y-3159252D01*
X10014965Y-3148837D01*
X10004552Y-3138423D01*
X9994138Y-3133344D01*
X9973309Y-3133344D01*
X9963150Y-3138423D01*
X9952736Y-3148837D01*
X9947402Y-3159252D01*
X9861295Y-3242310D02*
G01*
X9913111Y-3169665D01*
X9835134Y-3169665D01*
X9861295Y-3242310D02*
G01*
X9861295Y-3133344D01*
X9749027Y-3242310D02*
G01*
X9800843Y-3169665D01*
X9723120Y-3169665D01*
X9749027Y-3242310D02*
G01*
X9749027Y-3133344D01*
X9947402Y-4716398D02*
G01*
X9952736Y-4726812D01*
X9963150Y-4737227D01*
X9973309Y-4742306D01*
X9994138Y-4742306D01*
X10004552Y-4737227D01*
X10014965Y-4726812D01*
X10020300Y-4716398D01*
X10025379Y-4700651D01*
X10025379Y-4674743D01*
X10020300Y-4659248D01*
X10014965Y-4648835D01*
X10004552Y-4638420D01*
X9994138Y-4633340D01*
X9973309Y-4633340D01*
X9963150Y-4638420D01*
X9952736Y-4648835D01*
X9947402Y-4659248D01*
X9861295Y-4742306D02*
G01*
X9913111Y-4669662D01*
X9835134Y-4669662D01*
X9861295Y-4742306D02*
G01*
X9861295Y-4633340D01*
X9738613Y-4742306D02*
G01*
X9790429Y-4742306D01*
X9795763Y-4695570D01*
X9790429Y-4700651D01*
X9774936Y-4705985D01*
X9759441Y-4705985D01*
X9743693Y-4700651D01*
X9733279Y-4690490D01*
X9728200Y-4674743D01*
X9728200Y-4664329D01*
X9733279Y-4648835D01*
X9743693Y-4638420D01*
X9759441Y-4633340D01*
X9774936Y-4633340D01*
X9790429Y-4638420D01*
X9795763Y-4643501D01*
X9800843Y-4653914D01*
X9947402Y-6216395D02*
G01*
X9952736Y-6226810D01*
X9963150Y-6237223D01*
X9973309Y-6242304D01*
X9994138Y-6242304D01*
X10004552Y-6237223D01*
X10014965Y-6226810D01*
X10020300Y-6216395D01*
X10025379Y-6200647D01*
X10025379Y-6174739D01*
X10020300Y-6159245D01*
X10014965Y-6148831D01*
X10004552Y-6138418D01*
X9994138Y-6133337D01*
X9973309Y-6133337D01*
X9963150Y-6138418D01*
X9952736Y-6148831D01*
X9947402Y-6159245D01*
X9861295Y-6242304D02*
G01*
X9913111Y-6169660D01*
X9835134Y-6169660D01*
X9861295Y-6242304D02*
G01*
X9861295Y-6133337D01*
X9738613Y-6226810D02*
G01*
X9743693Y-6237223D01*
X9759441Y-6242304D01*
X9769856Y-6242304D01*
X9785350Y-6237223D01*
X9795763Y-6221476D01*
X9800843Y-6195568D01*
X9800843Y-6169660D01*
X9795763Y-6148831D01*
X9785350Y-6138418D01*
X9769856Y-6133337D01*
X9764522Y-6133337D01*
X9749027Y-6138418D01*
X9738613Y-6148831D01*
X9733279Y-6164326D01*
X9733279Y-6169660D01*
X9738613Y-6185154D01*
X9749027Y-6195568D01*
X9764522Y-6200647D01*
X9769856Y-6200647D01*
X9785350Y-6195568D01*
X9795763Y-6185154D01*
X9800843Y-6169660D01*
X9947402Y-7716393D02*
G01*
X9952736Y-7726806D01*
X9963150Y-7737220D01*
X9973309Y-7742301D01*
X9994138Y-7742301D01*
X10004552Y-7737220D01*
X10014965Y-7726806D01*
X10020300Y-7716393D01*
X10025379Y-7700645D01*
X10025379Y-7674737D01*
X10020300Y-7659243D01*
X10014965Y-7648829D01*
X10004552Y-7638414D01*
X9994138Y-7633335D01*
X9973309Y-7633335D01*
X9963150Y-7638414D01*
X9952736Y-7648829D01*
X9947402Y-7659243D01*
X9861295Y-7742301D02*
G01*
X9913111Y-7669656D01*
X9835134Y-7669656D01*
X9861295Y-7742301D02*
G01*
X9861295Y-7633335D01*
X9728200Y-7742301D02*
G01*
X9780270Y-7633335D01*
X9800843Y-7742301D02*
G01*
X9728200Y-7742301D01*
X9947402Y-9216389D02*
G01*
X9952736Y-9226804D01*
X9963150Y-9237218D01*
X9973309Y-9242297D01*
X9994138Y-9242297D01*
X10004552Y-9237218D01*
X10014965Y-9226804D01*
X10020300Y-9216389D01*
X10025379Y-9200642D01*
X10025379Y-9174734D01*
X10020300Y-9159239D01*
X10014965Y-9148826D01*
X10004552Y-9138412D01*
X9994138Y-9133331D01*
X9973309Y-9133331D01*
X9963150Y-9138412D01*
X9952736Y-9148826D01*
X9947402Y-9159239D01*
X9861295Y-9242297D02*
G01*
X9913111Y-9169654D01*
X9835134Y-9169654D01*
X9861295Y-9242297D02*
G01*
X9861295Y-9133331D01*
X9774936Y-9242297D02*
G01*
X9790429Y-9237218D01*
X9795763Y-9226804D01*
X9795763Y-9216389D01*
X9790429Y-9205976D01*
X9780270Y-9200642D01*
X9759441Y-9195562D01*
X9743693Y-9190481D01*
X9733279Y-9180068D01*
X9728200Y-9169654D01*
X9728200Y-9153905D01*
X9733279Y-9143492D01*
X9738613Y-9138412D01*
X9754108Y-9133331D01*
X9774936Y-9133331D01*
X9790429Y-9138412D01*
X9795763Y-9143492D01*
X9800843Y-9153905D01*
X9800843Y-9169654D01*
X9795763Y-9180068D01*
X9785350Y-9190481D01*
X9769856Y-9195562D01*
X9749027Y-9200642D01*
X9738613Y-9205976D01*
X9733279Y-9216389D01*
X9733279Y-9226804D01*
X9738613Y-9237218D01*
X9754108Y-9242297D01*
X9774936Y-9242297D01*
X9947402Y-10716387D02*
G01*
X9952736Y-10726801D01*
X9963150Y-10737214D01*
X9973309Y-10742295D01*
X9994138Y-10742295D01*
X10004552Y-10737214D01*
X10014965Y-10726801D01*
X10020300Y-10716387D01*
X10025379Y-10700638D01*
X10025379Y-10674730D01*
X10020300Y-10659237D01*
X10014965Y-10648822D01*
X10004552Y-10638409D01*
X9994138Y-10633329D01*
X9973309Y-10633329D01*
X9963150Y-10638409D01*
X9952736Y-10648822D01*
X9947402Y-10659237D01*
X9861295Y-10742295D02*
G01*
X9913111Y-10669651D01*
X9835134Y-10669651D01*
X9861295Y-10742295D02*
G01*
X9861295Y-10633329D01*
X9733279Y-10705972D02*
G01*
X9738613Y-10690479D01*
X9749027Y-10680064D01*
X9764522Y-10674730D01*
X9769856Y-10674730D01*
X9785350Y-10680064D01*
X9795763Y-10690479D01*
X9800843Y-10705972D01*
X9800843Y-10711053D01*
X9795763Y-10726801D01*
X9785350Y-10737214D01*
X9769856Y-10742295D01*
X9764522Y-10742295D01*
X9749027Y-10737214D01*
X9738613Y-10726801D01*
X9733279Y-10705972D01*
X9733279Y-10680064D01*
X9738613Y-10653903D01*
X9749027Y-10638409D01*
X9764522Y-10633329D01*
X9774936Y-10633329D01*
X9790429Y-10638409D01*
X9795763Y-10648822D01*
X11447399Y-1716404D02*
G01*
X11452733Y-1726819D01*
X11463147Y-1737232D01*
X11473306Y-1742312D01*
X11494134Y-1742312D01*
X11504549Y-1737232D01*
X11514963Y-1726819D01*
X11520297Y-1716404D01*
X11525377Y-1700656D01*
X11525377Y-1674748D01*
X11520297Y-1659254D01*
X11514963Y-1648840D01*
X11504549Y-1638427D01*
X11494134Y-1633346D01*
X11473306Y-1633346D01*
X11463147Y-1638427D01*
X11452733Y-1648840D01*
X11447399Y-1659254D01*
X11350879Y-1742312D02*
G01*
X11402695Y-1742312D01*
X11408029Y-1695577D01*
X11402695Y-1700656D01*
X11387200Y-1705990D01*
X11371706Y-1705990D01*
X11355959Y-1700656D01*
X11345545Y-1690496D01*
X11340465Y-1674748D01*
X11340465Y-1664335D01*
X11345545Y-1648840D01*
X11355959Y-1638427D01*
X11371706Y-1633346D01*
X11387200Y-1633346D01*
X11402695Y-1638427D01*
X11408029Y-1643506D01*
X11413109Y-1653920D01*
X11274933Y-1742312D02*
G01*
X11290427Y-1737232D01*
X11300840Y-1721485D01*
X11306175Y-1695577D01*
X11306175Y-1680082D01*
X11300840Y-1653920D01*
X11290427Y-1638427D01*
X11274933Y-1633346D01*
X11264518Y-1633346D01*
X11249025Y-1638427D01*
X11238611Y-1653920D01*
X11233277Y-1680082D01*
X11233277Y-1695577D01*
X11238611Y-1721485D01*
X11249025Y-1737232D01*
X11264518Y-1742312D01*
X11274933Y-1742312D01*
X11447399Y-3216402D02*
G01*
X11452733Y-3226815D01*
X11463147Y-3237229D01*
X11473306Y-3242310D01*
X11494134Y-3242310D01*
X11504549Y-3237229D01*
X11514963Y-3226815D01*
X11520297Y-3216402D01*
X11525377Y-3200654D01*
X11525377Y-3174745D01*
X11520297Y-3159252D01*
X11514963Y-3148837D01*
X11504549Y-3138423D01*
X11494134Y-3133344D01*
X11473306Y-3133344D01*
X11463147Y-3138423D01*
X11452733Y-3148837D01*
X11447399Y-3159252D01*
X11350879Y-3242310D02*
G01*
X11402695Y-3242310D01*
X11408029Y-3195573D01*
X11402695Y-3200654D01*
X11387200Y-3205987D01*
X11371706Y-3205987D01*
X11355959Y-3200654D01*
X11345545Y-3190494D01*
X11340465Y-3174745D01*
X11340465Y-3164331D01*
X11345545Y-3148837D01*
X11355959Y-3138423D01*
X11371706Y-3133344D01*
X11387200Y-3133344D01*
X11402695Y-3138423D01*
X11408029Y-3143504D01*
X11413109Y-3153918D01*
X11306175Y-3221481D02*
G01*
X11295761Y-3226815D01*
X11280266Y-3242310D01*
X11280266Y-3133344D01*
X11447399Y-4716398D02*
G01*
X11452733Y-4726812D01*
X11463147Y-4737227D01*
X11473306Y-4742306D01*
X11494134Y-4742306D01*
X11504549Y-4737227D01*
X11514963Y-4726812D01*
X11520297Y-4716398D01*
X11525377Y-4700651D01*
X11525377Y-4674743D01*
X11520297Y-4659248D01*
X11514963Y-4648835D01*
X11504549Y-4638420D01*
X11494134Y-4633340D01*
X11473306Y-4633340D01*
X11463147Y-4638420D01*
X11452733Y-4648835D01*
X11447399Y-4659248D01*
X11350879Y-4742306D02*
G01*
X11402695Y-4742306D01*
X11408029Y-4695570D01*
X11402695Y-4700651D01*
X11387200Y-4705985D01*
X11371706Y-4705985D01*
X11355959Y-4700651D01*
X11345545Y-4690490D01*
X11340465Y-4674743D01*
X11340465Y-4664329D01*
X11345545Y-4648835D01*
X11355959Y-4638420D01*
X11371706Y-4633340D01*
X11387200Y-4633340D01*
X11402695Y-4638420D01*
X11408029Y-4643501D01*
X11413109Y-4653914D01*
X11300840Y-4716398D02*
G01*
X11300840Y-4721479D01*
X11295761Y-4731893D01*
X11290427Y-4737227D01*
X11280266Y-4742306D01*
X11259438Y-4742306D01*
X11249025Y-4737227D01*
X11243690Y-4731893D01*
X11238611Y-4721479D01*
X11238611Y-4711064D01*
X11243690Y-4700651D01*
X11254104Y-4685156D01*
X11306175Y-4633340D01*
X11233277Y-4633340D01*
X11447399Y-6216395D02*
G01*
X11452733Y-6226810D01*
X11463147Y-6237223D01*
X11473306Y-6242304D01*
X11494134Y-6242304D01*
X11504549Y-6237223D01*
X11514963Y-6226810D01*
X11520297Y-6216395D01*
X11525377Y-6200647D01*
X11525377Y-6174739D01*
X11520297Y-6159245D01*
X11514963Y-6148831D01*
X11504549Y-6138418D01*
X11494134Y-6133337D01*
X11473306Y-6133337D01*
X11463147Y-6138418D01*
X11452733Y-6148831D01*
X11447399Y-6159245D01*
X11350879Y-6242304D02*
G01*
X11402695Y-6242304D01*
X11408029Y-6195568D01*
X11402695Y-6200647D01*
X11387200Y-6205981D01*
X11371706Y-6205981D01*
X11355959Y-6200647D01*
X11345545Y-6190487D01*
X11340465Y-6174739D01*
X11340465Y-6164326D01*
X11345545Y-6148831D01*
X11355959Y-6138418D01*
X11371706Y-6133337D01*
X11387200Y-6133337D01*
X11402695Y-6138418D01*
X11408029Y-6143497D01*
X11413109Y-6153912D01*
X11295761Y-6242304D02*
G01*
X11238611Y-6242304D01*
X11269852Y-6200647D01*
X11254104Y-6200647D01*
X11243690Y-6195568D01*
X11238611Y-6190487D01*
X11233277Y-6174739D01*
X11233277Y-6164326D01*
X11238611Y-6148831D01*
X11249025Y-6138418D01*
X11264518Y-6133337D01*
X11280266Y-6133337D01*
X11295761Y-6138418D01*
X11300840Y-6143497D01*
X11306175Y-6153912D01*
X11447399Y-7716393D02*
G01*
X11452733Y-7726806D01*
X11463147Y-7737220D01*
X11473306Y-7742301D01*
X11494134Y-7742301D01*
X11504549Y-7737220D01*
X11514963Y-7726806D01*
X11520297Y-7716393D01*
X11525377Y-7700645D01*
X11525377Y-7674737D01*
X11520297Y-7659243D01*
X11514963Y-7648829D01*
X11504549Y-7638414D01*
X11494134Y-7633335D01*
X11473306Y-7633335D01*
X11463147Y-7638414D01*
X11452733Y-7648829D01*
X11447399Y-7659243D01*
X11350879Y-7742301D02*
G01*
X11402695Y-7742301D01*
X11408029Y-7695564D01*
X11402695Y-7700645D01*
X11387200Y-7705979D01*
X11371706Y-7705979D01*
X11355959Y-7700645D01*
X11345545Y-7690485D01*
X11340465Y-7674737D01*
X11340465Y-7664322D01*
X11345545Y-7648829D01*
X11355959Y-7638414D01*
X11371706Y-7633335D01*
X11387200Y-7633335D01*
X11402695Y-7638414D01*
X11408029Y-7643495D01*
X11413109Y-7653909D01*
X11254104Y-7742301D02*
G01*
X11306175Y-7669656D01*
X11228197Y-7669656D01*
X11254104Y-7742301D02*
G01*
X11254104Y-7633335D01*
X11447399Y-9216389D02*
G01*
X11452733Y-9226804D01*
X11463147Y-9237218D01*
X11473306Y-9242297D01*
X11494134Y-9242297D01*
X11504549Y-9237218D01*
X11514963Y-9226804D01*
X11520297Y-9216389D01*
X11525377Y-9200642D01*
X11525377Y-9174734D01*
X11520297Y-9159239D01*
X11514963Y-9148826D01*
X11504549Y-9138412D01*
X11494134Y-9133331D01*
X11473306Y-9133331D01*
X11463147Y-9138412D01*
X11452733Y-9148826D01*
X11447399Y-9159239D01*
X11350879Y-9242297D02*
G01*
X11402695Y-9242297D01*
X11408029Y-9195562D01*
X11402695Y-9200642D01*
X11387200Y-9205976D01*
X11371706Y-9205976D01*
X11355959Y-9200642D01*
X11345545Y-9190481D01*
X11340465Y-9174734D01*
X11340465Y-9164320D01*
X11345545Y-9148826D01*
X11355959Y-9138412D01*
X11371706Y-9133331D01*
X11387200Y-9133331D01*
X11402695Y-9138412D01*
X11408029Y-9143492D01*
X11413109Y-9153905D01*
X11243690Y-9242297D02*
G01*
X11295761Y-9242297D01*
X11300840Y-9195562D01*
X11295761Y-9200642D01*
X11280266Y-9205976D01*
X11264518Y-9205976D01*
X11249025Y-9200642D01*
X11238611Y-9190481D01*
X11233277Y-9174734D01*
X11233277Y-9164320D01*
X11238611Y-9148826D01*
X11249025Y-9138412D01*
X11264518Y-9133331D01*
X11280266Y-9133331D01*
X11295761Y-9138412D01*
X11300840Y-9143492D01*
X11306175Y-9153905D01*
X11447399Y-10716387D02*
G01*
X11452733Y-10726801D01*
X11463147Y-10737214D01*
X11473306Y-10742295D01*
X11494134Y-10742295D01*
X11504549Y-10737214D01*
X11514963Y-10726801D01*
X11520297Y-10716387D01*
X11525377Y-10700638D01*
X11525377Y-10674730D01*
X11520297Y-10659237D01*
X11514963Y-10648822D01*
X11504549Y-10638409D01*
X11494134Y-10633329D01*
X11473306Y-10633329D01*
X11463147Y-10638409D01*
X11452733Y-10648822D01*
X11447399Y-10659237D01*
X11350879Y-10742295D02*
G01*
X11402695Y-10742295D01*
X11408029Y-10695559D01*
X11402695Y-10700638D01*
X11387200Y-10705972D01*
X11371706Y-10705972D01*
X11355959Y-10700638D01*
X11345545Y-10690479D01*
X11340465Y-10674730D01*
X11340465Y-10664317D01*
X11345545Y-10648822D01*
X11355959Y-10638409D01*
X11371706Y-10633329D01*
X11387200Y-10633329D01*
X11402695Y-10638409D01*
X11408029Y-10643488D01*
X11413109Y-10653903D01*
X11243690Y-10726801D02*
G01*
X11249025Y-10737214D01*
X11264518Y-10742295D01*
X11274933Y-10742295D01*
X11290427Y-10737214D01*
X11300840Y-10721467D01*
X11306175Y-10695559D01*
X11306175Y-10669651D01*
X11300840Y-10648822D01*
X11290427Y-10638409D01*
X11274933Y-10633329D01*
X11269852Y-10633329D01*
X11254104Y-10638409D01*
X11243690Y-10648822D01*
X11238611Y-10664317D01*
X11238611Y-10669651D01*
X11243690Y-10685145D01*
X11254104Y-10695559D01*
X11269852Y-10700638D01*
X11274933Y-10700638D01*
X11290427Y-10695559D01*
X11300840Y-10685145D01*
X11306175Y-10669651D01*
X12947395Y-1716404D02*
G01*
X12952729Y-1726819D01*
X12963143Y-1737232D01*
X12973304Y-1742312D01*
X12994131Y-1742312D01*
X13004545Y-1737232D01*
X13014959Y-1726819D01*
X13020293Y-1716404D01*
X13025374Y-1700656D01*
X13025374Y-1674748D01*
X13020293Y-1659254D01*
X13014959Y-1648840D01*
X13004545Y-1638427D01*
X12994131Y-1633346D01*
X12973304Y-1633346D01*
X12963143Y-1638427D01*
X12952729Y-1648840D01*
X12947395Y-1659254D01*
X12850875Y-1742312D02*
G01*
X12902691Y-1742312D01*
X12908025Y-1695577D01*
X12902691Y-1700656D01*
X12887197Y-1705990D01*
X12871704Y-1705990D01*
X12855956Y-1700656D01*
X12845541Y-1690496D01*
X12840461Y-1674748D01*
X12840461Y-1664335D01*
X12845541Y-1648840D01*
X12855956Y-1638427D01*
X12871704Y-1633346D01*
X12887197Y-1633346D01*
X12902691Y-1638427D01*
X12908025Y-1643506D01*
X12913106Y-1653920D01*
X12733274Y-1742312D02*
G01*
X12785343Y-1633346D01*
X12806172Y-1742312D02*
G01*
X12733274Y-1742312D01*
X12947395Y-3216402D02*
G01*
X12952729Y-3226815D01*
X12963143Y-3237229D01*
X12973304Y-3242310D01*
X12994131Y-3242310D01*
X13004545Y-3237229D01*
X13014959Y-3226815D01*
X13020293Y-3216402D01*
X13025374Y-3200654D01*
X13025374Y-3174745D01*
X13020293Y-3159252D01*
X13014959Y-3148837D01*
X13004545Y-3138423D01*
X12994131Y-3133344D01*
X12973304Y-3133344D01*
X12963143Y-3138423D01*
X12952729Y-3148837D01*
X12947395Y-3159252D01*
X12850875Y-3242310D02*
G01*
X12902691Y-3242310D01*
X12908025Y-3195573D01*
X12902691Y-3200654D01*
X12887197Y-3205987D01*
X12871704Y-3205987D01*
X12855956Y-3200654D01*
X12845541Y-3190494D01*
X12840461Y-3174745D01*
X12840461Y-3164331D01*
X12845541Y-3148837D01*
X12855956Y-3138423D01*
X12871704Y-3133344D01*
X12887197Y-3133344D01*
X12902691Y-3138423D01*
X12908025Y-3143504D01*
X12913106Y-3153918D01*
X12780263Y-3242310D02*
G01*
X12795758Y-3237229D01*
X12800838Y-3226815D01*
X12800838Y-3216402D01*
X12795758Y-3205987D01*
X12785343Y-3200654D01*
X12764515Y-3195573D01*
X12749022Y-3190494D01*
X12738608Y-3180079D01*
X12733274Y-3169665D01*
X12733274Y-3153918D01*
X12738608Y-3143504D01*
X12743688Y-3138423D01*
X12759436Y-3133344D01*
X12780263Y-3133344D01*
X12795758Y-3138423D01*
X12800838Y-3143504D01*
X12806172Y-3153918D01*
X12806172Y-3169665D01*
X12800838Y-3180079D01*
X12790424Y-3190494D01*
X12774929Y-3195573D01*
X12754102Y-3200654D01*
X12743688Y-3205987D01*
X12738608Y-3216402D01*
X12738608Y-3226815D01*
X12743688Y-3237229D01*
X12759436Y-3242310D01*
X12780263Y-3242310D01*
X12947395Y-4716398D02*
G01*
X12952729Y-4726812D01*
X12963143Y-4737227D01*
X12973304Y-4742306D01*
X12994131Y-4742306D01*
X13004545Y-4737227D01*
X13014959Y-4726812D01*
X13020293Y-4716398D01*
X13025374Y-4700651D01*
X13025374Y-4674743D01*
X13020293Y-4659248D01*
X13014959Y-4648835D01*
X13004545Y-4638420D01*
X12994131Y-4633340D01*
X12973304Y-4633340D01*
X12963143Y-4638420D01*
X12952729Y-4648835D01*
X12947395Y-4659248D01*
X12850875Y-4742306D02*
G01*
X12902691Y-4742306D01*
X12908025Y-4695570D01*
X12902691Y-4700651D01*
X12887197Y-4705985D01*
X12871704Y-4705985D01*
X12855956Y-4700651D01*
X12845541Y-4690490D01*
X12840461Y-4674743D01*
X12840461Y-4664329D01*
X12845541Y-4648835D01*
X12855956Y-4638420D01*
X12871704Y-4633340D01*
X12887197Y-4633340D01*
X12902691Y-4638420D01*
X12908025Y-4643501D01*
X12913106Y-4653914D01*
X12738608Y-4705985D02*
G01*
X12743688Y-4690490D01*
X12754102Y-4680077D01*
X12769850Y-4674743D01*
X12774929Y-4674743D01*
X12790424Y-4680077D01*
X12800838Y-4690490D01*
X12806172Y-4705985D01*
X12806172Y-4711064D01*
X12800838Y-4726812D01*
X12790424Y-4737227D01*
X12774929Y-4742306D01*
X12769850Y-4742306D01*
X12754102Y-4737227D01*
X12743688Y-4726812D01*
X12738608Y-4705985D01*
X12738608Y-4680077D01*
X12743688Y-4653914D01*
X12754102Y-4638420D01*
X12769850Y-4633340D01*
X12780263Y-4633340D01*
X12795758Y-4638420D01*
X12800838Y-4648835D01*
X12947395Y-6216395D02*
G01*
X12952729Y-6226810D01*
X12963143Y-6237223D01*
X12973304Y-6242304D01*
X12994131Y-6242304D01*
X13004545Y-6237223D01*
X13014959Y-6226810D01*
X13020293Y-6216395D01*
X13025374Y-6200647D01*
X13025374Y-6174739D01*
X13020293Y-6159245D01*
X13014959Y-6148831D01*
X13004545Y-6138418D01*
X12994131Y-6133337D01*
X12973304Y-6133337D01*
X12963143Y-6138418D01*
X12952729Y-6148831D01*
X12947395Y-6159245D01*
X12850875Y-6226810D02*
G01*
X12855956Y-6237223D01*
X12871704Y-6242304D01*
X12881863Y-6242304D01*
X12897611Y-6237223D01*
X12908025Y-6221476D01*
X12913106Y-6195568D01*
X12913106Y-6169660D01*
X12908025Y-6148831D01*
X12897611Y-6138418D01*
X12881863Y-6133337D01*
X12876784Y-6133337D01*
X12861290Y-6138418D01*
X12850875Y-6148831D01*
X12845541Y-6164326D01*
X12845541Y-6169660D01*
X12850875Y-6185154D01*
X12861290Y-6195568D01*
X12876784Y-6200647D01*
X12881863Y-6200647D01*
X12897611Y-6195568D01*
X12908025Y-6185154D01*
X12913106Y-6169660D01*
X12780263Y-6242304D02*
G01*
X12795758Y-6237223D01*
X12806172Y-6221476D01*
X12811252Y-6195568D01*
X12811252Y-6180073D01*
X12806172Y-6153912D01*
X12795758Y-6138418D01*
X12780263Y-6133337D01*
X12769850Y-6133337D01*
X12754102Y-6138418D01*
X12743688Y-6153912D01*
X12738608Y-6180073D01*
X12738608Y-6195568D01*
X12743688Y-6221476D01*
X12754102Y-6237223D01*
X12769850Y-6242304D01*
X12780263Y-6242304D01*
X12947395Y-7716393D02*
G01*
X12952729Y-7726806D01*
X12963143Y-7737220D01*
X12973304Y-7742301D01*
X12994131Y-7742301D01*
X13004545Y-7737220D01*
X13014959Y-7726806D01*
X13020293Y-7716393D01*
X13025374Y-7700645D01*
X13025374Y-7674737D01*
X13020293Y-7659243D01*
X13014959Y-7648829D01*
X13004545Y-7638414D01*
X12994131Y-7633335D01*
X12973304Y-7633335D01*
X12963143Y-7638414D01*
X12952729Y-7648829D01*
X12947395Y-7659243D01*
X12850875Y-7726806D02*
G01*
X12855956Y-7737220D01*
X12871704Y-7742301D01*
X12881863Y-7742301D01*
X12897611Y-7737220D01*
X12908025Y-7721472D01*
X12913106Y-7695564D01*
X12913106Y-7669656D01*
X12908025Y-7648829D01*
X12897611Y-7638414D01*
X12881863Y-7633335D01*
X12876784Y-7633335D01*
X12861290Y-7638414D01*
X12850875Y-7648829D01*
X12845541Y-7664322D01*
X12845541Y-7669656D01*
X12850875Y-7685151D01*
X12861290Y-7695564D01*
X12876784Y-7700645D01*
X12881863Y-7700645D01*
X12897611Y-7695564D01*
X12908025Y-7685151D01*
X12913106Y-7669656D01*
X12811252Y-7721472D02*
G01*
X12800838Y-7726806D01*
X12785343Y-7742301D01*
X12785343Y-7633335D01*
X12947395Y-9216389D02*
G01*
X12952729Y-9226804D01*
X12963143Y-9237218D01*
X12973304Y-9242297D01*
X12994131Y-9242297D01*
X13004545Y-9237218D01*
X13014959Y-9226804D01*
X13020293Y-9216389D01*
X13025374Y-9200642D01*
X13025374Y-9174734D01*
X13020293Y-9159239D01*
X13014959Y-9148826D01*
X13004545Y-9138412D01*
X12994131Y-9133331D01*
X12973304Y-9133331D01*
X12963143Y-9138412D01*
X12952729Y-9148826D01*
X12947395Y-9159239D01*
X12850875Y-9226804D02*
G01*
X12855956Y-9237218D01*
X12871704Y-9242297D01*
X12881863Y-9242297D01*
X12897611Y-9237218D01*
X12908025Y-9221470D01*
X12913106Y-9195562D01*
X12913106Y-9169654D01*
X12908025Y-9148826D01*
X12897611Y-9138412D01*
X12881863Y-9133331D01*
X12876784Y-9133331D01*
X12861290Y-9138412D01*
X12850875Y-9148826D01*
X12845541Y-9164320D01*
X12845541Y-9169654D01*
X12850875Y-9185147D01*
X12861290Y-9195562D01*
X12876784Y-9200642D01*
X12881863Y-9200642D01*
X12897611Y-9195562D01*
X12908025Y-9185147D01*
X12913106Y-9169654D01*
X12806172Y-9216389D02*
G01*
X12806172Y-9221470D01*
X12800838Y-9231884D01*
X12795758Y-9237218D01*
X12785343Y-9242297D01*
X12764515Y-9242297D01*
X12754102Y-9237218D01*
X12749022Y-9231884D01*
X12743688Y-9221470D01*
X12743688Y-9211055D01*
X12749022Y-9200642D01*
X12759436Y-9185147D01*
X12811252Y-9133331D01*
X12738608Y-9133331D01*
X12947395Y-10716387D02*
G01*
X12952729Y-10726801D01*
X12963143Y-10737214D01*
X12973304Y-10742295D01*
X12994131Y-10742295D01*
X13004545Y-10737214D01*
X13014959Y-10726801D01*
X13020293Y-10716387D01*
X13025374Y-10700638D01*
X13025374Y-10674730D01*
X13020293Y-10659237D01*
X13014959Y-10648822D01*
X13004545Y-10638409D01*
X12994131Y-10633329D01*
X12973304Y-10633329D01*
X12963143Y-10638409D01*
X12952729Y-10648822D01*
X12947395Y-10659237D01*
X12850875Y-10726801D02*
G01*
X12855956Y-10737214D01*
X12871704Y-10742295D01*
X12881863Y-10742295D01*
X12897611Y-10737214D01*
X12908025Y-10721467D01*
X12913106Y-10695559D01*
X12913106Y-10669651D01*
X12908025Y-10648822D01*
X12897611Y-10638409D01*
X12881863Y-10633329D01*
X12876784Y-10633329D01*
X12861290Y-10638409D01*
X12850875Y-10648822D01*
X12845541Y-10664317D01*
X12845541Y-10669651D01*
X12850875Y-10685145D01*
X12861290Y-10695559D01*
X12876784Y-10700638D01*
X12881863Y-10700638D01*
X12897611Y-10695559D01*
X12908025Y-10685145D01*
X12913106Y-10669651D01*
X12800838Y-10742295D02*
G01*
X12743688Y-10742295D01*
X12774929Y-10700638D01*
X12759436Y-10700638D01*
X12749022Y-10695559D01*
X12743688Y-10690479D01*
X12738608Y-10674730D01*
X12738608Y-10664317D01*
X12743688Y-10648822D01*
X12754102Y-10638409D01*
X12769850Y-10633329D01*
X12785343Y-10633329D01*
X12800838Y-10638409D01*
X12806172Y-10643488D01*
X12811252Y-10653903D01*
X14447393Y-1716404D02*
G01*
X14452727Y-1726819D01*
X14463141Y-1737232D01*
X14473300Y-1742312D01*
X14494129Y-1742312D01*
X14504543Y-1737232D01*
X14514956Y-1726819D01*
X14520291Y-1716404D01*
X14525370Y-1700656D01*
X14525370Y-1674748D01*
X14520291Y-1659254D01*
X14514956Y-1648840D01*
X14504543Y-1638427D01*
X14494129Y-1633346D01*
X14473300Y-1633346D01*
X14463141Y-1638427D01*
X14452727Y-1648840D01*
X14447393Y-1659254D01*
X14350872Y-1726819D02*
G01*
X14355952Y-1737232D01*
X14371700Y-1742312D01*
X14381861Y-1742312D01*
X14397609Y-1737232D01*
X14408022Y-1721485D01*
X14413102Y-1695577D01*
X14413102Y-1669669D01*
X14408022Y-1648840D01*
X14397609Y-1638427D01*
X14381861Y-1633346D01*
X14376781Y-1633346D01*
X14361286Y-1638427D01*
X14350872Y-1648840D01*
X14345538Y-1664335D01*
X14345538Y-1669669D01*
X14350872Y-1685162D01*
X14361286Y-1695577D01*
X14376781Y-1700656D01*
X14381861Y-1700656D01*
X14397609Y-1695577D01*
X14408022Y-1685162D01*
X14413102Y-1669669D01*
X14259433Y-1742312D02*
G01*
X14311249Y-1669669D01*
X14233270Y-1669669D01*
X14259433Y-1742312D02*
G01*
X14259433Y-1633346D01*
X14447393Y-3216402D02*
G01*
X14452727Y-3226815D01*
X14463141Y-3237229D01*
X14473300Y-3242310D01*
X14494129Y-3242310D01*
X14504543Y-3237229D01*
X14514956Y-3226815D01*
X14520291Y-3216402D01*
X14525370Y-3200654D01*
X14525370Y-3174745D01*
X14520291Y-3159252D01*
X14514956Y-3148837D01*
X14504543Y-3138423D01*
X14494129Y-3133344D01*
X14473300Y-3133344D01*
X14463141Y-3138423D01*
X14452727Y-3148837D01*
X14447393Y-3159252D01*
X14350872Y-3226815D02*
G01*
X14355952Y-3237229D01*
X14371700Y-3242310D01*
X14381861Y-3242310D01*
X14397609Y-3237229D01*
X14408022Y-3221481D01*
X14413102Y-3195573D01*
X14413102Y-3169665D01*
X14408022Y-3148837D01*
X14397609Y-3138423D01*
X14381861Y-3133344D01*
X14376781Y-3133344D01*
X14361286Y-3138423D01*
X14350872Y-3148837D01*
X14345538Y-3164331D01*
X14345538Y-3169665D01*
X14350872Y-3185160D01*
X14361286Y-3195573D01*
X14376781Y-3200654D01*
X14381861Y-3200654D01*
X14397609Y-3195573D01*
X14408022Y-3185160D01*
X14413102Y-3169665D01*
X14249018Y-3242310D02*
G01*
X14300834Y-3242310D01*
X14306168Y-3195573D01*
X14300834Y-3200654D01*
X14285341Y-3205987D01*
X14269847Y-3205987D01*
X14254099Y-3200654D01*
X14243684Y-3190494D01*
X14238604Y-3174745D01*
X14238604Y-3164331D01*
X14243684Y-3148837D01*
X14254099Y-3138423D01*
X14269847Y-3133344D01*
X14285341Y-3133344D01*
X14300834Y-3138423D01*
X14306168Y-3143504D01*
X14311249Y-3153918D01*
X14447393Y-4716398D02*
G01*
X14452727Y-4726812D01*
X14463141Y-4737227D01*
X14473300Y-4742306D01*
X14494129Y-4742306D01*
X14504543Y-4737227D01*
X14514956Y-4726812D01*
X14520291Y-4716398D01*
X14525370Y-4700651D01*
X14525370Y-4674743D01*
X14520291Y-4659248D01*
X14514956Y-4648835D01*
X14504543Y-4638420D01*
X14494129Y-4633340D01*
X14473300Y-4633340D01*
X14463141Y-4638420D01*
X14452727Y-4648835D01*
X14447393Y-4659248D01*
X14350872Y-4726812D02*
G01*
X14355952Y-4737227D01*
X14371700Y-4742306D01*
X14381861Y-4742306D01*
X14397609Y-4737227D01*
X14408022Y-4721479D01*
X14413102Y-4695570D01*
X14413102Y-4669662D01*
X14408022Y-4648835D01*
X14397609Y-4638420D01*
X14381861Y-4633340D01*
X14376781Y-4633340D01*
X14361286Y-4638420D01*
X14350872Y-4648835D01*
X14345538Y-4664329D01*
X14345538Y-4669662D01*
X14350872Y-4685156D01*
X14361286Y-4695570D01*
X14376781Y-4700651D01*
X14381861Y-4700651D01*
X14397609Y-4695570D01*
X14408022Y-4685156D01*
X14413102Y-4669662D01*
X14249018Y-4726812D02*
G01*
X14254099Y-4737227D01*
X14269847Y-4742306D01*
X14280261Y-4742306D01*
X14295754Y-4737227D01*
X14306168Y-4721479D01*
X14311249Y-4695570D01*
X14311249Y-4669662D01*
X14306168Y-4648835D01*
X14295754Y-4638420D01*
X14280261Y-4633340D01*
X14274927Y-4633340D01*
X14259433Y-4638420D01*
X14249018Y-4648835D01*
X14243684Y-4664329D01*
X14243684Y-4669662D01*
X14249018Y-4685156D01*
X14259433Y-4695570D01*
X14274927Y-4700651D01*
X14280261Y-4700651D01*
X14295754Y-4695570D01*
X14306168Y-4685156D01*
X14311249Y-4669662D01*
X14447393Y-6216395D02*
G01*
X14452727Y-6226810D01*
X14463141Y-6237223D01*
X14473300Y-6242304D01*
X14494129Y-6242304D01*
X14504543Y-6237223D01*
X14514956Y-6226810D01*
X14520291Y-6216395D01*
X14525370Y-6200647D01*
X14525370Y-6174739D01*
X14520291Y-6159245D01*
X14514956Y-6148831D01*
X14504543Y-6138418D01*
X14494129Y-6133337D01*
X14473300Y-6133337D01*
X14463141Y-6138418D01*
X14452727Y-6148831D01*
X14447393Y-6159245D01*
X14350872Y-6226810D02*
G01*
X14355952Y-6237223D01*
X14371700Y-6242304D01*
X14381861Y-6242304D01*
X14397609Y-6237223D01*
X14408022Y-6221476D01*
X14413102Y-6195568D01*
X14413102Y-6169660D01*
X14408022Y-6148831D01*
X14397609Y-6138418D01*
X14381861Y-6133337D01*
X14376781Y-6133337D01*
X14361286Y-6138418D01*
X14350872Y-6148831D01*
X14345538Y-6164326D01*
X14345538Y-6169660D01*
X14350872Y-6185154D01*
X14361286Y-6195568D01*
X14376781Y-6200647D01*
X14381861Y-6200647D01*
X14397609Y-6195568D01*
X14408022Y-6185154D01*
X14413102Y-6169660D01*
X14238604Y-6242304D02*
G01*
X14290420Y-6133337D01*
X14311249Y-6242304D02*
G01*
X14238604Y-6242304D01*
X14447393Y-7716393D02*
G01*
X14452727Y-7726806D01*
X14463141Y-7737220D01*
X14473300Y-7742301D01*
X14494129Y-7742301D01*
X14504543Y-7737220D01*
X14514956Y-7726806D01*
X14520291Y-7716393D01*
X14525370Y-7700645D01*
X14525370Y-7674737D01*
X14520291Y-7659243D01*
X14514956Y-7648829D01*
X14504543Y-7638414D01*
X14494129Y-7633335D01*
X14473300Y-7633335D01*
X14463141Y-7638414D01*
X14452727Y-7648829D01*
X14447393Y-7659243D01*
X14350872Y-7726806D02*
G01*
X14355952Y-7737220D01*
X14371700Y-7742301D01*
X14381861Y-7742301D01*
X14397609Y-7737220D01*
X14408022Y-7721472D01*
X14413102Y-7695564D01*
X14413102Y-7669656D01*
X14408022Y-7648829D01*
X14397609Y-7638414D01*
X14381861Y-7633335D01*
X14376781Y-7633335D01*
X14361286Y-7638414D01*
X14350872Y-7648829D01*
X14345538Y-7664322D01*
X14345538Y-7669656D01*
X14350872Y-7685151D01*
X14361286Y-7695564D01*
X14376781Y-7700645D01*
X14381861Y-7700645D01*
X14397609Y-7695564D01*
X14408022Y-7685151D01*
X14413102Y-7669656D01*
X14285341Y-7742301D02*
G01*
X14300834Y-7737220D01*
X14306168Y-7726806D01*
X14306168Y-7716393D01*
X14300834Y-7705979D01*
X14290420Y-7700645D01*
X14269847Y-7695564D01*
X14254099Y-7690485D01*
X14243684Y-7680070D01*
X14238604Y-7669656D01*
X14238604Y-7653909D01*
X14243684Y-7643495D01*
X14249018Y-7638414D01*
X14264513Y-7633335D01*
X14285341Y-7633335D01*
X14300834Y-7638414D01*
X14306168Y-7643495D01*
X14311249Y-7653909D01*
X14311249Y-7669656D01*
X14306168Y-7680070D01*
X14295754Y-7690485D01*
X14280261Y-7695564D01*
X14259433Y-7700645D01*
X14249018Y-7705979D01*
X14243684Y-7716393D01*
X14243684Y-7726806D01*
X14249018Y-7737220D01*
X14264513Y-7742301D01*
X14285341Y-7742301D01*
X14447393Y-9216389D02*
G01*
X14452727Y-9226804D01*
X14463141Y-9237218D01*
X14473300Y-9242297D01*
X14494129Y-9242297D01*
X14504543Y-9237218D01*
X14514956Y-9226804D01*
X14520291Y-9216389D01*
X14525370Y-9200642D01*
X14525370Y-9174734D01*
X14520291Y-9159239D01*
X14514956Y-9148826D01*
X14504543Y-9138412D01*
X14494129Y-9133331D01*
X14473300Y-9133331D01*
X14463141Y-9138412D01*
X14452727Y-9148826D01*
X14447393Y-9159239D01*
X14350872Y-9226804D02*
G01*
X14355952Y-9237218D01*
X14371700Y-9242297D01*
X14381861Y-9242297D01*
X14397609Y-9237218D01*
X14408022Y-9221470D01*
X14413102Y-9195562D01*
X14413102Y-9169654D01*
X14408022Y-9148826D01*
X14397609Y-9138412D01*
X14381861Y-9133331D01*
X14376781Y-9133331D01*
X14361286Y-9138412D01*
X14350872Y-9148826D01*
X14345538Y-9164320D01*
X14345538Y-9169654D01*
X14350872Y-9185147D01*
X14361286Y-9195562D01*
X14376781Y-9200642D01*
X14381861Y-9200642D01*
X14397609Y-9195562D01*
X14408022Y-9185147D01*
X14413102Y-9169654D01*
X14243684Y-9205976D02*
G01*
X14249018Y-9190481D01*
X14259433Y-9180068D01*
X14274927Y-9174734D01*
X14280261Y-9174734D01*
X14295754Y-9180068D01*
X14306168Y-9190481D01*
X14311249Y-9205976D01*
X14311249Y-9211055D01*
X14306168Y-9226804D01*
X14295754Y-9237218D01*
X14280261Y-9242297D01*
X14274927Y-9242297D01*
X14259433Y-9237218D01*
X14249018Y-9226804D01*
X14243684Y-9205976D01*
X14243684Y-9180068D01*
X14249018Y-9153905D01*
X14259433Y-9138412D01*
X14274927Y-9133331D01*
X14285341Y-9133331D01*
X14300834Y-9138412D01*
X14306168Y-9148826D01*
X14447393Y-10716387D02*
G01*
X14452727Y-10726801D01*
X14463141Y-10737214D01*
X14473300Y-10742295D01*
X14494129Y-10742295D01*
X14504543Y-10737214D01*
X14514956Y-10726801D01*
X14520291Y-10716387D01*
X14525370Y-10700638D01*
X14525370Y-10674730D01*
X14520291Y-10659237D01*
X14514956Y-10648822D01*
X14504543Y-10638409D01*
X14494129Y-10633329D01*
X14473300Y-10633329D01*
X14463141Y-10638409D01*
X14452727Y-10648822D01*
X14447393Y-10659237D01*
X14340459Y-10742295D02*
G01*
X14392275Y-10633329D01*
X14413102Y-10742295D02*
G01*
X14340459Y-10742295D01*
X14274927Y-10742295D02*
G01*
X14290420Y-10737214D01*
X14300834Y-10721467D01*
X14306168Y-10695559D01*
X14306168Y-10680064D01*
X14300834Y-10653903D01*
X14290420Y-10638409D01*
X14274927Y-10633329D01*
X14264513Y-10633329D01*
X14249018Y-10638409D01*
X14238604Y-10653903D01*
X14233270Y-10680064D01*
X14233270Y-10695559D01*
X14238604Y-10721467D01*
X14249018Y-10737214D01*
X14264513Y-10742295D01*
X14274927Y-10742295D01*
X15947390Y-1716404D02*
G01*
X15952724Y-1726819D01*
X15963138Y-1737232D01*
X15973297Y-1742312D01*
X15994125Y-1742312D01*
X16004540Y-1737232D01*
X16014954Y-1726819D01*
X16020288Y-1716404D01*
X16025368Y-1700656D01*
X16025368Y-1674748D01*
X16020288Y-1659254D01*
X16014954Y-1648840D01*
X16004540Y-1638427D01*
X15994125Y-1633346D01*
X15973297Y-1633346D01*
X15963138Y-1638427D01*
X15952724Y-1648840D01*
X15947390Y-1659254D01*
X15840456Y-1742312D02*
G01*
X15892272Y-1633346D01*
X15913100Y-1742312D02*
G01*
X15840456Y-1742312D01*
X15806166Y-1721485D02*
G01*
X15795752Y-1726819D01*
X15780258Y-1742312D01*
X15780258Y-1633346D01*
X15947390Y-3216402D02*
G01*
X15952724Y-3226815D01*
X15963138Y-3237229D01*
X15973297Y-3242310D01*
X15994125Y-3242310D01*
X16004540Y-3237229D01*
X16014954Y-3226815D01*
X16020288Y-3216402D01*
X16025368Y-3200654D01*
X16025368Y-3174745D01*
X16020288Y-3159252D01*
X16014954Y-3148837D01*
X16004540Y-3138423D01*
X15994125Y-3133344D01*
X15973297Y-3133344D01*
X15963138Y-3138423D01*
X15952724Y-3148837D01*
X15947390Y-3159252D01*
X15840456Y-3242310D02*
G01*
X15892272Y-3133344D01*
X15913100Y-3242310D02*
G01*
X15840456Y-3242310D01*
X15800831Y-3216402D02*
G01*
X15800831Y-3221481D01*
X15795752Y-3231895D01*
X15790418Y-3237229D01*
X15780258Y-3242310D01*
X15759429Y-3242310D01*
X15749016Y-3237229D01*
X15743681Y-3231895D01*
X15738602Y-3221481D01*
X15738602Y-3211068D01*
X15743681Y-3200654D01*
X15754095Y-3185160D01*
X15806166Y-3133344D01*
X15733268Y-3133344D01*
X15947390Y-4716398D02*
G01*
X15952724Y-4726812D01*
X15963138Y-4737227D01*
X15973297Y-4742306D01*
X15994125Y-4742306D01*
X16004540Y-4737227D01*
X16014954Y-4726812D01*
X16020288Y-4716398D01*
X16025368Y-4700651D01*
X16025368Y-4674743D01*
X16020288Y-4659248D01*
X16014954Y-4648835D01*
X16004540Y-4638420D01*
X15994125Y-4633340D01*
X15973297Y-4633340D01*
X15963138Y-4638420D01*
X15952724Y-4648835D01*
X15947390Y-4659248D01*
X15840456Y-4742306D02*
G01*
X15892272Y-4633340D01*
X15913100Y-4742306D02*
G01*
X15840456Y-4742306D01*
X15795752Y-4742306D02*
G01*
X15738602Y-4742306D01*
X15769843Y-4700651D01*
X15754095Y-4700651D01*
X15743681Y-4695570D01*
X15738602Y-4690490D01*
X15733268Y-4674743D01*
X15733268Y-4664329D01*
X15738602Y-4648835D01*
X15749016Y-4638420D01*
X15764509Y-4633340D01*
X15780258Y-4633340D01*
X15795752Y-4638420D01*
X15800831Y-4643501D01*
X15806166Y-4653914D01*
X15947390Y-6216395D02*
G01*
X15952724Y-6226810D01*
X15963138Y-6237223D01*
X15973297Y-6242304D01*
X15994125Y-6242304D01*
X16004540Y-6237223D01*
X16014954Y-6226810D01*
X16020288Y-6216395D01*
X16025368Y-6200647D01*
X16025368Y-6174739D01*
X16020288Y-6159245D01*
X16014954Y-6148831D01*
X16004540Y-6138418D01*
X15994125Y-6133337D01*
X15973297Y-6133337D01*
X15963138Y-6138418D01*
X15952724Y-6148831D01*
X15947390Y-6159245D01*
X15840456Y-6242304D02*
G01*
X15892272Y-6133337D01*
X15913100Y-6242304D02*
G01*
X15840456Y-6242304D01*
X15754095Y-6242304D02*
G01*
X15806166Y-6169660D01*
X15728188Y-6169660D01*
X15754095Y-6242304D02*
G01*
X15754095Y-6133337D01*
X15947390Y-7716393D02*
G01*
X15952724Y-7726806D01*
X15963138Y-7737220D01*
X15973297Y-7742301D01*
X15994125Y-7742301D01*
X16004540Y-7737220D01*
X16014954Y-7726806D01*
X16020288Y-7716393D01*
X16025368Y-7700645D01*
X16025368Y-7674737D01*
X16020288Y-7659243D01*
X16014954Y-7648829D01*
X16004540Y-7638414D01*
X15994125Y-7633335D01*
X15973297Y-7633335D01*
X15963138Y-7638414D01*
X15952724Y-7648829D01*
X15947390Y-7659243D01*
X15840456Y-7742301D02*
G01*
X15892272Y-7633335D01*
X15913100Y-7742301D02*
G01*
X15840456Y-7742301D01*
X15743681Y-7742301D02*
G01*
X15795752Y-7742301D01*
X15800831Y-7695564D01*
X15795752Y-7700645D01*
X15780258Y-7705979D01*
X15764509Y-7705979D01*
X15749016Y-7700645D01*
X15738602Y-7690485D01*
X15733268Y-7674737D01*
X15733268Y-7664322D01*
X15738602Y-7648829D01*
X15749016Y-7638414D01*
X15764509Y-7633335D01*
X15780258Y-7633335D01*
X15795752Y-7638414D01*
X15800831Y-7643495D01*
X15806166Y-7653909D01*
X15947390Y-9216389D02*
G01*
X15952724Y-9226804D01*
X15963138Y-9237218D01*
X15973297Y-9242297D01*
X15994125Y-9242297D01*
X16004540Y-9237218D01*
X16014954Y-9226804D01*
X16020288Y-9216389D01*
X16025368Y-9200642D01*
X16025368Y-9174734D01*
X16020288Y-9159239D01*
X16014954Y-9148826D01*
X16004540Y-9138412D01*
X15994125Y-9133331D01*
X15973297Y-9133331D01*
X15963138Y-9138412D01*
X15952724Y-9148826D01*
X15947390Y-9159239D01*
X15840456Y-9242297D02*
G01*
X15892272Y-9133331D01*
X15913100Y-9242297D02*
G01*
X15840456Y-9242297D01*
X15743681Y-9226804D02*
G01*
X15749016Y-9237218D01*
X15764509Y-9242297D01*
X15774924Y-9242297D01*
X15790418Y-9237218D01*
X15800831Y-9221470D01*
X15806166Y-9195562D01*
X15806166Y-9169654D01*
X15800831Y-9148826D01*
X15790418Y-9138412D01*
X15774924Y-9133331D01*
X15769843Y-9133331D01*
X15754095Y-9138412D01*
X15743681Y-9148826D01*
X15738602Y-9164320D01*
X15738602Y-9169654D01*
X15743681Y-9185147D01*
X15754095Y-9195562D01*
X15769843Y-9200642D01*
X15774924Y-9200642D01*
X15790418Y-9195562D01*
X15800831Y-9185147D01*
X15806166Y-9169654D01*
X15947390Y-10716387D02*
G01*
X15952724Y-10726801D01*
X15963138Y-10737214D01*
X15973297Y-10742295D01*
X15994125Y-10742295D01*
X16004540Y-10737214D01*
X16014954Y-10726801D01*
X16020288Y-10716387D01*
X16025368Y-10700638D01*
X16025368Y-10674730D01*
X16020288Y-10659237D01*
X16014954Y-10648822D01*
X16004540Y-10638409D01*
X15994125Y-10633329D01*
X15973297Y-10633329D01*
X15963138Y-10638409D01*
X15952724Y-10648822D01*
X15947390Y-10659237D01*
X15840456Y-10742295D02*
G01*
X15892272Y-10633329D01*
X15913100Y-10742295D02*
G01*
X15840456Y-10742295D01*
X15733268Y-10742295D02*
G01*
X15785338Y-10633329D01*
X15806166Y-10742295D02*
G01*
X15733268Y-10742295D01*
X17447386Y-1716404D02*
G01*
X17452720Y-1726819D01*
X17463134Y-1737232D01*
X17473295Y-1742312D01*
X17494123Y-1742312D01*
X17504536Y-1737232D01*
X17514950Y-1726819D01*
X17520284Y-1716404D01*
X17525365Y-1700656D01*
X17525365Y-1674748D01*
X17520284Y-1659254D01*
X17514950Y-1648840D01*
X17504536Y-1638427D01*
X17494123Y-1633346D01*
X17473295Y-1633346D01*
X17463134Y-1638427D01*
X17452720Y-1648840D01*
X17447386Y-1659254D01*
X17340452Y-1742312D02*
G01*
X17392268Y-1633346D01*
X17413097Y-1742312D02*
G01*
X17340452Y-1742312D01*
X17280254Y-1742312D02*
G01*
X17295749Y-1737232D01*
X17300829Y-1726819D01*
X17300829Y-1716404D01*
X17295749Y-1705990D01*
X17285334Y-1700656D01*
X17264506Y-1695577D01*
X17249013Y-1690496D01*
X17238599Y-1680082D01*
X17233265Y-1669669D01*
X17233265Y-1653920D01*
X17238599Y-1643506D01*
X17243679Y-1638427D01*
X17259427Y-1633346D01*
X17280254Y-1633346D01*
X17295749Y-1638427D01*
X17300829Y-1643506D01*
X17306163Y-1653920D01*
X17306163Y-1669669D01*
X17300829Y-1680082D01*
X17290415Y-1690496D01*
X17274920Y-1695577D01*
X17254093Y-1700656D01*
X17243679Y-1705990D01*
X17238599Y-1716404D01*
X17238599Y-1726819D01*
X17243679Y-1737232D01*
X17259427Y-1742312D01*
X17280254Y-1742312D01*
X17447386Y-3216402D02*
G01*
X17452720Y-3226815D01*
X17463134Y-3237229D01*
X17473295Y-3242310D01*
X17494123Y-3242310D01*
X17504536Y-3237229D01*
X17514950Y-3226815D01*
X17520284Y-3216402D01*
X17525365Y-3200654D01*
X17525365Y-3174745D01*
X17520284Y-3159252D01*
X17514950Y-3148837D01*
X17504536Y-3138423D01*
X17494123Y-3133344D01*
X17473295Y-3133344D01*
X17463134Y-3138423D01*
X17452720Y-3148837D01*
X17447386Y-3159252D01*
X17340452Y-3242310D02*
G01*
X17392268Y-3133344D01*
X17413097Y-3242310D02*
G01*
X17340452Y-3242310D01*
X17238599Y-3205987D02*
G01*
X17243679Y-3190494D01*
X17254093Y-3180079D01*
X17269841Y-3174745D01*
X17274920Y-3174745D01*
X17290415Y-3180079D01*
X17300829Y-3190494D01*
X17306163Y-3205987D01*
X17306163Y-3211068D01*
X17300829Y-3226815D01*
X17290415Y-3237229D01*
X17274920Y-3242310D01*
X17269841Y-3242310D01*
X17254093Y-3237229D01*
X17243679Y-3226815D01*
X17238599Y-3205987D01*
X17238599Y-3180079D01*
X17243679Y-3153918D01*
X17254093Y-3138423D01*
X17269841Y-3133344D01*
X17280254Y-3133344D01*
X17295749Y-3138423D01*
X17300829Y-3148837D01*
X17447386Y-4716398D02*
G01*
X17452720Y-4726812D01*
X17463134Y-4737227D01*
X17473295Y-4742306D01*
X17494123Y-4742306D01*
X17504536Y-4737227D01*
X17514950Y-4726812D01*
X17520284Y-4716398D01*
X17525365Y-4700651D01*
X17525365Y-4674743D01*
X17520284Y-4659248D01*
X17514950Y-4648835D01*
X17504536Y-4638420D01*
X17494123Y-4633340D01*
X17473295Y-4633340D01*
X17463134Y-4638420D01*
X17452720Y-4648835D01*
X17447386Y-4659248D01*
X17387188Y-4742306D02*
G01*
X17402683Y-4737227D01*
X17408016Y-4726812D01*
X17408016Y-4716398D01*
X17402683Y-4705985D01*
X17392268Y-4700651D01*
X17371695Y-4695570D01*
X17355947Y-4690490D01*
X17345533Y-4680077D01*
X17340452Y-4669662D01*
X17340452Y-4653914D01*
X17345533Y-4643501D01*
X17350866Y-4638420D01*
X17366361Y-4633340D01*
X17387188Y-4633340D01*
X17402683Y-4638420D01*
X17408016Y-4643501D01*
X17413097Y-4653914D01*
X17413097Y-4669662D01*
X17408016Y-4680077D01*
X17397602Y-4690490D01*
X17381854Y-4695570D01*
X17361281Y-4700651D01*
X17350866Y-4705985D01*
X17345533Y-4716398D01*
X17345533Y-4726812D01*
X17350866Y-4737227D01*
X17366361Y-4742306D01*
X17387188Y-4742306D01*
X17274920Y-4742306D02*
G01*
X17290415Y-4737227D01*
X17300829Y-4721479D01*
X17306163Y-4695570D01*
X17306163Y-4680077D01*
X17300829Y-4653914D01*
X17290415Y-4638420D01*
X17274920Y-4633340D01*
X17264506Y-4633340D01*
X17249013Y-4638420D01*
X17238599Y-4653914D01*
X17233265Y-4680077D01*
X17233265Y-4695570D01*
X17238599Y-4721479D01*
X17249013Y-4737227D01*
X17264506Y-4742306D01*
X17274920Y-4742306D01*
X17447386Y-6216395D02*
G01*
X17452720Y-6226810D01*
X17463134Y-6237223D01*
X17473295Y-6242304D01*
X17494123Y-6242304D01*
X17504536Y-6237223D01*
X17514950Y-6226810D01*
X17520284Y-6216395D01*
X17525365Y-6200647D01*
X17525365Y-6174739D01*
X17520284Y-6159245D01*
X17514950Y-6148831D01*
X17504536Y-6138418D01*
X17494123Y-6133337D01*
X17473295Y-6133337D01*
X17463134Y-6138418D01*
X17452720Y-6148831D01*
X17447386Y-6159245D01*
X17387188Y-6242304D02*
G01*
X17402683Y-6237223D01*
X17408016Y-6226810D01*
X17408016Y-6216395D01*
X17402683Y-6205981D01*
X17392268Y-6200647D01*
X17371695Y-6195568D01*
X17355947Y-6190487D01*
X17345533Y-6180073D01*
X17340452Y-6169660D01*
X17340452Y-6153912D01*
X17345533Y-6143497D01*
X17350866Y-6138418D01*
X17366361Y-6133337D01*
X17387188Y-6133337D01*
X17402683Y-6138418D01*
X17408016Y-6143497D01*
X17413097Y-6153912D01*
X17413097Y-6169660D01*
X17408016Y-6180073D01*
X17397602Y-6190487D01*
X17381854Y-6195568D01*
X17361281Y-6200647D01*
X17350866Y-6205981D01*
X17345533Y-6216395D01*
X17345533Y-6226810D01*
X17350866Y-6237223D01*
X17366361Y-6242304D01*
X17387188Y-6242304D01*
X17306163Y-6221476D02*
G01*
X17295749Y-6226810D01*
X17280254Y-6242304D01*
X17280254Y-6133337D01*
X17447386Y-7716393D02*
G01*
X17452720Y-7726806D01*
X17463134Y-7737220D01*
X17473295Y-7742301D01*
X17494123Y-7742301D01*
X17504536Y-7737220D01*
X17514950Y-7726806D01*
X17520284Y-7716393D01*
X17525365Y-7700645D01*
X17525365Y-7674737D01*
X17520284Y-7659243D01*
X17514950Y-7648829D01*
X17504536Y-7638414D01*
X17494123Y-7633335D01*
X17473295Y-7633335D01*
X17463134Y-7638414D01*
X17452720Y-7648829D01*
X17447386Y-7659243D01*
X17387188Y-7742301D02*
G01*
X17402683Y-7737220D01*
X17408016Y-7726806D01*
X17408016Y-7716393D01*
X17402683Y-7705979D01*
X17392268Y-7700645D01*
X17371695Y-7695564D01*
X17355947Y-7690485D01*
X17345533Y-7680070D01*
X17340452Y-7669656D01*
X17340452Y-7653909D01*
X17345533Y-7643495D01*
X17350866Y-7638414D01*
X17366361Y-7633335D01*
X17387188Y-7633335D01*
X17402683Y-7638414D01*
X17408016Y-7643495D01*
X17413097Y-7653909D01*
X17413097Y-7669656D01*
X17408016Y-7680070D01*
X17397602Y-7690485D01*
X17381854Y-7695564D01*
X17361281Y-7700645D01*
X17350866Y-7705979D01*
X17345533Y-7716393D01*
X17345533Y-7726806D01*
X17350866Y-7737220D01*
X17366361Y-7742301D01*
X17387188Y-7742301D01*
X17300829Y-7716393D02*
G01*
X17300829Y-7721472D01*
X17295749Y-7731887D01*
X17290415Y-7737220D01*
X17280254Y-7742301D01*
X17259427Y-7742301D01*
X17249013Y-7737220D01*
X17243679Y-7731887D01*
X17238599Y-7721472D01*
X17238599Y-7711059D01*
X17243679Y-7700645D01*
X17254093Y-7685151D01*
X17306163Y-7633335D01*
X17233265Y-7633335D01*
X17447386Y-9216389D02*
G01*
X17452720Y-9226804D01*
X17463134Y-9237218D01*
X17473295Y-9242297D01*
X17494123Y-9242297D01*
X17504536Y-9237218D01*
X17514950Y-9226804D01*
X17520284Y-9216389D01*
X17525365Y-9200642D01*
X17525365Y-9174734D01*
X17520284Y-9159239D01*
X17514950Y-9148826D01*
X17504536Y-9138412D01*
X17494123Y-9133331D01*
X17473295Y-9133331D01*
X17463134Y-9138412D01*
X17452720Y-9148826D01*
X17447386Y-9159239D01*
X17387188Y-9242297D02*
G01*
X17402683Y-9237218D01*
X17408016Y-9226804D01*
X17408016Y-9216389D01*
X17402683Y-9205976D01*
X17392268Y-9200642D01*
X17371695Y-9195562D01*
X17355947Y-9190481D01*
X17345533Y-9180068D01*
X17340452Y-9169654D01*
X17340452Y-9153905D01*
X17345533Y-9143492D01*
X17350866Y-9138412D01*
X17366361Y-9133331D01*
X17387188Y-9133331D01*
X17402683Y-9138412D01*
X17408016Y-9143492D01*
X17413097Y-9153905D01*
X17413097Y-9169654D01*
X17408016Y-9180068D01*
X17397602Y-9190481D01*
X17381854Y-9195562D01*
X17361281Y-9200642D01*
X17350866Y-9205976D01*
X17345533Y-9216389D01*
X17345533Y-9226804D01*
X17350866Y-9237218D01*
X17366361Y-9242297D01*
X17387188Y-9242297D01*
X17295749Y-9242297D02*
G01*
X17238599Y-9242297D01*
X17269841Y-9200642D01*
X17254093Y-9200642D01*
X17243679Y-9195562D01*
X17238599Y-9190481D01*
X17233265Y-9174734D01*
X17233265Y-9164320D01*
X17238599Y-9148826D01*
X17249013Y-9138412D01*
X17264506Y-9133331D01*
X17280254Y-9133331D01*
X17295749Y-9138412D01*
X17300829Y-9143492D01*
X17306163Y-9153905D01*
X17447386Y-10716387D02*
G01*
X17452720Y-10726801D01*
X17463134Y-10737214D01*
X17473295Y-10742295D01*
X17494123Y-10742295D01*
X17504536Y-10737214D01*
X17514950Y-10726801D01*
X17520284Y-10716387D01*
X17525365Y-10700638D01*
X17525365Y-10674730D01*
X17520284Y-10659237D01*
X17514950Y-10648822D01*
X17504536Y-10638409D01*
X17494123Y-10633329D01*
X17473295Y-10633329D01*
X17463134Y-10638409D01*
X17452720Y-10648822D01*
X17447386Y-10659237D01*
X17387188Y-10742295D02*
G01*
X17402683Y-10737214D01*
X17408016Y-10726801D01*
X17408016Y-10716387D01*
X17402683Y-10705972D01*
X17392268Y-10700638D01*
X17371695Y-10695559D01*
X17355947Y-10690479D01*
X17345533Y-10680064D01*
X17340452Y-10669651D01*
X17340452Y-10653903D01*
X17345533Y-10643488D01*
X17350866Y-10638409D01*
X17366361Y-10633329D01*
X17387188Y-10633329D01*
X17402683Y-10638409D01*
X17408016Y-10643488D01*
X17413097Y-10653903D01*
X17413097Y-10669651D01*
X17408016Y-10680064D01*
X17397602Y-10690479D01*
X17381854Y-10695559D01*
X17361281Y-10700638D01*
X17350866Y-10705972D01*
X17345533Y-10716387D01*
X17345533Y-10726801D01*
X17350866Y-10737214D01*
X17366361Y-10742295D01*
X17387188Y-10742295D01*
X17254093Y-10742295D02*
G01*
X17306163Y-10669651D01*
X17228184Y-10669651D01*
X17254093Y-10742295D02*
G01*
X17254093Y-10633329D01*
X6975990Y-603869D02*
G01*
X6975990Y-712835D01*
X6975990Y-712835D02*
G01*
X7038220Y-712835D01*
X7077844Y-629777D02*
G01*
X7077844Y-624697D01*
X7082924Y-614283D01*
X7088258Y-608949D01*
X7098672Y-603869D01*
X7119500Y-603869D01*
X7129660Y-608949D01*
X7134994Y-614283D01*
X7140074Y-624697D01*
X7140074Y-635111D01*
X7134994Y-645525D01*
X7124580Y-661019D01*
X7072510Y-712835D01*
X7145408Y-712835D01*
X7247262Y-640191D02*
G01*
X7241928Y-655685D01*
X7231514Y-666099D01*
X7216020Y-671433D01*
X7210940Y-671433D01*
X7195192Y-666099D01*
X7184778Y-655685D01*
X7179698Y-640191D01*
X7179698Y-635111D01*
X7184778Y-619363D01*
X7195192Y-608949D01*
X7210940Y-603869D01*
X7216020Y-603869D01*
X7231514Y-608949D01*
X7241928Y-619363D01*
X7247262Y-640191D01*
X7247262Y-666099D01*
X7241928Y-692261D01*
X7231514Y-707755D01*
X7216020Y-712835D01*
X7205606Y-712835D01*
X7190112Y-707755D01*
X7184778Y-697341D01*
X6975990Y-2103866D02*
G01*
X6975990Y-2212832D01*
X6975990Y-2212832D02*
G01*
X7038220Y-2212832D01*
X7082924Y-2103866D02*
G01*
X7140074Y-2103866D01*
X7109086Y-2145522D01*
X7124580Y-2145522D01*
X7134994Y-2150602D01*
X7140074Y-2155682D01*
X7145408Y-2171430D01*
X7145408Y-2181844D01*
X7140074Y-2197338D01*
X7129660Y-2207752D01*
X7114166Y-2212832D01*
X7098672Y-2212832D01*
X7082924Y-2207752D01*
X7077844Y-2202672D01*
X7072510Y-2192258D01*
X7210940Y-2103866D02*
G01*
X7195192Y-2108946D01*
X7184778Y-2124694D01*
X7179698Y-2150602D01*
X7179698Y-2166096D01*
X7184778Y-2192258D01*
X7195192Y-2207752D01*
X7210940Y-2212832D01*
X7221100Y-2212832D01*
X7236848Y-2207752D01*
X7247262Y-2192258D01*
X7252342Y-2166096D01*
X7252342Y-2150602D01*
X7247262Y-2124694D01*
X7236848Y-2108946D01*
X7221100Y-2103866D01*
X7210940Y-2103866D01*
X6975990Y-3603863D02*
G01*
X6975990Y-3712829D01*
X6975990Y-3712829D02*
G01*
X7038220Y-3712829D01*
X7082924Y-3603863D02*
G01*
X7140074Y-3603863D01*
X7109086Y-3645519D01*
X7124580Y-3645519D01*
X7134994Y-3650599D01*
X7140074Y-3655679D01*
X7145408Y-3671427D01*
X7145408Y-3681841D01*
X7140074Y-3697335D01*
X7129660Y-3707749D01*
X7114166Y-3712829D01*
X7098672Y-3712829D01*
X7082924Y-3707749D01*
X7077844Y-3702669D01*
X7072510Y-3692255D01*
X7179698Y-3624691D02*
G01*
X7190112Y-3619357D01*
X7205606Y-3603863D01*
X7205606Y-3712829D01*
X6975990Y-5103860D02*
G01*
X6975990Y-5212826D01*
X6975990Y-5212826D02*
G01*
X7038220Y-5212826D01*
X7082924Y-5103860D02*
G01*
X7140074Y-5103860D01*
X7109086Y-5145516D01*
X7124580Y-5145516D01*
X7134994Y-5150596D01*
X7140074Y-5155676D01*
X7145408Y-5171424D01*
X7145408Y-5181838D01*
X7140074Y-5197332D01*
X7129660Y-5207746D01*
X7114166Y-5212826D01*
X7098672Y-5212826D01*
X7082924Y-5207746D01*
X7077844Y-5202666D01*
X7072510Y-5192252D01*
X7184778Y-5129768D02*
G01*
X7184778Y-5124688D01*
X7190112Y-5114274D01*
X7195192Y-5108940D01*
X7205606Y-5103860D01*
X7226434Y-5103860D01*
X7236848Y-5108940D01*
X7241928Y-5114274D01*
X7247262Y-5124688D01*
X7247262Y-5135102D01*
X7241928Y-5145516D01*
X7231514Y-5161010D01*
X7179698Y-5212826D01*
X7252342Y-5212826D01*
X6975990Y-6603857D02*
G01*
X6975990Y-6712823D01*
X6975990Y-6712823D02*
G01*
X7038220Y-6712823D01*
X7082924Y-6603857D02*
G01*
X7140074Y-6603857D01*
X7109086Y-6645513D01*
X7124580Y-6645513D01*
X7134994Y-6650593D01*
X7140074Y-6655673D01*
X7145408Y-6671421D01*
X7145408Y-6681835D01*
X7140074Y-6697329D01*
X7129660Y-6707743D01*
X7114166Y-6712823D01*
X7098672Y-6712823D01*
X7082924Y-6707743D01*
X7077844Y-6702663D01*
X7072510Y-6692249D01*
X7190112Y-6603857D02*
G01*
X7247262Y-6603857D01*
X7216020Y-6645513D01*
X7231514Y-6645513D01*
X7241928Y-6650593D01*
X7247262Y-6655673D01*
X7252342Y-6671421D01*
X7252342Y-6681835D01*
X7247262Y-6697329D01*
X7236848Y-6707743D01*
X7221100Y-6712823D01*
X7205606Y-6712823D01*
X7190112Y-6707743D01*
X7184778Y-6702663D01*
X7179698Y-6692249D01*
X6975990Y-8103854D02*
G01*
X6975990Y-8212820D01*
X6975990Y-8212820D02*
G01*
X7038220Y-8212820D01*
X7082924Y-8103854D02*
G01*
X7140074Y-8103854D01*
X7109086Y-8145510D01*
X7124580Y-8145510D01*
X7134994Y-8150590D01*
X7140074Y-8155670D01*
X7145408Y-8171418D01*
X7145408Y-8181832D01*
X7140074Y-8197326D01*
X7129660Y-8207740D01*
X7114166Y-8212820D01*
X7098672Y-8212820D01*
X7082924Y-8207740D01*
X7077844Y-8202660D01*
X7072510Y-8192246D01*
X7231514Y-8103854D02*
G01*
X7179698Y-8176498D01*
X7257676Y-8176498D01*
X7231514Y-8103854D02*
G01*
X7231514Y-8212820D01*
X6975990Y-9603851D02*
G01*
X6975990Y-9712817D01*
X6975990Y-9712817D02*
G01*
X7038220Y-9712817D01*
X7082924Y-9603851D02*
G01*
X7140074Y-9603851D01*
X7109086Y-9645507D01*
X7124580Y-9645507D01*
X7134994Y-9650587D01*
X7140074Y-9655667D01*
X7145408Y-9671415D01*
X7145408Y-9681829D01*
X7140074Y-9697323D01*
X7129660Y-9707737D01*
X7114166Y-9712817D01*
X7098672Y-9712817D01*
X7082924Y-9707737D01*
X7077844Y-9702657D01*
X7072510Y-9692243D01*
X7241928Y-9603851D02*
G01*
X7190112Y-9603851D01*
X7184778Y-9650587D01*
X7190112Y-9645507D01*
X7205606Y-9640173D01*
X7221100Y-9640173D01*
X7236848Y-9645507D01*
X7247262Y-9655667D01*
X7252342Y-9671415D01*
X7252342Y-9681829D01*
X7247262Y-9697323D01*
X7236848Y-9707737D01*
X7221100Y-9712817D01*
X7205606Y-9712817D01*
X7190112Y-9707737D01*
X7184778Y-9702657D01*
X7179698Y-9692243D01*
X8475987Y-603869D02*
G01*
X8475987Y-712835D01*
X8475987Y-712835D02*
G01*
X8538217Y-712835D01*
X8582921Y-603869D02*
G01*
X8640071Y-603869D01*
X8609083Y-645525D01*
X8624577Y-645525D01*
X8634991Y-650605D01*
X8640071Y-655685D01*
X8645405Y-671433D01*
X8645405Y-681847D01*
X8640071Y-697341D01*
X8629657Y-707755D01*
X8614163Y-712835D01*
X8598669Y-712835D01*
X8582921Y-707755D01*
X8577841Y-702675D01*
X8572507Y-692261D01*
X8741925Y-619363D02*
G01*
X8736845Y-608949D01*
X8721097Y-603869D01*
X8710937Y-603869D01*
X8695189Y-608949D01*
X8684775Y-624697D01*
X8679695Y-650605D01*
X8679695Y-676513D01*
X8684775Y-697341D01*
X8695189Y-707755D01*
X8710937Y-712835D01*
X8716017Y-712835D01*
X8731511Y-707755D01*
X8741925Y-697341D01*
X8747259Y-681847D01*
X8747259Y-676513D01*
X8741925Y-661019D01*
X8731511Y-650605D01*
X8716017Y-645525D01*
X8710937Y-645525D01*
X8695189Y-650605D01*
X8684775Y-661019D01*
X8679695Y-676513D01*
X8475987Y-2103866D02*
G01*
X8475987Y-2212832D01*
X8475987Y-2212832D02*
G01*
X8538217Y-2212832D01*
X8582921Y-2103866D02*
G01*
X8640071Y-2103866D01*
X8609083Y-2145522D01*
X8624577Y-2145522D01*
X8634991Y-2150602D01*
X8640071Y-2155682D01*
X8645405Y-2171430D01*
X8645405Y-2181844D01*
X8640071Y-2197338D01*
X8629657Y-2207752D01*
X8614163Y-2212832D01*
X8598669Y-2212832D01*
X8582921Y-2207752D01*
X8577841Y-2202672D01*
X8572507Y-2192258D01*
X8752339Y-2103866D02*
G01*
X8700523Y-2212832D01*
X8679695Y-2103866D02*
G01*
X8752339Y-2103866D01*
X8475987Y-3603863D02*
G01*
X8475987Y-3712829D01*
X8475987Y-3712829D02*
G01*
X8538217Y-3712829D01*
X8582921Y-3603863D02*
G01*
X8640071Y-3603863D01*
X8609083Y-3645519D01*
X8624577Y-3645519D01*
X8634991Y-3650599D01*
X8640071Y-3655679D01*
X8645405Y-3671427D01*
X8645405Y-3681841D01*
X8640071Y-3697335D01*
X8629657Y-3707749D01*
X8614163Y-3712829D01*
X8598669Y-3712829D01*
X8582921Y-3707749D01*
X8577841Y-3702669D01*
X8572507Y-3692255D01*
X8705603Y-3603863D02*
G01*
X8690109Y-3608943D01*
X8684775Y-3619357D01*
X8684775Y-3629771D01*
X8690109Y-3640185D01*
X8700523Y-3645519D01*
X8721097Y-3650599D01*
X8736845Y-3655679D01*
X8747259Y-3666093D01*
X8752339Y-3676507D01*
X8752339Y-3692255D01*
X8747259Y-3702669D01*
X8741925Y-3707749D01*
X8726431Y-3712829D01*
X8705603Y-3712829D01*
X8690109Y-3707749D01*
X8684775Y-3702669D01*
X8679695Y-3692255D01*
X8679695Y-3676507D01*
X8684775Y-3666093D01*
X8695189Y-3655679D01*
X8710937Y-3650599D01*
X8731511Y-3645519D01*
X8741925Y-3640185D01*
X8747259Y-3629771D01*
X8747259Y-3619357D01*
X8741925Y-3608943D01*
X8726431Y-3603863D01*
X8705603Y-3603863D01*
X8475987Y-5103860D02*
G01*
X8475987Y-5212826D01*
X8475987Y-5212826D02*
G01*
X8538217Y-5212826D01*
X8582921Y-5103860D02*
G01*
X8640071Y-5103860D01*
X8609083Y-5145516D01*
X8624577Y-5145516D01*
X8634991Y-5150596D01*
X8640071Y-5155676D01*
X8645405Y-5171424D01*
X8645405Y-5181838D01*
X8640071Y-5197332D01*
X8629657Y-5207746D01*
X8614163Y-5212826D01*
X8598669Y-5212826D01*
X8582921Y-5207746D01*
X8577841Y-5202666D01*
X8572507Y-5192252D01*
X8747259Y-5140182D02*
G01*
X8741925Y-5155676D01*
X8731511Y-5166090D01*
X8716017Y-5171424D01*
X8710937Y-5171424D01*
X8695189Y-5166090D01*
X8684775Y-5155676D01*
X8679695Y-5140182D01*
X8679695Y-5135102D01*
X8684775Y-5119354D01*
X8695189Y-5108940D01*
X8710937Y-5103860D01*
X8716017Y-5103860D01*
X8731511Y-5108940D01*
X8741925Y-5119354D01*
X8747259Y-5140182D01*
X8747259Y-5166090D01*
X8741925Y-5192252D01*
X8731511Y-5207746D01*
X8716017Y-5212826D01*
X8705603Y-5212826D01*
X8690109Y-5207746D01*
X8684775Y-5197332D01*
X8475987Y-6603857D02*
G01*
X8475987Y-6712823D01*
X8475987Y-6712823D02*
G01*
X8538217Y-6712823D01*
X8624577Y-6603857D02*
G01*
X8572507Y-6676501D01*
X8650485Y-6676501D01*
X8624577Y-6603857D02*
G01*
X8624577Y-6712823D01*
X8716017Y-6603857D02*
G01*
X8700523Y-6608937D01*
X8690109Y-6624685D01*
X8684775Y-6650593D01*
X8684775Y-6666087D01*
X8690109Y-6692249D01*
X8700523Y-6707743D01*
X8716017Y-6712823D01*
X8726431Y-6712823D01*
X8741925Y-6707743D01*
X8752339Y-6692249D01*
X8757673Y-6666087D01*
X8757673Y-6650593D01*
X8752339Y-6624685D01*
X8741925Y-6608937D01*
X8726431Y-6603857D01*
X8716017Y-6603857D01*
X8475987Y-8103854D02*
G01*
X8475987Y-8212820D01*
X8475987Y-8212820D02*
G01*
X8538217Y-8212820D01*
X8624577Y-8103854D02*
G01*
X8572507Y-8176498D01*
X8650485Y-8176498D01*
X8624577Y-8103854D02*
G01*
X8624577Y-8212820D01*
X8684775Y-8124682D02*
G01*
X8695189Y-8119348D01*
X8710937Y-8103854D01*
X8710937Y-8212820D01*
X8475987Y-9603851D02*
G01*
X8475987Y-9712817D01*
X8475987Y-9712817D02*
G01*
X8538217Y-9712817D01*
X8624577Y-9603851D02*
G01*
X8572507Y-9676495D01*
X8650485Y-9676495D01*
X8624577Y-9603851D02*
G01*
X8624577Y-9712817D01*
X8690109Y-9629759D02*
G01*
X8690109Y-9624679D01*
X8695189Y-9614265D01*
X8700523Y-9608931D01*
X8710937Y-9603851D01*
X8731511Y-9603851D01*
X8741925Y-9608931D01*
X8747259Y-9614265D01*
X8752339Y-9624679D01*
X8752339Y-9635093D01*
X8747259Y-9645507D01*
X8736845Y-9661001D01*
X8684775Y-9712817D01*
X8757673Y-9712817D01*
X9975984Y-603869D02*
G01*
X9975984Y-712835D01*
X9975984Y-712835D02*
G01*
X10038214Y-712835D01*
X10124574Y-603869D02*
G01*
X10072504Y-676513D01*
X10150482Y-676513D01*
X10124574Y-603869D02*
G01*
X10124574Y-712835D01*
X10195186Y-603869D02*
G01*
X10252336Y-603869D01*
X10221094Y-645525D01*
X10236842Y-645525D01*
X10247256Y-650605D01*
X10252336Y-655685D01*
X10257670Y-671433D01*
X10257670Y-681847D01*
X10252336Y-697341D01*
X10241922Y-707755D01*
X10226428Y-712835D01*
X10210934Y-712835D01*
X10195186Y-707755D01*
X10190106Y-702675D01*
X10184772Y-692261D01*
X9975984Y-2103866D02*
G01*
X9975984Y-2212832D01*
X9975984Y-2212832D02*
G01*
X10038214Y-2212832D01*
X10124574Y-2103866D02*
G01*
X10072504Y-2176510D01*
X10150482Y-2176510D01*
X10124574Y-2103866D02*
G01*
X10124574Y-2212832D01*
X10236842Y-2103866D02*
G01*
X10184772Y-2176510D01*
X10262750Y-2176510D01*
X10236842Y-2103866D02*
G01*
X10236842Y-2212832D01*
X9975984Y-3603863D02*
G01*
X9975984Y-3712829D01*
X9975984Y-3712829D02*
G01*
X10038214Y-3712829D01*
X10124574Y-3603863D02*
G01*
X10072504Y-3676507D01*
X10150482Y-3676507D01*
X10124574Y-3603863D02*
G01*
X10124574Y-3712829D01*
X10247256Y-3603863D02*
G01*
X10195186Y-3603863D01*
X10190106Y-3650599D01*
X10195186Y-3645519D01*
X10210934Y-3640185D01*
X10226428Y-3640185D01*
X10241922Y-3645519D01*
X10252336Y-3655679D01*
X10257670Y-3671427D01*
X10257670Y-3681841D01*
X10252336Y-3697335D01*
X10241922Y-3707749D01*
X10226428Y-3712829D01*
X10210934Y-3712829D01*
X10195186Y-3707749D01*
X10190106Y-3702669D01*
X10184772Y-3692255D01*
X9975984Y-5103860D02*
G01*
X9975984Y-5212826D01*
X9975984Y-5212826D02*
G01*
X10038214Y-5212826D01*
X10124574Y-5103860D02*
G01*
X10072504Y-5176504D01*
X10150482Y-5176504D01*
X10124574Y-5103860D02*
G01*
X10124574Y-5212826D01*
X10247256Y-5119354D02*
G01*
X10241922Y-5108940D01*
X10226428Y-5103860D01*
X10216014Y-5103860D01*
X10200520Y-5108940D01*
X10190106Y-5124688D01*
X10184772Y-5150596D01*
X10184772Y-5176504D01*
X10190106Y-5197332D01*
X10200520Y-5207746D01*
X10216014Y-5212826D01*
X10221094Y-5212826D01*
X10236842Y-5207746D01*
X10247256Y-5197332D01*
X10252336Y-5181838D01*
X10252336Y-5176504D01*
X10247256Y-5161010D01*
X10236842Y-5150596D01*
X10221094Y-5145516D01*
X10216014Y-5145516D01*
X10200520Y-5150596D01*
X10190106Y-5161010D01*
X10184772Y-5176504D01*
X9975984Y-6603857D02*
G01*
X9975984Y-6712823D01*
X9975984Y-6712823D02*
G01*
X10038214Y-6712823D01*
X10124574Y-6603857D02*
G01*
X10072504Y-6676501D01*
X10150482Y-6676501D01*
X10124574Y-6603857D02*
G01*
X10124574Y-6712823D01*
X10257670Y-6603857D02*
G01*
X10205600Y-6712823D01*
X10184772Y-6603857D02*
G01*
X10257670Y-6603857D01*
X9975984Y-8103854D02*
G01*
X9975984Y-8212820D01*
X9975984Y-8212820D02*
G01*
X10038214Y-8212820D01*
X10124574Y-8103854D02*
G01*
X10072504Y-8176498D01*
X10150482Y-8176498D01*
X10124574Y-8103854D02*
G01*
X10124574Y-8212820D01*
X10210934Y-8103854D02*
G01*
X10195186Y-8108934D01*
X10190106Y-8119348D01*
X10190106Y-8129762D01*
X10195186Y-8140176D01*
X10205600Y-8145510D01*
X10226428Y-8150590D01*
X10241922Y-8155670D01*
X10252336Y-8166084D01*
X10257670Y-8176498D01*
X10257670Y-8192246D01*
X10252336Y-8202660D01*
X10247256Y-8207740D01*
X10231508Y-8212820D01*
X10210934Y-8212820D01*
X10195186Y-8207740D01*
X10190106Y-8202660D01*
X10184772Y-8192246D01*
X10184772Y-8176498D01*
X10190106Y-8166084D01*
X10200520Y-8155670D01*
X10216014Y-8150590D01*
X10236842Y-8145510D01*
X10247256Y-8140176D01*
X10252336Y-8129762D01*
X10252336Y-8119348D01*
X10247256Y-8108934D01*
X10231508Y-8103854D01*
X10210934Y-8103854D01*
X9975984Y-9603851D02*
G01*
X9975984Y-9712817D01*
X9975984Y-9712817D02*
G01*
X10038214Y-9712817D01*
X10124574Y-9603851D02*
G01*
X10072504Y-9676495D01*
X10150482Y-9676495D01*
X10124574Y-9603851D02*
G01*
X10124574Y-9712817D01*
X10252336Y-9640173D02*
G01*
X10247256Y-9655667D01*
X10236842Y-9666081D01*
X10221094Y-9671415D01*
X10216014Y-9671415D01*
X10200520Y-9666081D01*
X10190106Y-9655667D01*
X10184772Y-9640173D01*
X10184772Y-9635093D01*
X10190106Y-9619345D01*
X10200520Y-9608931D01*
X10216014Y-9603851D01*
X10221094Y-9603851D01*
X10236842Y-9608931D01*
X10247256Y-9619345D01*
X10252336Y-9640173D01*
X10252336Y-9666081D01*
X10247256Y-9692243D01*
X10236842Y-9707737D01*
X10221094Y-9712817D01*
X10210934Y-9712817D01*
X10195186Y-9707737D01*
X10190106Y-9697323D01*
X11475981Y-603869D02*
G01*
X11475981Y-712835D01*
X11475981Y-712835D02*
G01*
X11538211Y-712835D01*
X11634985Y-603869D02*
G01*
X11582915Y-603869D01*
X11577835Y-650605D01*
X11582915Y-645525D01*
X11598663Y-640191D01*
X11614157Y-640191D01*
X11629651Y-645525D01*
X11640065Y-655685D01*
X11645399Y-671433D01*
X11645399Y-681847D01*
X11640065Y-697341D01*
X11629651Y-707755D01*
X11614157Y-712835D01*
X11598663Y-712835D01*
X11582915Y-707755D01*
X11577835Y-702675D01*
X11572501Y-692261D01*
X11710931Y-603869D02*
G01*
X11695183Y-608949D01*
X11684769Y-624697D01*
X11679689Y-650605D01*
X11679689Y-666099D01*
X11684769Y-692261D01*
X11695183Y-707755D01*
X11710931Y-712835D01*
X11721091Y-712835D01*
X11736839Y-707755D01*
X11747253Y-692261D01*
X11752333Y-666099D01*
X11752333Y-650605D01*
X11747253Y-624697D01*
X11736839Y-608949D01*
X11721091Y-603869D01*
X11710931Y-603869D01*
X11475981Y-2103866D02*
G01*
X11475981Y-2212832D01*
X11475981Y-2212832D02*
G01*
X11538211Y-2212832D01*
X11634985Y-2103866D02*
G01*
X11582915Y-2103866D01*
X11577835Y-2150602D01*
X11582915Y-2145522D01*
X11598663Y-2140188D01*
X11614157Y-2140188D01*
X11629651Y-2145522D01*
X11640065Y-2155682D01*
X11645399Y-2171430D01*
X11645399Y-2181844D01*
X11640065Y-2197338D01*
X11629651Y-2207752D01*
X11614157Y-2212832D01*
X11598663Y-2212832D01*
X11582915Y-2207752D01*
X11577835Y-2202672D01*
X11572501Y-2192258D01*
X11679689Y-2124694D02*
G01*
X11690103Y-2119360D01*
X11705597Y-2103866D01*
X11705597Y-2212832D01*
X11475981Y-3603863D02*
G01*
X11475981Y-3712829D01*
X11475981Y-3712829D02*
G01*
X11538211Y-3712829D01*
X11634985Y-3603863D02*
G01*
X11582915Y-3603863D01*
X11577835Y-3650599D01*
X11582915Y-3645519D01*
X11598663Y-3640185D01*
X11614157Y-3640185D01*
X11629651Y-3645519D01*
X11640065Y-3655679D01*
X11645399Y-3671427D01*
X11645399Y-3681841D01*
X11640065Y-3697335D01*
X11629651Y-3707749D01*
X11614157Y-3712829D01*
X11598663Y-3712829D01*
X11582915Y-3707749D01*
X11577835Y-3702669D01*
X11572501Y-3692255D01*
X11684769Y-3629771D02*
G01*
X11684769Y-3624691D01*
X11690103Y-3614277D01*
X11695183Y-3608943D01*
X11705597Y-3603863D01*
X11726425Y-3603863D01*
X11736839Y-3608943D01*
X11741919Y-3614277D01*
X11747253Y-3624691D01*
X11747253Y-3635105D01*
X11741919Y-3645519D01*
X11731505Y-3661013D01*
X11679689Y-3712829D01*
X11752333Y-3712829D01*
X11475981Y-5103860D02*
G01*
X11475981Y-5212826D01*
X11475981Y-5212826D02*
G01*
X11538211Y-5212826D01*
X11634985Y-5103860D02*
G01*
X11582915Y-5103860D01*
X11577835Y-5150596D01*
X11582915Y-5145516D01*
X11598663Y-5140182D01*
X11614157Y-5140182D01*
X11629651Y-5145516D01*
X11640065Y-5155676D01*
X11645399Y-5171424D01*
X11645399Y-5181838D01*
X11640065Y-5197332D01*
X11629651Y-5207746D01*
X11614157Y-5212826D01*
X11598663Y-5212826D01*
X11582915Y-5207746D01*
X11577835Y-5202666D01*
X11572501Y-5192252D01*
X11690103Y-5103860D02*
G01*
X11747253Y-5103860D01*
X11716011Y-5145516D01*
X11731505Y-5145516D01*
X11741919Y-5150596D01*
X11747253Y-5155676D01*
X11752333Y-5171424D01*
X11752333Y-5181838D01*
X11747253Y-5197332D01*
X11736839Y-5207746D01*
X11721091Y-5212826D01*
X11705597Y-5212826D01*
X11690103Y-5207746D01*
X11684769Y-5202666D01*
X11679689Y-5192252D01*
X11475981Y-6603857D02*
G01*
X11475981Y-6712823D01*
X11475981Y-6712823D02*
G01*
X11538211Y-6712823D01*
X11634985Y-6603857D02*
G01*
X11582915Y-6603857D01*
X11577835Y-6650593D01*
X11582915Y-6645513D01*
X11598663Y-6640179D01*
X11614157Y-6640179D01*
X11629651Y-6645513D01*
X11640065Y-6655673D01*
X11645399Y-6671421D01*
X11645399Y-6681835D01*
X11640065Y-6697329D01*
X11629651Y-6707743D01*
X11614157Y-6712823D01*
X11598663Y-6712823D01*
X11582915Y-6707743D01*
X11577835Y-6702663D01*
X11572501Y-6692249D01*
X11731505Y-6603857D02*
G01*
X11679689Y-6676501D01*
X11757667Y-6676501D01*
X11731505Y-6603857D02*
G01*
X11731505Y-6712823D01*
X11475981Y-8103854D02*
G01*
X11475981Y-8212820D01*
X11475981Y-8212820D02*
G01*
X11538211Y-8212820D01*
X11634985Y-8103854D02*
G01*
X11582915Y-8103854D01*
X11577835Y-8150590D01*
X11582915Y-8145510D01*
X11598663Y-8140176D01*
X11614157Y-8140176D01*
X11629651Y-8145510D01*
X11640065Y-8155670D01*
X11645399Y-8171418D01*
X11645399Y-8181832D01*
X11640065Y-8197326D01*
X11629651Y-8207740D01*
X11614157Y-8212820D01*
X11598663Y-8212820D01*
X11582915Y-8207740D01*
X11577835Y-8202660D01*
X11572501Y-8192246D01*
X11741919Y-8103854D02*
G01*
X11690103Y-8103854D01*
X11684769Y-8150590D01*
X11690103Y-8145510D01*
X11705597Y-8140176D01*
X11721091Y-8140176D01*
X11736839Y-8145510D01*
X11747253Y-8155670D01*
X11752333Y-8171418D01*
X11752333Y-8181832D01*
X11747253Y-8197326D01*
X11736839Y-8207740D01*
X11721091Y-8212820D01*
X11705597Y-8212820D01*
X11690103Y-8207740D01*
X11684769Y-8202660D01*
X11679689Y-8192246D01*
X11475981Y-9603851D02*
G01*
X11475981Y-9712817D01*
X11475981Y-9712817D02*
G01*
X11538211Y-9712817D01*
X11634985Y-9603851D02*
G01*
X11582915Y-9603851D01*
X11577835Y-9650587D01*
X11582915Y-9645507D01*
X11598663Y-9640173D01*
X11614157Y-9640173D01*
X11629651Y-9645507D01*
X11640065Y-9655667D01*
X11645399Y-9671415D01*
X11645399Y-9681829D01*
X11640065Y-9697323D01*
X11629651Y-9707737D01*
X11614157Y-9712817D01*
X11598663Y-9712817D01*
X11582915Y-9707737D01*
X11577835Y-9702657D01*
X11572501Y-9692243D01*
X11741919Y-9619345D02*
G01*
X11736839Y-9608931D01*
X11721091Y-9603851D01*
X11710931Y-9603851D01*
X11695183Y-9608931D01*
X11684769Y-9624679D01*
X11679689Y-9650587D01*
X11679689Y-9676495D01*
X11684769Y-9697323D01*
X11695183Y-9707737D01*
X11710931Y-9712817D01*
X11716011Y-9712817D01*
X11731505Y-9707737D01*
X11741919Y-9697323D01*
X11747253Y-9681829D01*
X11747253Y-9676495D01*
X11741919Y-9661001D01*
X11731505Y-9650587D01*
X11716011Y-9645507D01*
X11710931Y-9645507D01*
X11695183Y-9650587D01*
X11684769Y-9661001D01*
X11679689Y-9676495D01*
X12975978Y-603869D02*
G01*
X12975978Y-712835D01*
X12975978Y-712835D02*
G01*
X13038208Y-712835D01*
X13134982Y-603869D02*
G01*
X13082912Y-603869D01*
X13077832Y-650605D01*
X13082912Y-645525D01*
X13098660Y-640191D01*
X13114154Y-640191D01*
X13129648Y-645525D01*
X13140062Y-655685D01*
X13145396Y-671433D01*
X13145396Y-681847D01*
X13140062Y-697341D01*
X13129648Y-707755D01*
X13114154Y-712835D01*
X13098660Y-712835D01*
X13082912Y-707755D01*
X13077832Y-702675D01*
X13072498Y-692261D01*
X13252330Y-603869D02*
G01*
X13200514Y-712835D01*
X13179686Y-603869D02*
G01*
X13252330Y-603869D01*
X12975978Y-2103866D02*
G01*
X12975978Y-2212832D01*
X12975978Y-2212832D02*
G01*
X13038208Y-2212832D01*
X13134982Y-2103866D02*
G01*
X13082912Y-2103866D01*
X13077832Y-2150602D01*
X13082912Y-2145522D01*
X13098660Y-2140188D01*
X13114154Y-2140188D01*
X13129648Y-2145522D01*
X13140062Y-2155682D01*
X13145396Y-2171430D01*
X13145396Y-2181844D01*
X13140062Y-2197338D01*
X13129648Y-2207752D01*
X13114154Y-2212832D01*
X13098660Y-2212832D01*
X13082912Y-2207752D01*
X13077832Y-2202672D01*
X13072498Y-2192258D01*
X13205594Y-2103866D02*
G01*
X13190100Y-2108946D01*
X13184766Y-2119360D01*
X13184766Y-2129774D01*
X13190100Y-2140188D01*
X13200514Y-2145522D01*
X13221088Y-2150602D01*
X13236836Y-2155682D01*
X13247250Y-2166096D01*
X13252330Y-2176510D01*
X13252330Y-2192258D01*
X13247250Y-2202672D01*
X13241916Y-2207752D01*
X13226422Y-2212832D01*
X13205594Y-2212832D01*
X13190100Y-2207752D01*
X13184766Y-2202672D01*
X13179686Y-2192258D01*
X13179686Y-2176510D01*
X13184766Y-2166096D01*
X13195180Y-2155682D01*
X13210928Y-2150602D01*
X13231502Y-2145522D01*
X13241916Y-2140188D01*
X13247250Y-2129774D01*
X13247250Y-2119360D01*
X13241916Y-2108946D01*
X13226422Y-2103866D01*
X13205594Y-2103866D01*
X12975978Y-3603863D02*
G01*
X12975978Y-3712829D01*
X12975978Y-3712829D02*
G01*
X13038208Y-3712829D01*
X13134982Y-3603863D02*
G01*
X13082912Y-3603863D01*
X13077832Y-3650599D01*
X13082912Y-3645519D01*
X13098660Y-3640185D01*
X13114154Y-3640185D01*
X13129648Y-3645519D01*
X13140062Y-3655679D01*
X13145396Y-3671427D01*
X13145396Y-3681841D01*
X13140062Y-3697335D01*
X13129648Y-3707749D01*
X13114154Y-3712829D01*
X13098660Y-3712829D01*
X13082912Y-3707749D01*
X13077832Y-3702669D01*
X13072498Y-3692255D01*
X13247250Y-3640185D02*
G01*
X13241916Y-3655679D01*
X13231502Y-3666093D01*
X13216008Y-3671427D01*
X13210928Y-3671427D01*
X13195180Y-3666093D01*
X13184766Y-3655679D01*
X13179686Y-3640185D01*
X13179686Y-3635105D01*
X13184766Y-3619357D01*
X13195180Y-3608943D01*
X13210928Y-3603863D01*
X13216008Y-3603863D01*
X13231502Y-3608943D01*
X13241916Y-3619357D01*
X13247250Y-3640185D01*
X13247250Y-3666093D01*
X13241916Y-3692255D01*
X13231502Y-3707749D01*
X13216008Y-3712829D01*
X13205594Y-3712829D01*
X13190100Y-3707749D01*
X13184766Y-3697335D01*
X12975978Y-5103860D02*
G01*
X12975978Y-5212826D01*
X12975978Y-5212826D02*
G01*
X13038208Y-5212826D01*
X13134982Y-5119354D02*
G01*
X13129648Y-5108940D01*
X13114154Y-5103860D01*
X13103740Y-5103860D01*
X13088246Y-5108940D01*
X13077832Y-5124688D01*
X13072498Y-5150596D01*
X13072498Y-5176504D01*
X13077832Y-5197332D01*
X13088246Y-5207746D01*
X13103740Y-5212826D01*
X13109074Y-5212826D01*
X13124568Y-5207746D01*
X13134982Y-5197332D01*
X13140062Y-5181838D01*
X13140062Y-5176504D01*
X13134982Y-5161010D01*
X13124568Y-5150596D01*
X13109074Y-5145516D01*
X13103740Y-5145516D01*
X13088246Y-5150596D01*
X13077832Y-5161010D01*
X13072498Y-5176504D01*
X13205594Y-5103860D02*
G01*
X13190100Y-5108940D01*
X13179686Y-5124688D01*
X13174352Y-5150596D01*
X13174352Y-5166090D01*
X13179686Y-5192252D01*
X13190100Y-5207746D01*
X13205594Y-5212826D01*
X13216008Y-5212826D01*
X13231502Y-5207746D01*
X13241916Y-5192252D01*
X13247250Y-5166090D01*
X13247250Y-5150596D01*
X13241916Y-5124688D01*
X13231502Y-5108940D01*
X13216008Y-5103860D01*
X13205594Y-5103860D01*
X12975978Y-6603857D02*
G01*
X12975978Y-6712823D01*
X12975978Y-6712823D02*
G01*
X13038208Y-6712823D01*
X13134982Y-6619351D02*
G01*
X13129648Y-6608937D01*
X13114154Y-6603857D01*
X13103740Y-6603857D01*
X13088246Y-6608937D01*
X13077832Y-6624685D01*
X13072498Y-6650593D01*
X13072498Y-6676501D01*
X13077832Y-6697329D01*
X13088246Y-6707743D01*
X13103740Y-6712823D01*
X13109074Y-6712823D01*
X13124568Y-6707743D01*
X13134982Y-6697329D01*
X13140062Y-6681835D01*
X13140062Y-6676501D01*
X13134982Y-6661007D01*
X13124568Y-6650593D01*
X13109074Y-6645513D01*
X13103740Y-6645513D01*
X13088246Y-6650593D01*
X13077832Y-6661007D01*
X13072498Y-6676501D01*
X13174352Y-6624685D02*
G01*
X13184766Y-6619351D01*
X13200514Y-6603857D01*
X13200514Y-6712823D01*
X12975978Y-8103854D02*
G01*
X12975978Y-8212820D01*
X12975978Y-8212820D02*
G01*
X13038208Y-8212820D01*
X13134982Y-8119348D02*
G01*
X13129648Y-8108934D01*
X13114154Y-8103854D01*
X13103740Y-8103854D01*
X13088246Y-8108934D01*
X13077832Y-8124682D01*
X13072498Y-8150590D01*
X13072498Y-8176498D01*
X13077832Y-8197326D01*
X13088246Y-8207740D01*
X13103740Y-8212820D01*
X13109074Y-8212820D01*
X13124568Y-8207740D01*
X13134982Y-8197326D01*
X13140062Y-8181832D01*
X13140062Y-8176498D01*
X13134982Y-8161004D01*
X13124568Y-8150590D01*
X13109074Y-8145510D01*
X13103740Y-8145510D01*
X13088246Y-8150590D01*
X13077832Y-8161004D01*
X13072498Y-8176498D01*
X13179686Y-8129762D02*
G01*
X13179686Y-8124682D01*
X13184766Y-8114268D01*
X13190100Y-8108934D01*
X13200514Y-8103854D01*
X13221088Y-8103854D01*
X13231502Y-8108934D01*
X13236836Y-8114268D01*
X13241916Y-8124682D01*
X13241916Y-8135096D01*
X13236836Y-8145510D01*
X13226422Y-8161004D01*
X13174352Y-8212820D01*
X13247250Y-8212820D01*
X12975978Y-9603851D02*
G01*
X12975978Y-9712817D01*
X12975978Y-9712817D02*
G01*
X13038208Y-9712817D01*
X13134982Y-9619345D02*
G01*
X13129648Y-9608931D01*
X13114154Y-9603851D01*
X13103740Y-9603851D01*
X13088246Y-9608931D01*
X13077832Y-9624679D01*
X13072498Y-9650587D01*
X13072498Y-9676495D01*
X13077832Y-9697323D01*
X13088246Y-9707737D01*
X13103740Y-9712817D01*
X13109074Y-9712817D01*
X13124568Y-9707737D01*
X13134982Y-9697323D01*
X13140062Y-9681829D01*
X13140062Y-9676495D01*
X13134982Y-9661001D01*
X13124568Y-9650587D01*
X13109074Y-9645507D01*
X13103740Y-9645507D01*
X13088246Y-9650587D01*
X13077832Y-9661001D01*
X13072498Y-9676495D01*
X13184766Y-9603851D02*
G01*
X13241916Y-9603851D01*
X13210928Y-9645507D01*
X13226422Y-9645507D01*
X13236836Y-9650587D01*
X13241916Y-9655667D01*
X13247250Y-9671415D01*
X13247250Y-9681829D01*
X13241916Y-9697323D01*
X13231502Y-9707737D01*
X13216008Y-9712817D01*
X13200514Y-9712817D01*
X13184766Y-9707737D01*
X13179686Y-9702657D01*
X13174352Y-9692243D01*
X14475975Y-603869D02*
G01*
X14475975Y-712835D01*
X14475975Y-712835D02*
G01*
X14538205Y-712835D01*
X14634979Y-619363D02*
G01*
X14629645Y-608949D01*
X14614151Y-603869D01*
X14603737Y-603869D01*
X14588243Y-608949D01*
X14577829Y-624697D01*
X14572495Y-650605D01*
X14572495Y-676513D01*
X14577829Y-697341D01*
X14588243Y-707755D01*
X14603737Y-712835D01*
X14609071Y-712835D01*
X14624565Y-707755D01*
X14634979Y-697341D01*
X14640059Y-681847D01*
X14640059Y-676513D01*
X14634979Y-661019D01*
X14624565Y-650605D01*
X14609071Y-645525D01*
X14603737Y-645525D01*
X14588243Y-650605D01*
X14577829Y-661019D01*
X14572495Y-676513D01*
X14726419Y-603869D02*
G01*
X14674349Y-676513D01*
X14752327Y-676513D01*
X14726419Y-603869D02*
G01*
X14726419Y-712835D01*
X14475975Y-2103866D02*
G01*
X14475975Y-2212832D01*
X14475975Y-2212832D02*
G01*
X14538205Y-2212832D01*
X14634979Y-2119360D02*
G01*
X14629645Y-2108946D01*
X14614151Y-2103866D01*
X14603737Y-2103866D01*
X14588243Y-2108946D01*
X14577829Y-2124694D01*
X14572495Y-2150602D01*
X14572495Y-2176510D01*
X14577829Y-2197338D01*
X14588243Y-2207752D01*
X14603737Y-2212832D01*
X14609071Y-2212832D01*
X14624565Y-2207752D01*
X14634979Y-2197338D01*
X14640059Y-2181844D01*
X14640059Y-2176510D01*
X14634979Y-2161016D01*
X14624565Y-2150602D01*
X14609071Y-2145522D01*
X14603737Y-2145522D01*
X14588243Y-2150602D01*
X14577829Y-2161016D01*
X14572495Y-2176510D01*
X14736833Y-2103866D02*
G01*
X14684763Y-2103866D01*
X14679683Y-2150602D01*
X14684763Y-2145522D01*
X14700511Y-2140188D01*
X14716005Y-2140188D01*
X14731499Y-2145522D01*
X14741913Y-2155682D01*
X14747247Y-2171430D01*
X14747247Y-2181844D01*
X14741913Y-2197338D01*
X14731499Y-2207752D01*
X14716005Y-2212832D01*
X14700511Y-2212832D01*
X14684763Y-2207752D01*
X14679683Y-2202672D01*
X14674349Y-2192258D01*
X14475975Y-3603863D02*
G01*
X14475975Y-3712829D01*
X14475975Y-3712829D02*
G01*
X14538205Y-3712829D01*
X14634979Y-3619357D02*
G01*
X14629645Y-3608943D01*
X14614151Y-3603863D01*
X14603737Y-3603863D01*
X14588243Y-3608943D01*
X14577829Y-3624691D01*
X14572495Y-3650599D01*
X14572495Y-3676507D01*
X14577829Y-3697335D01*
X14588243Y-3707749D01*
X14603737Y-3712829D01*
X14609071Y-3712829D01*
X14624565Y-3707749D01*
X14634979Y-3697335D01*
X14640059Y-3681841D01*
X14640059Y-3676507D01*
X14634979Y-3661013D01*
X14624565Y-3650599D01*
X14609071Y-3645519D01*
X14603737Y-3645519D01*
X14588243Y-3650599D01*
X14577829Y-3661013D01*
X14572495Y-3676507D01*
X14736833Y-3619357D02*
G01*
X14731499Y-3608943D01*
X14716005Y-3603863D01*
X14705591Y-3603863D01*
X14690097Y-3608943D01*
X14679683Y-3624691D01*
X14674349Y-3650599D01*
X14674349Y-3676507D01*
X14679683Y-3697335D01*
X14690097Y-3707749D01*
X14705591Y-3712829D01*
X14710925Y-3712829D01*
X14726419Y-3707749D01*
X14736833Y-3697335D01*
X14741913Y-3681841D01*
X14741913Y-3676507D01*
X14736833Y-3661013D01*
X14726419Y-3650599D01*
X14710925Y-3645519D01*
X14705591Y-3645519D01*
X14690097Y-3650599D01*
X14679683Y-3661013D01*
X14674349Y-3676507D01*
X14475975Y-5103860D02*
G01*
X14475975Y-5212826D01*
X14475975Y-5212826D02*
G01*
X14538205Y-5212826D01*
X14634979Y-5119354D02*
G01*
X14629645Y-5108940D01*
X14614151Y-5103860D01*
X14603737Y-5103860D01*
X14588243Y-5108940D01*
X14577829Y-5124688D01*
X14572495Y-5150596D01*
X14572495Y-5176504D01*
X14577829Y-5197332D01*
X14588243Y-5207746D01*
X14603737Y-5212826D01*
X14609071Y-5212826D01*
X14624565Y-5207746D01*
X14634979Y-5197332D01*
X14640059Y-5181838D01*
X14640059Y-5176504D01*
X14634979Y-5161010D01*
X14624565Y-5150596D01*
X14609071Y-5145516D01*
X14603737Y-5145516D01*
X14588243Y-5150596D01*
X14577829Y-5161010D01*
X14572495Y-5176504D01*
X14747247Y-5103860D02*
G01*
X14695177Y-5212826D01*
X14674349Y-5103860D02*
G01*
X14747247Y-5103860D01*
X14475975Y-6603857D02*
G01*
X14475975Y-6712823D01*
X14475975Y-6712823D02*
G01*
X14538205Y-6712823D01*
X14634979Y-6619351D02*
G01*
X14629645Y-6608937D01*
X14614151Y-6603857D01*
X14603737Y-6603857D01*
X14588243Y-6608937D01*
X14577829Y-6624685D01*
X14572495Y-6650593D01*
X14572495Y-6676501D01*
X14577829Y-6697329D01*
X14588243Y-6707743D01*
X14603737Y-6712823D01*
X14609071Y-6712823D01*
X14624565Y-6707743D01*
X14634979Y-6697329D01*
X14640059Y-6681835D01*
X14640059Y-6676501D01*
X14634979Y-6661007D01*
X14624565Y-6650593D01*
X14609071Y-6645513D01*
X14603737Y-6645513D01*
X14588243Y-6650593D01*
X14577829Y-6661007D01*
X14572495Y-6676501D01*
X14700511Y-6603857D02*
G01*
X14684763Y-6608937D01*
X14679683Y-6619351D01*
X14679683Y-6629765D01*
X14684763Y-6640179D01*
X14695177Y-6645513D01*
X14716005Y-6650593D01*
X14731499Y-6655673D01*
X14741913Y-6666087D01*
X14747247Y-6676501D01*
X14747247Y-6692249D01*
X14741913Y-6702663D01*
X14736833Y-6707743D01*
X14721085Y-6712823D01*
X14700511Y-6712823D01*
X14684763Y-6707743D01*
X14679683Y-6702663D01*
X14674349Y-6692249D01*
X14674349Y-6676501D01*
X14679683Y-6666087D01*
X14690097Y-6655673D01*
X14705591Y-6650593D01*
X14726419Y-6645513D01*
X14736833Y-6640179D01*
X14741913Y-6629765D01*
X14741913Y-6619351D01*
X14736833Y-6608937D01*
X14721085Y-6603857D01*
X14700511Y-6603857D01*
X14475975Y-8103854D02*
G01*
X14475975Y-8212820D01*
X14475975Y-8212820D02*
G01*
X14538205Y-8212820D01*
X14634979Y-8119348D02*
G01*
X14629645Y-8108934D01*
X14614151Y-8103854D01*
X14603737Y-8103854D01*
X14588243Y-8108934D01*
X14577829Y-8124682D01*
X14572495Y-8150590D01*
X14572495Y-8176498D01*
X14577829Y-8197326D01*
X14588243Y-8207740D01*
X14603737Y-8212820D01*
X14609071Y-8212820D01*
X14624565Y-8207740D01*
X14634979Y-8197326D01*
X14640059Y-8181832D01*
X14640059Y-8176498D01*
X14634979Y-8161004D01*
X14624565Y-8150590D01*
X14609071Y-8145510D01*
X14603737Y-8145510D01*
X14588243Y-8150590D01*
X14577829Y-8161004D01*
X14572495Y-8176498D01*
X14741913Y-8140176D02*
G01*
X14736833Y-8155670D01*
X14726419Y-8166084D01*
X14710925Y-8171418D01*
X14705591Y-8171418D01*
X14690097Y-8166084D01*
X14679683Y-8155670D01*
X14674349Y-8140176D01*
X14674349Y-8135096D01*
X14679683Y-8119348D01*
X14690097Y-8108934D01*
X14705591Y-8103854D01*
X14710925Y-8103854D01*
X14726419Y-8108934D01*
X14736833Y-8119348D01*
X14741913Y-8140176D01*
X14741913Y-8166084D01*
X14736833Y-8192246D01*
X14726419Y-8207740D01*
X14710925Y-8212820D01*
X14700511Y-8212820D01*
X14684763Y-8207740D01*
X14679683Y-8197326D01*
X14475975Y-9603851D02*
G01*
X14475975Y-9712817D01*
X14475975Y-9712817D02*
G01*
X14538205Y-9712817D01*
X14645393Y-9603851D02*
G01*
X14593323Y-9712817D01*
X14572495Y-9603851D02*
G01*
X14645393Y-9603851D01*
X14710925Y-9603851D02*
G01*
X14695177Y-9608931D01*
X14684763Y-9624679D01*
X14679683Y-9650587D01*
X14679683Y-9666081D01*
X14684763Y-9692243D01*
X14695177Y-9707737D01*
X14710925Y-9712817D01*
X14721085Y-9712817D01*
X14736833Y-9707737D01*
X14747247Y-9692243D01*
X14752327Y-9666081D01*
X14752327Y-9650587D01*
X14747247Y-9624679D01*
X14736833Y-9608931D01*
X14721085Y-9603851D01*
X14710925Y-9603851D01*
X15975972Y-603869D02*
G01*
X15975972Y-712835D01*
X15975972Y-712835D02*
G01*
X16038202Y-712835D01*
X16145390Y-603869D02*
G01*
X16093320Y-712835D01*
X16072492Y-603869D02*
G01*
X16145390Y-603869D01*
X16179680Y-624697D02*
G01*
X16190094Y-619363D01*
X16205588Y-603869D01*
X16205588Y-712835D01*
X15975972Y-2103866D02*
G01*
X15975972Y-2212832D01*
X15975972Y-2212832D02*
G01*
X16038202Y-2212832D01*
X16145390Y-2103866D02*
G01*
X16093320Y-2212832D01*
X16072492Y-2103866D02*
G01*
X16145390Y-2103866D01*
X16184760Y-2129774D02*
G01*
X16184760Y-2124694D01*
X16190094Y-2114280D01*
X16195174Y-2108946D01*
X16205588Y-2103866D01*
X16226416Y-2103866D01*
X16236830Y-2108946D01*
X16241910Y-2114280D01*
X16247244Y-2124694D01*
X16247244Y-2135108D01*
X16241910Y-2145522D01*
X16231496Y-2161016D01*
X16179680Y-2212832D01*
X16252324Y-2212832D01*
X15975972Y-3603863D02*
G01*
X15975972Y-3712829D01*
X15975972Y-3712829D02*
G01*
X16038202Y-3712829D01*
X16145390Y-3603863D02*
G01*
X16093320Y-3712829D01*
X16072492Y-3603863D02*
G01*
X16145390Y-3603863D01*
X16190094Y-3603863D02*
G01*
X16247244Y-3603863D01*
X16216002Y-3645519D01*
X16231496Y-3645519D01*
X16241910Y-3650599D01*
X16247244Y-3655679D01*
X16252324Y-3671427D01*
X16252324Y-3681841D01*
X16247244Y-3697335D01*
X16236830Y-3707749D01*
X16221082Y-3712829D01*
X16205588Y-3712829D01*
X16190094Y-3707749D01*
X16184760Y-3702669D01*
X16179680Y-3692255D01*
X15975972Y-5103860D02*
G01*
X15975972Y-5212826D01*
X15975972Y-5212826D02*
G01*
X16038202Y-5212826D01*
X16145390Y-5103860D02*
G01*
X16093320Y-5212826D01*
X16072492Y-5103860D02*
G01*
X16145390Y-5103860D01*
X16231496Y-5103860D02*
G01*
X16179680Y-5176504D01*
X16257658Y-5176504D01*
X16231496Y-5103860D02*
G01*
X16231496Y-5212826D01*
X15975972Y-6603857D02*
G01*
X15975972Y-6712823D01*
X15975972Y-6712823D02*
G01*
X16038202Y-6712823D01*
X16145390Y-6603857D02*
G01*
X16093320Y-6712823D01*
X16072492Y-6603857D02*
G01*
X16145390Y-6603857D01*
X16241910Y-6603857D02*
G01*
X16190094Y-6603857D01*
X16184760Y-6650593D01*
X16190094Y-6645513D01*
X16205588Y-6640179D01*
X16221082Y-6640179D01*
X16236830Y-6645513D01*
X16247244Y-6655673D01*
X16252324Y-6671421D01*
X16252324Y-6681835D01*
X16247244Y-6697329D01*
X16236830Y-6707743D01*
X16221082Y-6712823D01*
X16205588Y-6712823D01*
X16190094Y-6707743D01*
X16184760Y-6702663D01*
X16179680Y-6692249D01*
X15975972Y-8103854D02*
G01*
X15975972Y-8212820D01*
X15975972Y-8212820D02*
G01*
X16038202Y-8212820D01*
X16145390Y-8103854D02*
G01*
X16093320Y-8212820D01*
X16072492Y-8103854D02*
G01*
X16145390Y-8103854D01*
X16241910Y-8119348D02*
G01*
X16236830Y-8108934D01*
X16221082Y-8103854D01*
X16210922Y-8103854D01*
X16195174Y-8108934D01*
X16184760Y-8124682D01*
X16179680Y-8150590D01*
X16179680Y-8176498D01*
X16184760Y-8197326D01*
X16195174Y-8207740D01*
X16210922Y-8212820D01*
X16216002Y-8212820D01*
X16231496Y-8207740D01*
X16241910Y-8197326D01*
X16247244Y-8181832D01*
X16247244Y-8176498D01*
X16241910Y-8161004D01*
X16231496Y-8150590D01*
X16216002Y-8145510D01*
X16210922Y-8145510D01*
X16195174Y-8150590D01*
X16184760Y-8161004D01*
X16179680Y-8176498D01*
X15975972Y-9603851D02*
G01*
X15975972Y-9712817D01*
X15975972Y-9712817D02*
G01*
X16038202Y-9712817D01*
X16145390Y-9603851D02*
G01*
X16093320Y-9712817D01*
X16072492Y-9603851D02*
G01*
X16145390Y-9603851D01*
X16252324Y-9603851D02*
G01*
X16200508Y-9712817D01*
X16179680Y-9603851D02*
G01*
X16252324Y-9603851D01*
X17475969Y-603869D02*
G01*
X17475969Y-712835D01*
X17475969Y-712835D02*
G01*
X17538199Y-712835D01*
X17645387Y-603869D02*
G01*
X17593317Y-712835D01*
X17572489Y-603869D02*
G01*
X17645387Y-603869D01*
X17705585Y-603869D02*
G01*
X17690091Y-608949D01*
X17684757Y-619363D01*
X17684757Y-629777D01*
X17690091Y-640191D01*
X17700505Y-645525D01*
X17721079Y-650605D01*
X17736827Y-655685D01*
X17747241Y-666099D01*
X17752321Y-676513D01*
X17752321Y-692261D01*
X17747241Y-702675D01*
X17741907Y-707755D01*
X17726413Y-712835D01*
X17705585Y-712835D01*
X17690091Y-707755D01*
X17684757Y-702675D01*
X17679677Y-692261D01*
X17679677Y-676513D01*
X17684757Y-666099D01*
X17695171Y-655685D01*
X17710919Y-650605D01*
X17731493Y-645525D01*
X17741907Y-640191D01*
X17747241Y-629777D01*
X17747241Y-619363D01*
X17741907Y-608949D01*
X17726413Y-603869D01*
X17705585Y-603869D01*
X17475969Y-2103866D02*
G01*
X17475969Y-2212832D01*
X17475969Y-2212832D02*
G01*
X17538199Y-2212832D01*
X17645387Y-2103866D02*
G01*
X17593317Y-2212832D01*
X17572489Y-2103866D02*
G01*
X17645387Y-2103866D01*
X17747241Y-2140188D02*
G01*
X17741907Y-2155682D01*
X17731493Y-2166096D01*
X17715999Y-2171430D01*
X17710919Y-2171430D01*
X17695171Y-2166096D01*
X17684757Y-2155682D01*
X17679677Y-2140188D01*
X17679677Y-2135108D01*
X17684757Y-2119360D01*
X17695171Y-2108946D01*
X17710919Y-2103866D01*
X17715999Y-2103866D01*
X17731493Y-2108946D01*
X17741907Y-2119360D01*
X17747241Y-2140188D01*
X17747241Y-2166096D01*
X17741907Y-2192258D01*
X17731493Y-2207752D01*
X17715999Y-2212832D01*
X17705585Y-2212832D01*
X17690091Y-2207752D01*
X17684757Y-2197338D01*
X17475969Y-3603863D02*
G01*
X17475969Y-3712829D01*
X17475969Y-3712829D02*
G01*
X17538199Y-3712829D01*
X17598651Y-3603863D02*
G01*
X17582903Y-3608943D01*
X17577823Y-3619357D01*
X17577823Y-3629771D01*
X17582903Y-3640185D01*
X17593317Y-3645519D01*
X17614145Y-3650599D01*
X17629639Y-3655679D01*
X17640053Y-3666093D01*
X17645387Y-3676507D01*
X17645387Y-3692255D01*
X17640053Y-3702669D01*
X17634973Y-3707749D01*
X17619479Y-3712829D01*
X17598651Y-3712829D01*
X17582903Y-3707749D01*
X17577823Y-3702669D01*
X17572489Y-3692255D01*
X17572489Y-3676507D01*
X17577823Y-3666093D01*
X17588237Y-3655679D01*
X17603731Y-3650599D01*
X17624559Y-3645519D01*
X17634973Y-3640185D01*
X17640053Y-3629771D01*
X17640053Y-3619357D01*
X17634973Y-3608943D01*
X17619479Y-3603863D01*
X17598651Y-3603863D01*
X17710919Y-3603863D02*
G01*
X17695171Y-3608943D01*
X17684757Y-3624691D01*
X17679677Y-3650599D01*
X17679677Y-3666093D01*
X17684757Y-3692255D01*
X17695171Y-3707749D01*
X17710919Y-3712829D01*
X17721079Y-3712829D01*
X17736827Y-3707749D01*
X17747241Y-3692255D01*
X17752321Y-3666093D01*
X17752321Y-3650599D01*
X17747241Y-3624691D01*
X17736827Y-3608943D01*
X17721079Y-3603863D01*
X17710919Y-3603863D01*
X17475969Y-5103860D02*
G01*
X17475969Y-5212826D01*
X17475969Y-5212826D02*
G01*
X17538199Y-5212826D01*
X17598651Y-5103860D02*
G01*
X17582903Y-5108940D01*
X17577823Y-5119354D01*
X17577823Y-5129768D01*
X17582903Y-5140182D01*
X17593317Y-5145516D01*
X17614145Y-5150596D01*
X17629639Y-5155676D01*
X17640053Y-5166090D01*
X17645387Y-5176504D01*
X17645387Y-5192252D01*
X17640053Y-5202666D01*
X17634973Y-5207746D01*
X17619479Y-5212826D01*
X17598651Y-5212826D01*
X17582903Y-5207746D01*
X17577823Y-5202666D01*
X17572489Y-5192252D01*
X17572489Y-5176504D01*
X17577823Y-5166090D01*
X17588237Y-5155676D01*
X17603731Y-5150596D01*
X17624559Y-5145516D01*
X17634973Y-5140182D01*
X17640053Y-5129768D01*
X17640053Y-5119354D01*
X17634973Y-5108940D01*
X17619479Y-5103860D01*
X17598651Y-5103860D01*
X17679677Y-5124688D02*
G01*
X17690091Y-5119354D01*
X17705585Y-5103860D01*
X17705585Y-5212826D01*
X17475969Y-6603857D02*
G01*
X17475969Y-6712823D01*
X17475969Y-6712823D02*
G01*
X17538199Y-6712823D01*
X17598651Y-6603857D02*
G01*
X17582903Y-6608937D01*
X17577823Y-6619351D01*
X17577823Y-6629765D01*
X17582903Y-6640179D01*
X17593317Y-6645513D01*
X17614145Y-6650593D01*
X17629639Y-6655673D01*
X17640053Y-6666087D01*
X17645387Y-6676501D01*
X17645387Y-6692249D01*
X17640053Y-6702663D01*
X17634973Y-6707743D01*
X17619479Y-6712823D01*
X17598651Y-6712823D01*
X17582903Y-6707743D01*
X17577823Y-6702663D01*
X17572489Y-6692249D01*
X17572489Y-6676501D01*
X17577823Y-6666087D01*
X17588237Y-6655673D01*
X17603731Y-6650593D01*
X17624559Y-6645513D01*
X17634973Y-6640179D01*
X17640053Y-6629765D01*
X17640053Y-6619351D01*
X17634973Y-6608937D01*
X17619479Y-6603857D01*
X17598651Y-6603857D01*
X17684757Y-6629765D02*
G01*
X17684757Y-6624685D01*
X17690091Y-6614271D01*
X17695171Y-6608937D01*
X17705585Y-6603857D01*
X17726413Y-6603857D01*
X17736827Y-6608937D01*
X17741907Y-6614271D01*
X17747241Y-6624685D01*
X17747241Y-6635099D01*
X17741907Y-6645513D01*
X17731493Y-6661007D01*
X17679677Y-6712823D01*
X17752321Y-6712823D01*
X17475969Y-8103854D02*
G01*
X17475969Y-8212820D01*
X17475969Y-8212820D02*
G01*
X17538199Y-8212820D01*
X17598651Y-8103854D02*
G01*
X17582903Y-8108934D01*
X17577823Y-8119348D01*
X17577823Y-8129762D01*
X17582903Y-8140176D01*
X17593317Y-8145510D01*
X17614145Y-8150590D01*
X17629639Y-8155670D01*
X17640053Y-8166084D01*
X17645387Y-8176498D01*
X17645387Y-8192246D01*
X17640053Y-8202660D01*
X17634973Y-8207740D01*
X17619479Y-8212820D01*
X17598651Y-8212820D01*
X17582903Y-8207740D01*
X17577823Y-8202660D01*
X17572489Y-8192246D01*
X17572489Y-8176498D01*
X17577823Y-8166084D01*
X17588237Y-8155670D01*
X17603731Y-8150590D01*
X17624559Y-8145510D01*
X17634973Y-8140176D01*
X17640053Y-8129762D01*
X17640053Y-8119348D01*
X17634973Y-8108934D01*
X17619479Y-8103854D01*
X17598651Y-8103854D01*
X17690091Y-8103854D02*
G01*
X17747241Y-8103854D01*
X17715999Y-8145510D01*
X17731493Y-8145510D01*
X17741907Y-8150590D01*
X17747241Y-8155670D01*
X17752321Y-8171418D01*
X17752321Y-8181832D01*
X17747241Y-8197326D01*
X17736827Y-8207740D01*
X17721079Y-8212820D01*
X17705585Y-8212820D01*
X17690091Y-8207740D01*
X17684757Y-8202660D01*
X17679677Y-8192246D01*
X17475969Y-9603851D02*
G01*
X17475969Y-9712817D01*
X17475969Y-9712817D02*
G01*
X17538199Y-9712817D01*
X17598651Y-9603851D02*
G01*
X17582903Y-9608931D01*
X17577823Y-9619345D01*
X17577823Y-9629759D01*
X17582903Y-9640173D01*
X17593317Y-9645507D01*
X17614145Y-9650587D01*
X17629639Y-9655667D01*
X17640053Y-9666081D01*
X17645387Y-9676495D01*
X17645387Y-9692243D01*
X17640053Y-9702657D01*
X17634973Y-9707737D01*
X17619479Y-9712817D01*
X17598651Y-9712817D01*
X17582903Y-9707737D01*
X17577823Y-9702657D01*
X17572489Y-9692243D01*
X17572489Y-9676495D01*
X17577823Y-9666081D01*
X17588237Y-9655667D01*
X17603731Y-9650587D01*
X17624559Y-9645507D01*
X17634973Y-9640173D01*
X17640053Y-9629759D01*
X17640053Y-9619345D01*
X17634973Y-9608931D01*
X17619479Y-9603851D01*
X17598651Y-9603851D01*
X17731493Y-9603851D02*
G01*
X17679677Y-9676495D01*
X17757655Y-9676495D01*
X17731493Y-9603851D02*
G01*
X17731493Y-9712817D01*
X947420Y-1716404D02*
G01*
X952754Y-1726819D01*
X963168Y-1737232D01*
X973328Y-1742312D01*
X994155Y-1742312D01*
X1004570Y-1737232D01*
X1014984Y-1726819D01*
X1020318Y-1716404D01*
X1025397Y-1700656D01*
X1025397Y-1674748D01*
X1020318Y-1659254D01*
X1014984Y-1648840D01*
X1004570Y-1638427D01*
X994155Y-1633346D01*
X973328Y-1633346D01*
X963168Y-1638427D01*
X952754Y-1648840D01*
X947420Y-1659254D01*
X913129Y-1721485D02*
G01*
X902715Y-1726819D01*
X887221Y-1742312D01*
X887221Y-1633346D01*
X947420Y-3216402D02*
G01*
X952754Y-3226815D01*
X963168Y-3237229D01*
X973328Y-3242310D01*
X994155Y-3242310D01*
X1004570Y-3237229D01*
X1014984Y-3226815D01*
X1020318Y-3216402D01*
X1025397Y-3200654D01*
X1025397Y-3174745D01*
X1020318Y-3159252D01*
X1014984Y-3148837D01*
X1004570Y-3138423D01*
X994155Y-3133344D01*
X973328Y-3133344D01*
X963168Y-3138423D01*
X952754Y-3148837D01*
X947420Y-3159252D01*
X908050Y-3216402D02*
G01*
X908050Y-3221481D01*
X902715Y-3231895D01*
X897636Y-3237229D01*
X887221Y-3242310D01*
X866394Y-3242310D01*
X855979Y-3237229D01*
X850900Y-3231895D01*
X845565Y-3221481D01*
X845565Y-3211068D01*
X850900Y-3200654D01*
X861313Y-3185160D01*
X913129Y-3133344D01*
X840486Y-3133344D01*
X947420Y-4716398D02*
G01*
X952754Y-4726812D01*
X963168Y-4737227D01*
X973328Y-4742306D01*
X994155Y-4742306D01*
X1004570Y-4737227D01*
X1014984Y-4726812D01*
X1020318Y-4716398D01*
X1025397Y-4700651D01*
X1025397Y-4674743D01*
X1020318Y-4659248D01*
X1014984Y-4648835D01*
X1004570Y-4638420D01*
X994155Y-4633340D01*
X973328Y-4633340D01*
X963168Y-4638420D01*
X952754Y-4648835D01*
X947420Y-4659248D01*
X902715Y-4742306D02*
G01*
X845565Y-4742306D01*
X876807Y-4700651D01*
X861313Y-4700651D01*
X850900Y-4695570D01*
X845565Y-4690490D01*
X840486Y-4674743D01*
X840486Y-4664329D01*
X845565Y-4648835D01*
X855979Y-4638420D01*
X871728Y-4633340D01*
X887221Y-4633340D01*
X902715Y-4638420D01*
X908050Y-4643501D01*
X913129Y-4653914D01*
X947420Y-6216395D02*
G01*
X952754Y-6226810D01*
X963168Y-6237223D01*
X973328Y-6242304D01*
X994155Y-6242304D01*
X1004570Y-6237223D01*
X1014984Y-6226810D01*
X1020318Y-6216395D01*
X1025397Y-6200647D01*
X1025397Y-6174739D01*
X1020318Y-6159245D01*
X1014984Y-6148831D01*
X1004570Y-6138418D01*
X994155Y-6133337D01*
X973328Y-6133337D01*
X963168Y-6138418D01*
X952754Y-6148831D01*
X947420Y-6159245D01*
X861313Y-6242304D02*
G01*
X913129Y-6169660D01*
X835152Y-6169660D01*
X861313Y-6242304D02*
G01*
X861313Y-6133337D01*
X1115821Y-7709408D02*
G01*
X1121155Y-7719821D01*
X1131570Y-7730236D01*
X1141729Y-7735315D01*
X1162557Y-7735315D01*
X1172971Y-7730236D01*
X1183386Y-7719821D01*
X1188720Y-7709408D01*
X1193800Y-7693660D01*
X1193800Y-7667752D01*
X1188720Y-7652258D01*
X1183386Y-7641844D01*
X1172971Y-7631429D01*
X1162557Y-7626350D01*
X1141729Y-7626350D01*
X1131570Y-7631429D01*
X1121155Y-7641844D01*
X1115821Y-7652258D01*
X1019302Y-7735315D02*
G01*
X1071118Y-7735315D01*
X1076452Y-7688579D01*
X1071118Y-7693660D01*
X1055623Y-7698994D01*
X1040129Y-7698994D01*
X1024381Y-7693660D01*
X1013968Y-7683500D01*
X1008887Y-7667752D01*
X1008887Y-7657337D01*
X1013968Y-7641844D01*
X1024381Y-7631429D01*
X1040129Y-7626350D01*
X1055623Y-7626350D01*
X1071118Y-7631429D01*
X1076452Y-7636510D01*
X1081531Y-7646923D01*
X947420Y-9216389D02*
G01*
X952754Y-9226804D01*
X963168Y-9237218D01*
X973328Y-9242297D01*
X994155Y-9242297D01*
X1004570Y-9237218D01*
X1014984Y-9226804D01*
X1020318Y-9216389D01*
X1025397Y-9200642D01*
X1025397Y-9174734D01*
X1020318Y-9159239D01*
X1014984Y-9148826D01*
X1004570Y-9138412D01*
X994155Y-9133331D01*
X973328Y-9133331D01*
X963168Y-9138412D01*
X952754Y-9148826D01*
X947420Y-9159239D01*
X850900Y-9226804D02*
G01*
X855979Y-9237218D01*
X871728Y-9242297D01*
X881887Y-9242297D01*
X897636Y-9237218D01*
X908050Y-9221470D01*
X913129Y-9195562D01*
X913129Y-9169654D01*
X908050Y-9148826D01*
X897636Y-9138412D01*
X881887Y-9133331D01*
X876807Y-9133331D01*
X861313Y-9138412D01*
X850900Y-9148826D01*
X845565Y-9164320D01*
X845565Y-9169654D01*
X850900Y-9185147D01*
X861313Y-9195562D01*
X876807Y-9200642D01*
X881887Y-9200642D01*
X897636Y-9195562D01*
X908050Y-9185147D01*
X913129Y-9169654D01*
X947420Y-10716387D02*
G01*
X952754Y-10726801D01*
X963168Y-10737214D01*
X973328Y-10742295D01*
X994155Y-10742295D01*
X1004570Y-10737214D01*
X1014984Y-10726801D01*
X1020318Y-10716387D01*
X1025397Y-10700638D01*
X1025397Y-10674730D01*
X1020318Y-10659237D01*
X1014984Y-10648822D01*
X1004570Y-10638409D01*
X994155Y-10633329D01*
X973328Y-10633329D01*
X963168Y-10638409D01*
X952754Y-10648822D01*
X947420Y-10659237D01*
X840486Y-10742295D02*
G01*
X892302Y-10633329D01*
X913129Y-10742295D02*
G01*
X840486Y-10742295D01*
X2447416Y-1716404D02*
G01*
X2452750Y-1726819D01*
X2463165Y-1737232D01*
X2473325Y-1742312D01*
X2494152Y-1742312D01*
X2504566Y-1737232D01*
X2514981Y-1726819D01*
X2520315Y-1716404D01*
X2525395Y-1700656D01*
X2525395Y-1674748D01*
X2520315Y-1659254D01*
X2514981Y-1648840D01*
X2504566Y-1638427D01*
X2494152Y-1633346D01*
X2473325Y-1633346D01*
X2463165Y-1638427D01*
X2452750Y-1648840D01*
X2447416Y-1659254D01*
X2387218Y-1742312D02*
G01*
X2402713Y-1737232D01*
X2408047Y-1726819D01*
X2408047Y-1716404D01*
X2402713Y-1705990D01*
X2392299Y-1700656D01*
X2371725Y-1695577D01*
X2355977Y-1690496D01*
X2345563Y-1680082D01*
X2340483Y-1669669D01*
X2340483Y-1653920D01*
X2345563Y-1643506D01*
X2350897Y-1638427D01*
X2366390Y-1633346D01*
X2387218Y-1633346D01*
X2402713Y-1638427D01*
X2408047Y-1643506D01*
X2413127Y-1653920D01*
X2413127Y-1669669D01*
X2408047Y-1680082D01*
X2397633Y-1690496D01*
X2381884Y-1695577D01*
X2361311Y-1700656D01*
X2350897Y-1705990D01*
X2345563Y-1716404D01*
X2345563Y-1726819D01*
X2350897Y-1737232D01*
X2366390Y-1742312D01*
X2387218Y-1742312D01*
X2447416Y-3216402D02*
G01*
X2452750Y-3226815D01*
X2463165Y-3237229D01*
X2473325Y-3242310D01*
X2494152Y-3242310D01*
X2504566Y-3237229D01*
X2514981Y-3226815D01*
X2520315Y-3216402D01*
X2525395Y-3200654D01*
X2525395Y-3174745D01*
X2520315Y-3159252D01*
X2514981Y-3148837D01*
X2504566Y-3138423D01*
X2494152Y-3133344D01*
X2473325Y-3133344D01*
X2463165Y-3138423D01*
X2452750Y-3148837D01*
X2447416Y-3159252D01*
X2345563Y-3205987D02*
G01*
X2350897Y-3190494D01*
X2361311Y-3180079D01*
X2376804Y-3174745D01*
X2381884Y-3174745D01*
X2397633Y-3180079D01*
X2408047Y-3190494D01*
X2413127Y-3205987D01*
X2413127Y-3211068D01*
X2408047Y-3226815D01*
X2397633Y-3237229D01*
X2381884Y-3242310D01*
X2376804Y-3242310D01*
X2361311Y-3237229D01*
X2350897Y-3226815D01*
X2345563Y-3205987D01*
X2345563Y-3180079D01*
X2350897Y-3153918D01*
X2361311Y-3138423D01*
X2376804Y-3133344D01*
X2387218Y-3133344D01*
X2402713Y-3138423D01*
X2408047Y-3148837D01*
X2447416Y-4716398D02*
G01*
X2452750Y-4726812D01*
X2463165Y-4737227D01*
X2473325Y-4742306D01*
X2494152Y-4742306D01*
X2504566Y-4737227D01*
X2514981Y-4726812D01*
X2520315Y-4716398D01*
X2525395Y-4700651D01*
X2525395Y-4674743D01*
X2520315Y-4659248D01*
X2514981Y-4648835D01*
X2504566Y-4638420D01*
X2494152Y-4633340D01*
X2473325Y-4633340D01*
X2463165Y-4638420D01*
X2452750Y-4648835D01*
X2447416Y-4659248D01*
X2413127Y-4721479D02*
G01*
X2402713Y-4726812D01*
X2387218Y-4742306D01*
X2387218Y-4633340D01*
X2321686Y-4742306D02*
G01*
X2337434Y-4737227D01*
X2347595Y-4721479D01*
X2352929Y-4695570D01*
X2352929Y-4680077D01*
X2347595Y-4653914D01*
X2337434Y-4638420D01*
X2321686Y-4633340D01*
X2311272Y-4633340D01*
X2295779Y-4638420D01*
X2285365Y-4653914D01*
X2280284Y-4680077D01*
X2280284Y-4695570D01*
X2285365Y-4721479D01*
X2295779Y-4737227D01*
X2311272Y-4742306D01*
X2321686Y-4742306D01*
X2447416Y-6216395D02*
G01*
X2452750Y-6226810D01*
X2463165Y-6237223D01*
X2473325Y-6242304D01*
X2494152Y-6242304D01*
X2504566Y-6237223D01*
X2514981Y-6226810D01*
X2520315Y-6216395D01*
X2525395Y-6200647D01*
X2525395Y-6174739D01*
X2520315Y-6159245D01*
X2514981Y-6148831D01*
X2504566Y-6138418D01*
X2494152Y-6133337D01*
X2473325Y-6133337D01*
X2463165Y-6138418D01*
X2452750Y-6148831D01*
X2447416Y-6159245D01*
X2413127Y-6221476D02*
G01*
X2402713Y-6226810D01*
X2387218Y-6242304D01*
X2387218Y-6133337D01*
X2352929Y-6221476D02*
G01*
X2342515Y-6226810D01*
X2327020Y-6242304D01*
X2327020Y-6133337D01*
X2447416Y-7716393D02*
G01*
X2452750Y-7726806D01*
X2463165Y-7737220D01*
X2473325Y-7742301D01*
X2494152Y-7742301D01*
X2504566Y-7737220D01*
X2514981Y-7726806D01*
X2520315Y-7716393D01*
X2525395Y-7700645D01*
X2525395Y-7674737D01*
X2520315Y-7659243D01*
X2514981Y-7648829D01*
X2504566Y-7638414D01*
X2494152Y-7633335D01*
X2473325Y-7633335D01*
X2463165Y-7638414D01*
X2452750Y-7648829D01*
X2447416Y-7659243D01*
X2413127Y-7721472D02*
G01*
X2402713Y-7726806D01*
X2387218Y-7742301D01*
X2387218Y-7633335D01*
X2347595Y-7716393D02*
G01*
X2347595Y-7721472D01*
X2342515Y-7731887D01*
X2337434Y-7737220D01*
X2327020Y-7742301D01*
X2306193Y-7742301D01*
X2295779Y-7737220D01*
X2290445Y-7731887D01*
X2285365Y-7721472D01*
X2285365Y-7711059D01*
X2290445Y-7700645D01*
X2300859Y-7685151D01*
X2352929Y-7633335D01*
X2280284Y-7633335D01*
X2447416Y-9216389D02*
G01*
X2452750Y-9226804D01*
X2463165Y-9237218D01*
X2473325Y-9242297D01*
X2494152Y-9242297D01*
X2504566Y-9237218D01*
X2514981Y-9226804D01*
X2520315Y-9216389D01*
X2525395Y-9200642D01*
X2525395Y-9174734D01*
X2520315Y-9159239D01*
X2514981Y-9148826D01*
X2504566Y-9138412D01*
X2494152Y-9133331D01*
X2473325Y-9133331D01*
X2463165Y-9138412D01*
X2452750Y-9148826D01*
X2447416Y-9159239D01*
X2413127Y-9221470D02*
G01*
X2402713Y-9226804D01*
X2387218Y-9242297D01*
X2387218Y-9133331D01*
X2342515Y-9242297D02*
G01*
X2285365Y-9242297D01*
X2316606Y-9200642D01*
X2300859Y-9200642D01*
X2290445Y-9195562D01*
X2285365Y-9190481D01*
X2280284Y-9174734D01*
X2280284Y-9164320D01*
X2285365Y-9148826D01*
X2295779Y-9138412D01*
X2311272Y-9133331D01*
X2327020Y-9133331D01*
X2342515Y-9138412D01*
X2347595Y-9143492D01*
X2352929Y-9153905D01*
X2447416Y-10716387D02*
G01*
X2452750Y-10726801D01*
X2463165Y-10737214D01*
X2473325Y-10742295D01*
X2494152Y-10742295D01*
X2504566Y-10737214D01*
X2514981Y-10726801D01*
X2520315Y-10716387D01*
X2525395Y-10700638D01*
X2525395Y-10674730D01*
X2520315Y-10659237D01*
X2514981Y-10648822D01*
X2504566Y-10638409D01*
X2494152Y-10633329D01*
X2473325Y-10633329D01*
X2463165Y-10638409D01*
X2452750Y-10648822D01*
X2447416Y-10659237D01*
X2413127Y-10721467D02*
G01*
X2402713Y-10726801D01*
X2387218Y-10742295D01*
X2387218Y-10633329D01*
X2300859Y-10742295D02*
G01*
X2352929Y-10669651D01*
X2274950Y-10669651D01*
X2300859Y-10742295D02*
G01*
X2300859Y-10633329D01*
X3947413Y-1716404D02*
G01*
X3952747Y-1726819D01*
X3963161Y-1737232D01*
X3973322Y-1742312D01*
X3994150Y-1742312D01*
X4004563Y-1737232D01*
X4014977Y-1726819D01*
X4020311Y-1716404D01*
X4025391Y-1700656D01*
X4025391Y-1674748D01*
X4020311Y-1659254D01*
X4014977Y-1648840D01*
X4004563Y-1638427D01*
X3994150Y-1633346D01*
X3973322Y-1633346D01*
X3963161Y-1638427D01*
X3952747Y-1648840D01*
X3947413Y-1659254D01*
X3913124Y-1721485D02*
G01*
X3902709Y-1726819D01*
X3887215Y-1742312D01*
X3887215Y-1633346D01*
X3790441Y-1742312D02*
G01*
X3842511Y-1742312D01*
X3847591Y-1695577D01*
X3842511Y-1700656D01*
X3827018Y-1705990D01*
X3811270Y-1705990D01*
X3795775Y-1700656D01*
X3785361Y-1690496D01*
X3780281Y-1674748D01*
X3780281Y-1664335D01*
X3785361Y-1648840D01*
X3795775Y-1638427D01*
X3811270Y-1633346D01*
X3827018Y-1633346D01*
X3842511Y-1638427D01*
X3847591Y-1643506D01*
X3852925Y-1653920D01*
X3947413Y-3216402D02*
G01*
X3952747Y-3226815D01*
X3963161Y-3237229D01*
X3973322Y-3242310D01*
X3994150Y-3242310D01*
X4004563Y-3237229D01*
X4014977Y-3226815D01*
X4020311Y-3216402D01*
X4025391Y-3200654D01*
X4025391Y-3174745D01*
X4020311Y-3159252D01*
X4014977Y-3148837D01*
X4004563Y-3138423D01*
X3994150Y-3133344D01*
X3973322Y-3133344D01*
X3963161Y-3138423D01*
X3952747Y-3148837D01*
X3947413Y-3159252D01*
X3913124Y-3221481D02*
G01*
X3902709Y-3226815D01*
X3887215Y-3242310D01*
X3887215Y-3133344D01*
X3790441Y-3226815D02*
G01*
X3795775Y-3237229D01*
X3811270Y-3242310D01*
X3821684Y-3242310D01*
X3837431Y-3237229D01*
X3847591Y-3221481D01*
X3852925Y-3195573D01*
X3852925Y-3169665D01*
X3847591Y-3148837D01*
X3837431Y-3138423D01*
X3821684Y-3133344D01*
X3816604Y-3133344D01*
X3800856Y-3138423D01*
X3790441Y-3148837D01*
X3785361Y-3164331D01*
X3785361Y-3169665D01*
X3790441Y-3185160D01*
X3800856Y-3195573D01*
X3816604Y-3200654D01*
X3821684Y-3200654D01*
X3837431Y-3195573D01*
X3847591Y-3185160D01*
X3852925Y-3169665D01*
X3947413Y-4716398D02*
G01*
X3952747Y-4726812D01*
X3963161Y-4737227D01*
X3973322Y-4742306D01*
X3994150Y-4742306D01*
X4004563Y-4737227D01*
X4014977Y-4726812D01*
X4020311Y-4716398D01*
X4025391Y-4700651D01*
X4025391Y-4674743D01*
X4020311Y-4659248D01*
X4014977Y-4648835D01*
X4004563Y-4638420D01*
X3994150Y-4633340D01*
X3973322Y-4633340D01*
X3963161Y-4638420D01*
X3952747Y-4648835D01*
X3947413Y-4659248D01*
X3913124Y-4721479D02*
G01*
X3902709Y-4726812D01*
X3887215Y-4742306D01*
X3887215Y-4633340D01*
X3780281Y-4742306D02*
G01*
X3832097Y-4633340D01*
X3852925Y-4742306D02*
G01*
X3780281Y-4742306D01*
X3947413Y-6216395D02*
G01*
X3952747Y-6226810D01*
X3963161Y-6237223D01*
X3973322Y-6242304D01*
X3994150Y-6242304D01*
X4004563Y-6237223D01*
X4014977Y-6226810D01*
X4020311Y-6216395D01*
X4025391Y-6200647D01*
X4025391Y-6174739D01*
X4020311Y-6159245D01*
X4014977Y-6148831D01*
X4004563Y-6138418D01*
X3994150Y-6133337D01*
X3973322Y-6133337D01*
X3963161Y-6138418D01*
X3952747Y-6148831D01*
X3947413Y-6159245D01*
X3913124Y-6221476D02*
G01*
X3902709Y-6226810D01*
X3887215Y-6242304D01*
X3887215Y-6133337D01*
X3827018Y-6242304D02*
G01*
X3842511Y-6237223D01*
X3847591Y-6226810D01*
X3847591Y-6216395D01*
X3842511Y-6205981D01*
X3832097Y-6200647D01*
X3811270Y-6195568D01*
X3795775Y-6190487D01*
X3785361Y-6180073D01*
X3780281Y-6169660D01*
X3780281Y-6153912D01*
X3785361Y-6143497D01*
X3790441Y-6138418D01*
X3806190Y-6133337D01*
X3827018Y-6133337D01*
X3842511Y-6138418D01*
X3847591Y-6143497D01*
X3852925Y-6153912D01*
X3852925Y-6169660D01*
X3847591Y-6180073D01*
X3837431Y-6190487D01*
X3821684Y-6195568D01*
X3800856Y-6200647D01*
X3790441Y-6205981D01*
X3785361Y-6216395D01*
X3785361Y-6226810D01*
X3790441Y-6237223D01*
X3806190Y-6242304D01*
X3827018Y-6242304D01*
X3947413Y-7716393D02*
G01*
X3952747Y-7726806D01*
X3963161Y-7737220D01*
X3973322Y-7742301D01*
X3994150Y-7742301D01*
X4004563Y-7737220D01*
X4014977Y-7726806D01*
X4020311Y-7716393D01*
X4025391Y-7700645D01*
X4025391Y-7674737D01*
X4020311Y-7659243D01*
X4014977Y-7648829D01*
X4004563Y-7638414D01*
X3994150Y-7633335D01*
X3973322Y-7633335D01*
X3963161Y-7638414D01*
X3952747Y-7648829D01*
X3947413Y-7659243D01*
X3913124Y-7721472D02*
G01*
X3902709Y-7726806D01*
X3887215Y-7742301D01*
X3887215Y-7633335D01*
X3785361Y-7705979D02*
G01*
X3790441Y-7690485D01*
X3800856Y-7680070D01*
X3816604Y-7674737D01*
X3821684Y-7674737D01*
X3837431Y-7680070D01*
X3847591Y-7690485D01*
X3852925Y-7705979D01*
X3852925Y-7711059D01*
X3847591Y-7726806D01*
X3837431Y-7737220D01*
X3821684Y-7742301D01*
X3816604Y-7742301D01*
X3800856Y-7737220D01*
X3790441Y-7726806D01*
X3785361Y-7705979D01*
X3785361Y-7680070D01*
X3790441Y-7653909D01*
X3800856Y-7638414D01*
X3816604Y-7633335D01*
X3827018Y-7633335D01*
X3842511Y-7638414D01*
X3847591Y-7648829D01*
X3947413Y-9216389D02*
G01*
X3952747Y-9226804D01*
X3963161Y-9237218D01*
X3973322Y-9242297D01*
X3994150Y-9242297D01*
X4004563Y-9237218D01*
X4014977Y-9226804D01*
X4020311Y-9216389D01*
X4025391Y-9200642D01*
X4025391Y-9174734D01*
X4020311Y-9159239D01*
X4014977Y-9148826D01*
X4004563Y-9138412D01*
X3994150Y-9133331D01*
X3973322Y-9133331D01*
X3963161Y-9138412D01*
X3952747Y-9148826D01*
X3947413Y-9159239D01*
X3908043Y-9216389D02*
G01*
X3908043Y-9221470D01*
X3902709Y-9231884D01*
X3897629Y-9237218D01*
X3887215Y-9242297D01*
X3866388Y-9242297D01*
X3855974Y-9237218D01*
X3850893Y-9231884D01*
X3845559Y-9221470D01*
X3845559Y-9211055D01*
X3850893Y-9200642D01*
X3861308Y-9185147D01*
X3913124Y-9133331D01*
X3840479Y-9133331D01*
X3774947Y-9242297D02*
G01*
X3790441Y-9237218D01*
X3800856Y-9221470D01*
X3806190Y-9195562D01*
X3806190Y-9180068D01*
X3800856Y-9153905D01*
X3790441Y-9138412D01*
X3774947Y-9133331D01*
X3764534Y-9133331D01*
X3749040Y-9138412D01*
X3738625Y-9153905D01*
X3733291Y-9180068D01*
X3733291Y-9195562D01*
X3738625Y-9221470D01*
X3749040Y-9237218D01*
X3764534Y-9242297D01*
X3774947Y-9242297D01*
X3947413Y-10716387D02*
G01*
X3952747Y-10726801D01*
X3963161Y-10737214D01*
X3973322Y-10742295D01*
X3994150Y-10742295D01*
X4004563Y-10737214D01*
X4014977Y-10726801D01*
X4020311Y-10716387D01*
X4025391Y-10700638D01*
X4025391Y-10674730D01*
X4020311Y-10659237D01*
X4014977Y-10648822D01*
X4004563Y-10638409D01*
X3994150Y-10633329D01*
X3973322Y-10633329D01*
X3963161Y-10638409D01*
X3952747Y-10648822D01*
X3947413Y-10659237D01*
X3908043Y-10716387D02*
G01*
X3908043Y-10721467D01*
X3902709Y-10731880D01*
X3897629Y-10737214D01*
X3887215Y-10742295D01*
X3866388Y-10742295D01*
X3855974Y-10737214D01*
X3850893Y-10731880D01*
X3845559Y-10721467D01*
X3845559Y-10711053D01*
X3850893Y-10700638D01*
X3861308Y-10685145D01*
X3913124Y-10633329D01*
X3840479Y-10633329D01*
X3806190Y-10721467D02*
G01*
X3795775Y-10726801D01*
X3780281Y-10742295D01*
X3780281Y-10633329D01*
X5447411Y-1716404D02*
G01*
X5452745Y-1726819D01*
X5463159Y-1737232D01*
X5473318Y-1742312D01*
X5494147Y-1742312D01*
X5504561Y-1737232D01*
X5514975Y-1726819D01*
X5520309Y-1716404D01*
X5525388Y-1700656D01*
X5525388Y-1674748D01*
X5520309Y-1659254D01*
X5514975Y-1648840D01*
X5504561Y-1638427D01*
X5494147Y-1633346D01*
X5473318Y-1633346D01*
X5463159Y-1638427D01*
X5452745Y-1648840D01*
X5447411Y-1659254D01*
X5408040Y-1716404D02*
G01*
X5408040Y-1721485D01*
X5402706Y-1731898D01*
X5397627Y-1737232D01*
X5387213Y-1742312D01*
X5366384Y-1742312D01*
X5355970Y-1737232D01*
X5350890Y-1731898D01*
X5345556Y-1721485D01*
X5345556Y-1711070D01*
X5350890Y-1700656D01*
X5361304Y-1685162D01*
X5413120Y-1633346D01*
X5340477Y-1633346D01*
X5300852Y-1716404D02*
G01*
X5300852Y-1721485D01*
X5295772Y-1731898D01*
X5290438Y-1737232D01*
X5280279Y-1742312D01*
X5259450Y-1742312D01*
X5249036Y-1737232D01*
X5243702Y-1731898D01*
X5238622Y-1721485D01*
X5238622Y-1711070D01*
X5243702Y-1700656D01*
X5254116Y-1685162D01*
X5306186Y-1633346D01*
X5233288Y-1633346D01*
X5447411Y-3216402D02*
G01*
X5452745Y-3226815D01*
X5463159Y-3237229D01*
X5473318Y-3242310D01*
X5494147Y-3242310D01*
X5504561Y-3237229D01*
X5514975Y-3226815D01*
X5520309Y-3216402D01*
X5525388Y-3200654D01*
X5525388Y-3174745D01*
X5520309Y-3159252D01*
X5514975Y-3148837D01*
X5504561Y-3138423D01*
X5494147Y-3133344D01*
X5473318Y-3133344D01*
X5463159Y-3138423D01*
X5452745Y-3148837D01*
X5447411Y-3159252D01*
X5408040Y-3216402D02*
G01*
X5408040Y-3221481D01*
X5402706Y-3231895D01*
X5397627Y-3237229D01*
X5387213Y-3242310D01*
X5366384Y-3242310D01*
X5355970Y-3237229D01*
X5350890Y-3231895D01*
X5345556Y-3221481D01*
X5345556Y-3211068D01*
X5350890Y-3200654D01*
X5361304Y-3185160D01*
X5413120Y-3133344D01*
X5340477Y-3133344D01*
X5295772Y-3242310D02*
G01*
X5238622Y-3242310D01*
X5269865Y-3200654D01*
X5254116Y-3200654D01*
X5243702Y-3195573D01*
X5238622Y-3190494D01*
X5233288Y-3174745D01*
X5233288Y-3164331D01*
X5238622Y-3148837D01*
X5249036Y-3138423D01*
X5264531Y-3133344D01*
X5280279Y-3133344D01*
X5295772Y-3138423D01*
X5300852Y-3143504D01*
X5306186Y-3153918D01*
X5447411Y-4716398D02*
G01*
X5452745Y-4726812D01*
X5463159Y-4737227D01*
X5473318Y-4742306D01*
X5494147Y-4742306D01*
X5504561Y-4737227D01*
X5514975Y-4726812D01*
X5520309Y-4716398D01*
X5525388Y-4700651D01*
X5525388Y-4674743D01*
X5520309Y-4659248D01*
X5514975Y-4648835D01*
X5504561Y-4638420D01*
X5494147Y-4633340D01*
X5473318Y-4633340D01*
X5463159Y-4638420D01*
X5452745Y-4648835D01*
X5447411Y-4659248D01*
X5408040Y-4716398D02*
G01*
X5408040Y-4721479D01*
X5402706Y-4731893D01*
X5397627Y-4737227D01*
X5387213Y-4742306D01*
X5366384Y-4742306D01*
X5355970Y-4737227D01*
X5350890Y-4731893D01*
X5345556Y-4721479D01*
X5345556Y-4711064D01*
X5350890Y-4700651D01*
X5361304Y-4685156D01*
X5413120Y-4633340D01*
X5340477Y-4633340D01*
X5254116Y-4742306D02*
G01*
X5306186Y-4669662D01*
X5228209Y-4669662D01*
X5254116Y-4742306D02*
G01*
X5254116Y-4633340D01*
X5447411Y-6216395D02*
G01*
X5452745Y-6226810D01*
X5463159Y-6237223D01*
X5473318Y-6242304D01*
X5494147Y-6242304D01*
X5504561Y-6237223D01*
X5514975Y-6226810D01*
X5520309Y-6216395D01*
X5525388Y-6200647D01*
X5525388Y-6174739D01*
X5520309Y-6159245D01*
X5514975Y-6148831D01*
X5504561Y-6138418D01*
X5494147Y-6133337D01*
X5473318Y-6133337D01*
X5463159Y-6138418D01*
X5452745Y-6148831D01*
X5447411Y-6159245D01*
X5408040Y-6216395D02*
G01*
X5408040Y-6221476D01*
X5402706Y-6231889D01*
X5397627Y-6237223D01*
X5387213Y-6242304D01*
X5366384Y-6242304D01*
X5355970Y-6237223D01*
X5350890Y-6231889D01*
X5345556Y-6221476D01*
X5345556Y-6211062D01*
X5350890Y-6200647D01*
X5361304Y-6185154D01*
X5413120Y-6133337D01*
X5340477Y-6133337D01*
X5243702Y-6242304D02*
G01*
X5295772Y-6242304D01*
X5300852Y-6195568D01*
X5295772Y-6200647D01*
X5280279Y-6205981D01*
X5264531Y-6205981D01*
X5249036Y-6200647D01*
X5238622Y-6190487D01*
X5233288Y-6174739D01*
X5233288Y-6164326D01*
X5238622Y-6148831D01*
X5249036Y-6138418D01*
X5264531Y-6133337D01*
X5280279Y-6133337D01*
X5295772Y-6138418D01*
X5300852Y-6143497D01*
X5306186Y-6153912D01*
X5447411Y-7716393D02*
G01*
X5452745Y-7726806D01*
X5463159Y-7737220D01*
X5473318Y-7742301D01*
X5494147Y-7742301D01*
X5504561Y-7737220D01*
X5514975Y-7726806D01*
X5520309Y-7716393D01*
X5525388Y-7700645D01*
X5525388Y-7674737D01*
X5520309Y-7659243D01*
X5514975Y-7648829D01*
X5504561Y-7638414D01*
X5494147Y-7633335D01*
X5473318Y-7633335D01*
X5463159Y-7638414D01*
X5452745Y-7648829D01*
X5447411Y-7659243D01*
X5408040Y-7716393D02*
G01*
X5408040Y-7721472D01*
X5402706Y-7731887D01*
X5397627Y-7737220D01*
X5387213Y-7742301D01*
X5366384Y-7742301D01*
X5355970Y-7737220D01*
X5350890Y-7731887D01*
X5345556Y-7721472D01*
X5345556Y-7711059D01*
X5350890Y-7700645D01*
X5361304Y-7685151D01*
X5413120Y-7633335D01*
X5340477Y-7633335D01*
X5243702Y-7726806D02*
G01*
X5249036Y-7737220D01*
X5264531Y-7742301D01*
X5274945Y-7742301D01*
X5290438Y-7737220D01*
X5300852Y-7721472D01*
X5306186Y-7695564D01*
X5306186Y-7669656D01*
X5300852Y-7648829D01*
X5290438Y-7638414D01*
X5274945Y-7633335D01*
X5269865Y-7633335D01*
X5254116Y-7638414D01*
X5243702Y-7648829D01*
X5238622Y-7664322D01*
X5238622Y-7669656D01*
X5243702Y-7685151D01*
X5254116Y-7695564D01*
X5269865Y-7700645D01*
X5274945Y-7700645D01*
X5290438Y-7695564D01*
X5300852Y-7685151D01*
X5306186Y-7669656D01*
X5447411Y-9216389D02*
G01*
X5452745Y-9226804D01*
X5463159Y-9237218D01*
X5473318Y-9242297D01*
X5494147Y-9242297D01*
X5504561Y-9237218D01*
X5514975Y-9226804D01*
X5520309Y-9216389D01*
X5525388Y-9200642D01*
X5525388Y-9174734D01*
X5520309Y-9159239D01*
X5514975Y-9148826D01*
X5504561Y-9138412D01*
X5494147Y-9133331D01*
X5473318Y-9133331D01*
X5463159Y-9138412D01*
X5452745Y-9148826D01*
X5447411Y-9159239D01*
X5408040Y-9216389D02*
G01*
X5408040Y-9221470D01*
X5402706Y-9231884D01*
X5397627Y-9237218D01*
X5387213Y-9242297D01*
X5366384Y-9242297D01*
X5355970Y-9237218D01*
X5350890Y-9231884D01*
X5345556Y-9221470D01*
X5345556Y-9211055D01*
X5350890Y-9200642D01*
X5361304Y-9185147D01*
X5413120Y-9133331D01*
X5340477Y-9133331D01*
X5233288Y-9242297D02*
G01*
X5285359Y-9133331D01*
X5306186Y-9242297D02*
G01*
X5233288Y-9242297D01*
X5447411Y-10716387D02*
G01*
X5452745Y-10726801D01*
X5463159Y-10737214D01*
X5473318Y-10742295D01*
X5494147Y-10742295D01*
X5504561Y-10737214D01*
X5514975Y-10726801D01*
X5520309Y-10716387D01*
X5525388Y-10700638D01*
X5525388Y-10674730D01*
X5520309Y-10659237D01*
X5514975Y-10648822D01*
X5504561Y-10638409D01*
X5494147Y-10633329D01*
X5473318Y-10633329D01*
X5463159Y-10638409D01*
X5452745Y-10648822D01*
X5447411Y-10659237D01*
X5408040Y-10716387D02*
G01*
X5408040Y-10721467D01*
X5402706Y-10731880D01*
X5397627Y-10737214D01*
X5387213Y-10742295D01*
X5366384Y-10742295D01*
X5355970Y-10737214D01*
X5350890Y-10731880D01*
X5345556Y-10721467D01*
X5345556Y-10711053D01*
X5350890Y-10700638D01*
X5361304Y-10685145D01*
X5413120Y-10633329D01*
X5340477Y-10633329D01*
X5280279Y-10742295D02*
G01*
X5295772Y-10737214D01*
X5300852Y-10726801D01*
X5300852Y-10716387D01*
X5295772Y-10705972D01*
X5285359Y-10700638D01*
X5264531Y-10695559D01*
X5249036Y-10690479D01*
X5238622Y-10680064D01*
X5233288Y-10669651D01*
X5233288Y-10653903D01*
X5238622Y-10643488D01*
X5243702Y-10638409D01*
X5259450Y-10633329D01*
X5280279Y-10633329D01*
X5295772Y-10638409D01*
X5300852Y-10643488D01*
X5306186Y-10653903D01*
X5306186Y-10669651D01*
X5300852Y-10680064D01*
X5290438Y-10690479D01*
X5274945Y-10695559D01*
X5254116Y-10700638D01*
X5243702Y-10705972D01*
X5238622Y-10716387D01*
X5238622Y-10726801D01*
X5243702Y-10737214D01*
X5259450Y-10742295D01*
X5280279Y-10742295D01*
X976121Y-603757D02*
G01*
X976121Y-712978D01*
X976121Y-712978D02*
G01*
X1038352Y-712978D01*
X1072642Y-624586D02*
G01*
X1083055Y-619505D01*
X1098550Y-603757D01*
X1098550Y-712978D01*
X976121Y-2103881D02*
G01*
X976121Y-2212847D01*
X976121Y-2212847D02*
G01*
X1038352Y-2212847D01*
X1077721Y-2129789D02*
G01*
X1077721Y-2124710D01*
X1083055Y-2114295D01*
X1088136Y-2108962D01*
X1098550Y-2103881D01*
X1119378Y-2103881D01*
X1129792Y-2108962D01*
X1134871Y-2114295D01*
X1140205Y-2124710D01*
X1140205Y-2135123D01*
X1134871Y-2145284D01*
X1124712Y-2161031D01*
X1072642Y-2212847D01*
X1145286Y-2212847D01*
X976121Y-3603752D02*
G01*
X976121Y-3712971D01*
X976121Y-3712971D02*
G01*
X1038352Y-3712971D01*
X1083055Y-3603752D02*
G01*
X1140205Y-3603752D01*
X1108963Y-3645407D01*
X1124712Y-3645407D01*
X1134871Y-3650487D01*
X1140205Y-3655821D01*
X1145286Y-3671315D01*
X1145286Y-3681729D01*
X1140205Y-3697478D01*
X1129792Y-3707637D01*
X1114297Y-3712971D01*
X1098550Y-3712971D01*
X1083055Y-3707637D01*
X1077721Y-3702557D01*
X1072642Y-3692144D01*
X976121Y-5103876D02*
G01*
X976121Y-5212842D01*
X976121Y-5212842D02*
G01*
X1038352Y-5212842D01*
X1124712Y-5103876D02*
G01*
X1072642Y-5176520D01*
X1150620Y-5176520D01*
X1124712Y-5103876D02*
G01*
X1124712Y-5212842D01*
X976121Y-6603745D02*
G01*
X976121Y-6712965D01*
X976121Y-6712965D02*
G01*
X1038352Y-6712965D01*
X1134871Y-6603745D02*
G01*
X1083055Y-6603745D01*
X1077721Y-6650481D01*
X1083055Y-6645402D01*
X1098550Y-6640321D01*
X1114297Y-6640321D01*
X1129792Y-6645402D01*
X1140205Y-6655815D01*
X1145286Y-6671310D01*
X1145286Y-6681723D01*
X1140205Y-6697471D01*
X1129792Y-6707631D01*
X1114297Y-6712965D01*
X1098550Y-6712965D01*
X1083055Y-6707631D01*
X1077721Y-6702552D01*
X1072642Y-6692137D01*
X976121Y-8103870D02*
G01*
X976121Y-8212836D01*
X976121Y-8212836D02*
G01*
X1038352Y-8212836D01*
X1134871Y-8119363D02*
G01*
X1129792Y-8108950D01*
X1114297Y-8103870D01*
X1103884Y-8103870D01*
X1088136Y-8108950D01*
X1077721Y-8124697D01*
X1072642Y-8150605D01*
X1072642Y-8176513D01*
X1077721Y-8197342D01*
X1088136Y-8207755D01*
X1103884Y-8212836D01*
X1108963Y-8212836D01*
X1124712Y-8207755D01*
X1134871Y-8197342D01*
X1140205Y-8181847D01*
X1140205Y-8176513D01*
X1134871Y-8161020D01*
X1124712Y-8150605D01*
X1108963Y-8145271D01*
X1103884Y-8145271D01*
X1088136Y-8150605D01*
X1077721Y-8161020D01*
X1072642Y-8176513D01*
X976121Y-9603739D02*
G01*
X976121Y-9712960D01*
X976121Y-9712960D02*
G01*
X1038352Y-9712960D01*
X1145286Y-9603739D02*
G01*
X1093470Y-9712960D01*
X1072642Y-9603739D02*
G01*
X1145286Y-9603739D01*
X2475991Y-603757D02*
G01*
X2475991Y-712978D01*
X2475991Y-712978D02*
G01*
X2538222Y-712978D01*
X2598674Y-603757D02*
G01*
X2582925Y-609092D01*
X2577845Y-619505D01*
X2577845Y-629920D01*
X2582925Y-640334D01*
X2593340Y-645413D01*
X2614168Y-650494D01*
X2629661Y-655828D01*
X2640075Y-666242D01*
X2645409Y-676655D01*
X2645409Y-692150D01*
X2640075Y-702563D01*
X2634995Y-707644D01*
X2619502Y-712978D01*
X2598674Y-712978D01*
X2582925Y-707644D01*
X2577845Y-702563D01*
X2572511Y-692150D01*
X2572511Y-676655D01*
X2577845Y-666242D01*
X2588259Y-655828D01*
X2603754Y-650494D01*
X2624581Y-645413D01*
X2634995Y-640334D01*
X2640075Y-629920D01*
X2640075Y-619505D01*
X2634995Y-609092D01*
X2619502Y-603757D01*
X2598674Y-603757D01*
X2475991Y-2103881D02*
G01*
X2475991Y-2212847D01*
X2475991Y-2212847D02*
G01*
X2538222Y-2212847D01*
X2640075Y-2140204D02*
G01*
X2634995Y-2155697D01*
X2624581Y-2166112D01*
X2609088Y-2171445D01*
X2603754Y-2171445D01*
X2588259Y-2166112D01*
X2577845Y-2155697D01*
X2572511Y-2140204D01*
X2572511Y-2135123D01*
X2577845Y-2119376D01*
X2588259Y-2108962D01*
X2603754Y-2103881D01*
X2609088Y-2103881D01*
X2624581Y-2108962D01*
X2634995Y-2119376D01*
X2640075Y-2140204D01*
X2640075Y-2166112D01*
X2634995Y-2192273D01*
X2624581Y-2207768D01*
X2609088Y-2212847D01*
X2598674Y-2212847D01*
X2582925Y-2207768D01*
X2577845Y-2197354D01*
X2475999Y-3603863D02*
G01*
X2475999Y-3713083D01*
X2475999Y-3713083D02*
G01*
X2538229Y-3713083D01*
X2572519Y-3624691D02*
G01*
X2582933Y-3619611D01*
X2598427Y-3603863D01*
X2598427Y-3713083D01*
X2663959Y-3603863D02*
G01*
X2648465Y-3609197D01*
X2638051Y-3624691D01*
X2632717Y-3650599D01*
X2632717Y-3666347D01*
X2638051Y-3692255D01*
X2648465Y-3707749D01*
X2663959Y-3713083D01*
X2674373Y-3713083D01*
X2689867Y-3707749D01*
X2700281Y-3692255D01*
X2705615Y-3666347D01*
X2705615Y-3650599D01*
X2700281Y-3624691D01*
X2689867Y-3609197D01*
X2674373Y-3603863D01*
X2663959Y-3603863D01*
X2475999Y-5103860D02*
G01*
X2475999Y-5212826D01*
X2475999Y-5212826D02*
G01*
X2538483Y-5212826D01*
X2572773Y-5124688D02*
G01*
X2583187Y-5119354D01*
X2598681Y-5103860D01*
X2598681Y-5212826D01*
X2632971Y-5124688D02*
G01*
X2643385Y-5119354D01*
X2658879Y-5103860D01*
X2658879Y-5212826D01*
X2475999Y-6603857D02*
G01*
X2475999Y-6712823D01*
X2475999Y-6712823D02*
G01*
X2538483Y-6712823D01*
X2572773Y-6624685D02*
G01*
X2583187Y-6619351D01*
X2598681Y-6603857D01*
X2598681Y-6712823D01*
X2638051Y-6629765D02*
G01*
X2638051Y-6624685D01*
X2643385Y-6614271D01*
X2648465Y-6608937D01*
X2658879Y-6603857D01*
X2679707Y-6603857D01*
X2690121Y-6608937D01*
X2695201Y-6614271D01*
X2700535Y-6624685D01*
X2700535Y-6635099D01*
X2695201Y-6645513D01*
X2685041Y-6661007D01*
X2632971Y-6712823D01*
X2705615Y-6712823D01*
X2475999Y-8103854D02*
G01*
X2475999Y-8212820D01*
X2475999Y-8212820D02*
G01*
X2538483Y-8212820D01*
X2572773Y-8124682D02*
G01*
X2583187Y-8119348D01*
X2598681Y-8103854D01*
X2598681Y-8212820D01*
X2643385Y-8103854D02*
G01*
X2700535Y-8103854D01*
X2669293Y-8145510D01*
X2685041Y-8145510D01*
X2695201Y-8150590D01*
X2700535Y-8155670D01*
X2705615Y-8171418D01*
X2705615Y-8181832D01*
X2700535Y-8197326D01*
X2690121Y-8207740D01*
X2674627Y-8212820D01*
X2658879Y-8212820D01*
X2643385Y-8207740D01*
X2638051Y-8202660D01*
X2632971Y-8192246D01*
X2475999Y-9603851D02*
G01*
X2475999Y-9712817D01*
X2475999Y-9712817D02*
G01*
X2538483Y-9712817D01*
X2572773Y-9624679D02*
G01*
X2583187Y-9619345D01*
X2598681Y-9603851D01*
X2598681Y-9712817D01*
X2685041Y-9603851D02*
G01*
X2632971Y-9676495D01*
X2710949Y-9676495D01*
X2685041Y-9603851D02*
G01*
X2685041Y-9712817D01*
X3975996Y-603869D02*
G01*
X3975996Y-712835D01*
X3975996Y-712835D02*
G01*
X4038480Y-712835D01*
X4072770Y-624697D02*
G01*
X4083184Y-619363D01*
X4098678Y-603869D01*
X4098678Y-712835D01*
X4195198Y-603869D02*
G01*
X4143382Y-603869D01*
X4138048Y-650605D01*
X4143382Y-645525D01*
X4158876Y-640191D01*
X4174624Y-640191D01*
X4190118Y-645525D01*
X4200532Y-655685D01*
X4205612Y-671433D01*
X4205612Y-681847D01*
X4200532Y-697341D01*
X4190118Y-707755D01*
X4174624Y-712835D01*
X4158876Y-712835D01*
X4143382Y-707755D01*
X4138048Y-702675D01*
X4132968Y-692261D01*
X3975996Y-2103866D02*
G01*
X3975996Y-2212832D01*
X3975996Y-2212832D02*
G01*
X4038480Y-2212832D01*
X4072770Y-2124694D02*
G01*
X4083184Y-2119360D01*
X4098678Y-2103866D01*
X4098678Y-2212832D01*
X4195198Y-2119360D02*
G01*
X4190118Y-2108946D01*
X4174624Y-2103866D01*
X4164210Y-2103866D01*
X4148462Y-2108946D01*
X4138048Y-2124694D01*
X4132968Y-2150602D01*
X4132968Y-2176510D01*
X4138048Y-2197338D01*
X4148462Y-2207752D01*
X4164210Y-2212832D01*
X4169290Y-2212832D01*
X4185038Y-2207752D01*
X4195198Y-2197338D01*
X4200532Y-2181844D01*
X4200532Y-2176510D01*
X4195198Y-2161016D01*
X4185038Y-2150602D01*
X4169290Y-2145522D01*
X4164210Y-2145522D01*
X4148462Y-2150602D01*
X4138048Y-2161016D01*
X4132968Y-2176510D01*
X3975996Y-3603863D02*
G01*
X3975996Y-3712829D01*
X3975996Y-3712829D02*
G01*
X4038480Y-3712829D01*
X4072770Y-3624691D02*
G01*
X4083184Y-3619357D01*
X4098678Y-3603863D01*
X4098678Y-3712829D01*
X4205612Y-3603863D02*
G01*
X4153796Y-3712829D01*
X4132968Y-3603863D02*
G01*
X4205612Y-3603863D01*
X3975996Y-5103860D02*
G01*
X3975996Y-5212826D01*
X3975996Y-5212826D02*
G01*
X4038480Y-5212826D01*
X4072770Y-5124688D02*
G01*
X4083184Y-5119354D01*
X4098678Y-5103860D01*
X4098678Y-5212826D01*
X4158876Y-5103860D02*
G01*
X4143382Y-5108940D01*
X4138048Y-5119354D01*
X4138048Y-5129768D01*
X4143382Y-5140182D01*
X4153796Y-5145516D01*
X4174624Y-5150596D01*
X4190118Y-5155676D01*
X4200532Y-5166090D01*
X4205612Y-5176504D01*
X4205612Y-5192252D01*
X4200532Y-5202666D01*
X4195198Y-5207746D01*
X4179704Y-5212826D01*
X4158876Y-5212826D01*
X4143382Y-5207746D01*
X4138048Y-5202666D01*
X4132968Y-5192252D01*
X4132968Y-5176504D01*
X4138048Y-5166090D01*
X4148462Y-5155676D01*
X4164210Y-5150596D01*
X4185038Y-5145516D01*
X4195198Y-5140182D01*
X4200532Y-5129768D01*
X4200532Y-5119354D01*
X4195198Y-5108940D01*
X4179704Y-5103860D01*
X4158876Y-5103860D01*
X3975996Y-6603857D02*
G01*
X3975996Y-6712823D01*
X3975996Y-6712823D02*
G01*
X4038480Y-6712823D01*
X4072770Y-6624685D02*
G01*
X4083184Y-6619351D01*
X4098678Y-6603857D01*
X4098678Y-6712823D01*
X4200532Y-6640179D02*
G01*
X4195198Y-6655673D01*
X4185038Y-6666087D01*
X4169290Y-6671421D01*
X4164210Y-6671421D01*
X4148462Y-6666087D01*
X4138048Y-6655673D01*
X4132968Y-6640179D01*
X4132968Y-6635099D01*
X4138048Y-6619351D01*
X4148462Y-6608937D01*
X4164210Y-6603857D01*
X4169290Y-6603857D01*
X4185038Y-6608937D01*
X4195198Y-6619351D01*
X4200532Y-6640179D01*
X4200532Y-6666087D01*
X4195198Y-6692249D01*
X4185038Y-6707743D01*
X4169290Y-6712823D01*
X4158876Y-6712823D01*
X4143382Y-6707743D01*
X4138048Y-6697329D01*
X3975996Y-8103854D02*
G01*
X3975996Y-8212820D01*
X3975996Y-8212820D02*
G01*
X4038480Y-8212820D01*
X4077850Y-8129762D02*
G01*
X4077850Y-8124682D01*
X4083184Y-8114268D01*
X4088264Y-8108934D01*
X4098678Y-8103854D01*
X4119506Y-8103854D01*
X4129920Y-8108934D01*
X4135000Y-8114268D01*
X4140334Y-8124682D01*
X4140334Y-8135096D01*
X4135000Y-8145510D01*
X4124586Y-8161004D01*
X4072770Y-8212820D01*
X4145414Y-8212820D01*
X4210946Y-8103854D02*
G01*
X4195198Y-8108934D01*
X4185038Y-8124682D01*
X4179704Y-8150590D01*
X4179704Y-8166084D01*
X4185038Y-8192246D01*
X4195198Y-8207740D01*
X4210946Y-8212820D01*
X4221360Y-8212820D01*
X4236854Y-8207740D01*
X4247268Y-8192246D01*
X4252348Y-8166084D01*
X4252348Y-8150590D01*
X4247268Y-8124682D01*
X4236854Y-8108934D01*
X4221360Y-8103854D01*
X4210946Y-8103854D01*
X3975996Y-9603851D02*
G01*
X3975996Y-9712817D01*
X3975996Y-9712817D02*
G01*
X4038480Y-9712817D01*
X4077850Y-9629759D02*
G01*
X4077850Y-9624679D01*
X4083184Y-9614265D01*
X4088264Y-9608931D01*
X4098678Y-9603851D01*
X4119506Y-9603851D01*
X4129920Y-9608931D01*
X4135000Y-9614265D01*
X4140334Y-9624679D01*
X4140334Y-9635093D01*
X4135000Y-9645507D01*
X4124586Y-9661001D01*
X4072770Y-9712817D01*
X4145414Y-9712817D01*
X4179704Y-9624679D02*
G01*
X4190118Y-9619345D01*
X4205612Y-9603851D01*
X4205612Y-9712817D01*
X5475993Y-603869D02*
G01*
X5475993Y-712835D01*
X5475993Y-712835D02*
G01*
X5538477Y-712835D01*
X5577847Y-629777D02*
G01*
X5577847Y-624697D01*
X5583181Y-614283D01*
X5588261Y-608949D01*
X5598675Y-603869D01*
X5619503Y-603869D01*
X5629917Y-608949D01*
X5634997Y-614283D01*
X5640331Y-624697D01*
X5640331Y-635111D01*
X5634997Y-645525D01*
X5624583Y-661019D01*
X5572767Y-712835D01*
X5645411Y-712835D01*
X5685035Y-629777D02*
G01*
X5685035Y-624697D01*
X5690115Y-614283D01*
X5695195Y-608949D01*
X5705609Y-603869D01*
X5726437Y-603869D01*
X5736851Y-608949D01*
X5742185Y-614283D01*
X5747265Y-624697D01*
X5747265Y-635111D01*
X5742185Y-645525D01*
X5731771Y-661019D01*
X5679701Y-712835D01*
X5752345Y-712835D01*
X5475993Y-2103866D02*
G01*
X5475993Y-2212832D01*
X5475993Y-2212832D02*
G01*
X5538477Y-2212832D01*
X5577847Y-2129774D02*
G01*
X5577847Y-2124694D01*
X5583181Y-2114280D01*
X5588261Y-2108946D01*
X5598675Y-2103866D01*
X5619503Y-2103866D01*
X5629917Y-2108946D01*
X5634997Y-2114280D01*
X5640331Y-2124694D01*
X5640331Y-2135108D01*
X5634997Y-2145522D01*
X5624583Y-2161016D01*
X5572767Y-2212832D01*
X5645411Y-2212832D01*
X5690115Y-2103866D02*
G01*
X5747265Y-2103866D01*
X5716023Y-2145522D01*
X5731771Y-2145522D01*
X5742185Y-2150602D01*
X5747265Y-2155682D01*
X5752345Y-2171430D01*
X5752345Y-2181844D01*
X5747265Y-2197338D01*
X5736851Y-2207752D01*
X5721357Y-2212832D01*
X5705609Y-2212832D01*
X5690115Y-2207752D01*
X5685035Y-2202672D01*
X5679701Y-2192258D01*
X5475993Y-3603863D02*
G01*
X5475993Y-3712829D01*
X5475993Y-3712829D02*
G01*
X5538477Y-3712829D01*
X5577847Y-3629771D02*
G01*
X5577847Y-3624691D01*
X5583181Y-3614277D01*
X5588261Y-3608943D01*
X5598675Y-3603863D01*
X5619503Y-3603863D01*
X5629917Y-3608943D01*
X5634997Y-3614277D01*
X5640331Y-3624691D01*
X5640331Y-3635105D01*
X5634997Y-3645519D01*
X5624583Y-3661013D01*
X5572767Y-3712829D01*
X5645411Y-3712829D01*
X5731771Y-3603863D02*
G01*
X5679701Y-3676507D01*
X5757679Y-3676507D01*
X5731771Y-3603863D02*
G01*
X5731771Y-3712829D01*
X5475993Y-5103860D02*
G01*
X5475993Y-5212826D01*
X5475993Y-5212826D02*
G01*
X5538477Y-5212826D01*
X5577847Y-5129768D02*
G01*
X5577847Y-5124688D01*
X5583181Y-5114274D01*
X5588261Y-5108940D01*
X5598675Y-5103860D01*
X5619503Y-5103860D01*
X5629917Y-5108940D01*
X5634997Y-5114274D01*
X5640331Y-5124688D01*
X5640331Y-5135102D01*
X5634997Y-5145516D01*
X5624583Y-5161010D01*
X5572767Y-5212826D01*
X5645411Y-5212826D01*
X5742185Y-5103860D02*
G01*
X5690115Y-5103860D01*
X5685035Y-5150596D01*
X5690115Y-5145516D01*
X5705609Y-5140182D01*
X5721357Y-5140182D01*
X5736851Y-5145516D01*
X5747265Y-5155676D01*
X5752345Y-5171424D01*
X5752345Y-5181838D01*
X5747265Y-5197332D01*
X5736851Y-5207746D01*
X5721357Y-5212826D01*
X5705609Y-5212826D01*
X5690115Y-5207746D01*
X5685035Y-5202666D01*
X5679701Y-5192252D01*
X5475993Y-6603857D02*
G01*
X5475993Y-6712823D01*
X5475993Y-6712823D02*
G01*
X5538477Y-6712823D01*
X5577847Y-6629765D02*
G01*
X5577847Y-6624685D01*
X5583181Y-6614271D01*
X5588261Y-6608937D01*
X5598675Y-6603857D01*
X5619503Y-6603857D01*
X5629917Y-6608937D01*
X5634997Y-6614271D01*
X5640331Y-6624685D01*
X5640331Y-6635099D01*
X5634997Y-6645513D01*
X5624583Y-6661007D01*
X5572767Y-6712823D01*
X5645411Y-6712823D01*
X5742185Y-6619351D02*
G01*
X5736851Y-6608937D01*
X5721357Y-6603857D01*
X5710943Y-6603857D01*
X5695195Y-6608937D01*
X5685035Y-6624685D01*
X5679701Y-6650593D01*
X5679701Y-6676501D01*
X5685035Y-6697329D01*
X5695195Y-6707743D01*
X5710943Y-6712823D01*
X5716023Y-6712823D01*
X5731771Y-6707743D01*
X5742185Y-6697329D01*
X5747265Y-6681835D01*
X5747265Y-6676501D01*
X5742185Y-6661007D01*
X5731771Y-6650593D01*
X5716023Y-6645513D01*
X5710943Y-6645513D01*
X5695195Y-6650593D01*
X5685035Y-6661007D01*
X5679701Y-6676501D01*
X5475993Y-8103854D02*
G01*
X5475993Y-8212820D01*
X5475993Y-8212820D02*
G01*
X5538477Y-8212820D01*
X5577847Y-8129762D02*
G01*
X5577847Y-8124682D01*
X5583181Y-8114268D01*
X5588261Y-8108934D01*
X5598675Y-8103854D01*
X5619503Y-8103854D01*
X5629917Y-8108934D01*
X5634997Y-8114268D01*
X5640331Y-8124682D01*
X5640331Y-8135096D01*
X5634997Y-8145510D01*
X5624583Y-8161004D01*
X5572767Y-8212820D01*
X5645411Y-8212820D01*
X5752345Y-8103854D02*
G01*
X5700529Y-8212820D01*
X5679701Y-8103854D02*
G01*
X5752345Y-8103854D01*
X5475993Y-9603851D02*
G01*
X5475993Y-9712817D01*
X5475993Y-9712817D02*
G01*
X5538477Y-9712817D01*
X5577847Y-9629759D02*
G01*
X5577847Y-9624679D01*
X5583181Y-9614265D01*
X5588261Y-9608931D01*
X5598675Y-9603851D01*
X5619503Y-9603851D01*
X5629917Y-9608931D01*
X5634997Y-9614265D01*
X5640331Y-9624679D01*
X5640331Y-9635093D01*
X5634997Y-9645507D01*
X5624583Y-9661001D01*
X5572767Y-9712817D01*
X5645411Y-9712817D01*
X5705609Y-9603851D02*
G01*
X5690115Y-9608931D01*
X5685035Y-9619345D01*
X5685035Y-9629759D01*
X5690115Y-9640173D01*
X5700529Y-9645507D01*
X5721357Y-9650587D01*
X5736851Y-9655667D01*
X5747265Y-9666081D01*
X5752345Y-9676495D01*
X5752345Y-9692243D01*
X5747265Y-9702657D01*
X5742185Y-9707737D01*
X5726437Y-9712817D01*
X5705609Y-9712817D01*
X5690115Y-9707737D01*
X5685035Y-9702657D01*
X5679701Y-9692243D01*
X5679701Y-9676495D01*
X5685035Y-9666081D01*
X5695195Y-9655667D01*
X5710943Y-9650587D01*
X5731771Y-9645507D01*
X5742185Y-9640173D01*
X5747265Y-9629759D01*
X5747265Y-9619345D01*
X5742185Y-9608931D01*
X5726437Y-9603851D01*
X5705609Y-9603851D01*
G36*
X7203186Y-1398371D02*
G01*
X7203186Y-1601571D01*
X7241286Y-1601571D01*
X7241286Y-1398371D01*
G37*
G36*
X7203186Y-2898394D02*
G01*
X7203186Y-3101594D01*
X7241286Y-3101594D01*
X7241286Y-2898394D01*
G37*
G36*
X7203186Y-4398365D02*
G01*
X7203186Y-4601565D01*
X7241286Y-4601565D01*
X7241286Y-4398365D01*
G37*
G36*
X7203186Y-5898388D02*
G01*
X7203186Y-6101588D01*
X7241286Y-6101588D01*
X7241286Y-5898388D01*
G37*
G36*
X7203186Y-7398410D02*
G01*
X7203186Y-7601610D01*
X7241286Y-7601610D01*
X7241286Y-7398410D01*
G37*
G36*
X7203186Y-8898382D02*
G01*
X7203186Y-9101582D01*
X7241286Y-9101582D01*
X7241286Y-8898382D01*
G37*
G36*
X7203186Y-10398404D02*
G01*
X7203186Y-10601604D01*
X7241286Y-10601604D01*
X7241286Y-10398404D01*
G37*
G36*
X8703208Y-1398371D02*
G01*
X8703208Y-1601571D01*
X8741308Y-1601571D01*
X8741308Y-1398371D01*
G37*
G36*
X8703208Y-2898394D02*
G01*
X8703208Y-3101594D01*
X8741308Y-3101594D01*
X8741308Y-2898394D01*
G37*
G36*
X8703208Y-4398365D02*
G01*
X8703208Y-4601565D01*
X8741308Y-4601565D01*
X8741308Y-4398365D01*
G37*
G36*
X8703208Y-5898388D02*
G01*
X8703208Y-6101588D01*
X8741308Y-6101588D01*
X8741308Y-5898388D01*
G37*
G36*
X8703208Y-7398410D02*
G01*
X8703208Y-7601610D01*
X8741308Y-7601610D01*
X8741308Y-7398410D01*
G37*
G36*
X8703208Y-8898382D02*
G01*
X8703208Y-9101582D01*
X8741308Y-9101582D01*
X8741308Y-8898382D01*
G37*
G36*
X8703208Y-10398404D02*
G01*
X8703208Y-10601604D01*
X8741308Y-10601604D01*
X8741308Y-10398404D01*
G37*
G36*
X10203180Y-1398371D02*
G01*
X10203180Y-1601571D01*
X10241280Y-1601571D01*
X10241280Y-1398371D01*
G37*
G36*
X10203180Y-2898394D02*
G01*
X10203180Y-3101594D01*
X10241280Y-3101594D01*
X10241280Y-2898394D01*
G37*
G36*
X10203180Y-4398365D02*
G01*
X10203180Y-4601565D01*
X10241280Y-4601565D01*
X10241280Y-4398365D01*
G37*
G36*
X10203180Y-5898388D02*
G01*
X10203180Y-6101588D01*
X10241280Y-6101588D01*
X10241280Y-5898388D01*
G37*
G36*
X10203180Y-7398410D02*
G01*
X10203180Y-7601610D01*
X10241280Y-7601610D01*
X10241280Y-7398410D01*
G37*
G36*
X10203180Y-8898382D02*
G01*
X10203180Y-9101582D01*
X10241280Y-9101582D01*
X10241280Y-8898382D01*
G37*
G36*
X10203180Y-10398404D02*
G01*
X10203180Y-10601604D01*
X10241280Y-10601604D01*
X10241280Y-10398404D01*
G37*
G36*
X11703202Y-1398371D02*
G01*
X11703202Y-1601571D01*
X11741302Y-1601571D01*
X11741302Y-1398371D01*
G37*
G36*
X11703202Y-2898394D02*
G01*
X11703202Y-3101594D01*
X11741302Y-3101594D01*
X11741302Y-2898394D01*
G37*
G36*
X11703202Y-4398365D02*
G01*
X11703202Y-4601565D01*
X11741302Y-4601565D01*
X11741302Y-4398365D01*
G37*
G36*
X11703202Y-5898388D02*
G01*
X11703202Y-6101588D01*
X11741302Y-6101588D01*
X11741302Y-5898388D01*
G37*
G36*
X11703202Y-7398410D02*
G01*
X11703202Y-7601610D01*
X11741302Y-7601610D01*
X11741302Y-7398410D01*
G37*
G36*
X11703202Y-8898382D02*
G01*
X11703202Y-9101582D01*
X11741302Y-9101582D01*
X11741302Y-8898382D01*
G37*
G36*
X11703202Y-10398404D02*
G01*
X11703202Y-10601604D01*
X11741302Y-10601604D01*
X11741302Y-10398404D01*
G37*
G36*
X13203174Y-1398371D02*
G01*
X13203174Y-1601571D01*
X13241274Y-1601571D01*
X13241274Y-1398371D01*
G37*
G36*
X13203174Y-2898394D02*
G01*
X13203174Y-3101594D01*
X13241274Y-3101594D01*
X13241274Y-2898394D01*
G37*
G36*
X13203174Y-4398365D02*
G01*
X13203174Y-4601565D01*
X13241274Y-4601565D01*
X13241274Y-4398365D01*
G37*
G36*
X13203174Y-5898388D02*
G01*
X13203174Y-6101588D01*
X13241274Y-6101588D01*
X13241274Y-5898388D01*
G37*
G36*
X13203174Y-7398410D02*
G01*
X13203174Y-7601610D01*
X13241274Y-7601610D01*
X13241274Y-7398410D01*
G37*
G36*
X13203174Y-8898382D02*
G01*
X13203174Y-9101582D01*
X13241274Y-9101582D01*
X13241274Y-8898382D01*
G37*
G36*
X13203174Y-10398404D02*
G01*
X13203174Y-10601604D01*
X13241274Y-10601604D01*
X13241274Y-10398404D01*
G37*
G36*
X14703145Y-1398371D02*
G01*
X14703145Y-1601571D01*
X14741245Y-1601571D01*
X14741245Y-1398371D01*
G37*
G36*
X14703145Y-2898394D02*
G01*
X14703145Y-3101594D01*
X14741245Y-3101594D01*
X14741245Y-2898394D01*
G37*
G36*
X14703145Y-4398365D02*
G01*
X14703145Y-4601565D01*
X14741245Y-4601565D01*
X14741245Y-4398365D01*
G37*
G36*
X14703145Y-5898388D02*
G01*
X14703145Y-6101588D01*
X14741245Y-6101588D01*
X14741245Y-5898388D01*
G37*
G36*
X14703145Y-7398410D02*
G01*
X14703145Y-7601610D01*
X14741245Y-7601610D01*
X14741245Y-7398410D01*
G37*
G36*
X14703145Y-8898382D02*
G01*
X14703145Y-9101582D01*
X14741245Y-9101582D01*
X14741245Y-8898382D01*
G37*
G36*
X14703145Y-10398404D02*
G01*
X14703145Y-10601604D01*
X14741245Y-10601604D01*
X14741245Y-10398404D01*
G37*
G36*
X16203168Y-1398371D02*
G01*
X16203168Y-1601571D01*
X16241268Y-1601571D01*
X16241268Y-1398371D01*
G37*
G36*
X16203168Y-2898394D02*
G01*
X16203168Y-3101594D01*
X16241268Y-3101594D01*
X16241268Y-2898394D01*
G37*
G36*
X16203168Y-4398365D02*
G01*
X16203168Y-4601565D01*
X16241268Y-4601565D01*
X16241268Y-4398365D01*
G37*
G36*
X16203168Y-5898388D02*
G01*
X16203168Y-6101588D01*
X16241268Y-6101588D01*
X16241268Y-5898388D01*
G37*
G36*
X16203168Y-7398410D02*
G01*
X16203168Y-7601610D01*
X16241268Y-7601610D01*
X16241268Y-7398410D01*
G37*
G36*
X16203168Y-8898382D02*
G01*
X16203168Y-9101582D01*
X16241268Y-9101582D01*
X16241268Y-8898382D01*
G37*
G36*
X16203168Y-10398404D02*
G01*
X16203168Y-10601604D01*
X16241268Y-10601604D01*
X16241268Y-10398404D01*
G37*
G36*
X17703190Y-1398371D02*
G01*
X17703190Y-1601571D01*
X17741290Y-1601571D01*
X17741290Y-1398371D01*
G37*
G36*
X17703190Y-2898394D02*
G01*
X17703190Y-3101594D01*
X17741290Y-3101594D01*
X17741290Y-2898394D01*
G37*
G36*
X17703190Y-4398365D02*
G01*
X17703190Y-4601565D01*
X17741290Y-4601565D01*
X17741290Y-4398365D01*
G37*
G36*
X17703190Y-5898388D02*
G01*
X17703190Y-6101588D01*
X17741290Y-6101588D01*
X17741290Y-5898388D01*
G37*
G36*
X17703190Y-7398410D02*
G01*
X17703190Y-7601610D01*
X17741290Y-7601610D01*
X17741290Y-7398410D01*
G37*
G36*
X17703190Y-8898382D02*
G01*
X17703190Y-9101582D01*
X17741290Y-9101582D01*
X17741290Y-8898382D01*
G37*
G36*
X17703190Y-10398404D02*
G01*
X17703190Y-10601604D01*
X17741290Y-10601604D01*
X17741290Y-10398404D01*
G37*
G36*
X1203198Y-1398371D02*
G01*
X1203198Y-1601571D01*
X1241298Y-1601571D01*
X1241298Y-1398371D01*
G37*
G36*
X1203198Y-2898394D02*
G01*
X1203198Y-3101594D01*
X1241298Y-3101594D01*
X1241298Y-2898394D01*
G37*
G36*
X1203198Y-4398365D02*
G01*
X1203198Y-4601565D01*
X1241298Y-4601565D01*
X1241298Y-4398365D01*
G37*
G36*
X1203198Y-5898388D02*
G01*
X1203198Y-6101588D01*
X1241298Y-6101588D01*
X1241298Y-5898388D01*
G37*
G36*
X1371600Y-7391400D02*
G01*
X1371600Y-7594600D01*
X1409700Y-7594600D01*
X1409700Y-7391400D01*
G37*
G36*
X1203198Y-8898382D02*
G01*
X1203198Y-9101582D01*
X1241298Y-9101582D01*
X1241298Y-8898382D01*
G37*
G36*
X1203198Y-10398404D02*
G01*
X1203198Y-10601604D01*
X1241298Y-10601604D01*
X1241298Y-10398404D01*
G37*
G36*
X2703220Y-1398371D02*
G01*
X2703220Y-1601571D01*
X2741320Y-1601571D01*
X2741320Y-1398371D01*
G37*
G36*
X2703220Y-2898394D02*
G01*
X2703220Y-3101594D01*
X2741320Y-3101594D01*
X2741320Y-2898394D01*
G37*
G36*
X2703220Y-4398365D02*
G01*
X2703220Y-4601565D01*
X2741320Y-4601565D01*
X2741320Y-4398365D01*
G37*
G36*
X2703220Y-5898388D02*
G01*
X2703220Y-6101588D01*
X2741320Y-6101588D01*
X2741320Y-5898388D01*
G37*
G36*
X2703220Y-7398410D02*
G01*
X2703220Y-7601610D01*
X2741320Y-7601610D01*
X2741320Y-7398410D01*
G37*
G36*
X2703220Y-8898382D02*
G01*
X2703220Y-9101582D01*
X2741320Y-9101582D01*
X2741320Y-8898382D01*
G37*
G36*
X2703220Y-10398404D02*
G01*
X2703220Y-10601604D01*
X2741320Y-10601604D01*
X2741320Y-10398404D01*
G37*
G36*
X4203192Y-1398371D02*
G01*
X4203192Y-1601571D01*
X4241292Y-1601571D01*
X4241292Y-1398371D01*
G37*
G36*
X4203192Y-2898394D02*
G01*
X4203192Y-3101594D01*
X4241292Y-3101594D01*
X4241292Y-2898394D01*
G37*
G36*
X4203192Y-4398365D02*
G01*
X4203192Y-4601565D01*
X4241292Y-4601565D01*
X4241292Y-4398365D01*
G37*
G36*
X4203192Y-5898388D02*
G01*
X4203192Y-6101588D01*
X4241292Y-6101588D01*
X4241292Y-5898388D01*
G37*
G36*
X4203192Y-7398410D02*
G01*
X4203192Y-7601610D01*
X4241292Y-7601610D01*
X4241292Y-7398410D01*
G37*
G36*
X4203192Y-8898382D02*
G01*
X4203192Y-9101582D01*
X4241292Y-9101582D01*
X4241292Y-8898382D01*
G37*
G36*
X4203192Y-10398404D02*
G01*
X4203192Y-10601604D01*
X4241292Y-10601604D01*
X4241292Y-10398404D01*
G37*
G36*
X5703163Y-1398371D02*
G01*
X5703163Y-1601571D01*
X5741263Y-1601571D01*
X5741263Y-1398371D01*
G37*
G36*
X5703163Y-2898394D02*
G01*
X5703163Y-3101594D01*
X5741263Y-3101594D01*
X5741263Y-2898394D01*
G37*
G36*
X5703163Y-4398365D02*
G01*
X5703163Y-4601565D01*
X5741263Y-4601565D01*
X5741263Y-4398365D01*
G37*
G36*
X5703163Y-5898388D02*
G01*
X5703163Y-6101588D01*
X5741263Y-6101588D01*
X5741263Y-5898388D01*
G37*
G36*
X5703163Y-7398410D02*
G01*
X5703163Y-7601610D01*
X5741263Y-7601610D01*
X5741263Y-7398410D01*
G37*
G36*
X5703163Y-8898382D02*
G01*
X5703163Y-9101582D01*
X5741263Y-9101582D01*
X5741263Y-8898382D01*
G37*
G36*
X5703163Y-10398404D02*
G01*
X5703163Y-10601604D01*
X5741263Y-10601604D01*
X5741263Y-10398404D01*
G37*
D11*
X7203186Y-1601596D02*
G01*
X7241286Y-1601596D01*
X7241286Y-1398396D01*
X7203186Y-1398396D01*
X6796786Y-1601596D02*
G01*
X7203186Y-1601596D01*
X7203186Y-1398396D01*
X6796786Y-1398396D01*
X6796786Y-1601596D01*
X7203186Y-3101594D02*
G01*
X7241286Y-3101594D01*
X7241286Y-2898394D01*
X7203186Y-2898394D01*
X6796786Y-3101594D02*
G01*
X7203186Y-3101594D01*
X7203186Y-2898394D01*
X6796786Y-2898394D01*
X6796786Y-3101594D01*
X7203186Y-4601590D02*
G01*
X7241286Y-4601590D01*
X7241286Y-4398390D01*
X7203186Y-4398390D01*
X6796786Y-4601590D02*
G01*
X7203186Y-4601590D01*
X7203186Y-4398390D01*
X6796786Y-4398390D01*
X6796786Y-4601590D01*
X7203186Y-6101587D02*
G01*
X7241286Y-6101587D01*
X7241286Y-5898387D01*
X7203186Y-5898387D01*
X6796786Y-6101587D02*
G01*
X7203186Y-6101587D01*
X7203186Y-5898387D01*
X6796786Y-5898387D01*
X6796786Y-6101587D01*
X7203186Y-7601585D02*
G01*
X7241286Y-7601585D01*
X7241286Y-7398385D01*
X7203186Y-7398385D01*
X6796786Y-7601585D02*
G01*
X7203186Y-7601585D01*
X7203186Y-7398385D01*
X6796786Y-7398385D01*
X6796786Y-7601585D01*
X7203186Y-9101581D02*
G01*
X7241286Y-9101581D01*
X7241286Y-8898381D01*
X7203186Y-8898381D01*
X6796786Y-9101581D02*
G01*
X7203186Y-9101581D01*
X7203186Y-8898381D01*
X6796786Y-8898381D01*
X6796786Y-9101581D01*
X7203186Y-10601579D02*
G01*
X7241286Y-10601579D01*
X7241286Y-10398379D01*
X7203186Y-10398379D01*
X6796786Y-10601579D02*
G01*
X7203186Y-10601579D01*
X7203186Y-10398379D01*
X6796786Y-10398379D01*
X6796786Y-10601579D01*
X8703183Y-1601596D02*
G01*
X8741283Y-1601596D01*
X8741283Y-1398396D01*
X8703183Y-1398396D01*
X8296783Y-1601596D02*
G01*
X8703183Y-1601596D01*
X8703183Y-1398396D01*
X8296783Y-1398396D01*
X8296783Y-1601596D01*
X8703183Y-3101594D02*
G01*
X8741283Y-3101594D01*
X8741283Y-2898394D01*
X8703183Y-2898394D01*
X8296783Y-3101594D02*
G01*
X8703183Y-3101594D01*
X8703183Y-2898394D01*
X8296783Y-2898394D01*
X8296783Y-3101594D01*
X8703183Y-4601590D02*
G01*
X8741283Y-4601590D01*
X8741283Y-4398390D01*
X8703183Y-4398390D01*
X8296783Y-4601590D02*
G01*
X8703183Y-4601590D01*
X8703183Y-4398390D01*
X8296783Y-4398390D01*
X8296783Y-4601590D01*
X8703183Y-6101587D02*
G01*
X8741283Y-6101587D01*
X8741283Y-5898387D01*
X8703183Y-5898387D01*
X8296783Y-6101587D02*
G01*
X8703183Y-6101587D01*
X8703183Y-5898387D01*
X8296783Y-5898387D01*
X8296783Y-6101587D01*
X8703183Y-7601585D02*
G01*
X8741283Y-7601585D01*
X8741283Y-7398385D01*
X8703183Y-7398385D01*
X8296783Y-7601585D02*
G01*
X8703183Y-7601585D01*
X8703183Y-7398385D01*
X8296783Y-7398385D01*
X8296783Y-7601585D01*
X8703183Y-9101581D02*
G01*
X8741283Y-9101581D01*
X8741283Y-8898381D01*
X8703183Y-8898381D01*
X8296783Y-9101581D02*
G01*
X8703183Y-9101581D01*
X8703183Y-8898381D01*
X8296783Y-8898381D01*
X8296783Y-9101581D01*
X8703183Y-10601579D02*
G01*
X8741283Y-10601579D01*
X8741283Y-10398379D01*
X8703183Y-10398379D01*
X8296783Y-10601579D02*
G01*
X8703183Y-10601579D01*
X8703183Y-10398379D01*
X8296783Y-10398379D01*
X8296783Y-10601579D01*
X10203179Y-1601596D02*
G01*
X10241279Y-1601596D01*
X10241279Y-1398396D01*
X10203179Y-1398396D01*
X9796779Y-1601596D02*
G01*
X10203179Y-1601596D01*
X10203179Y-1398396D01*
X9796779Y-1398396D01*
X9796779Y-1601596D01*
X10203179Y-3101594D02*
G01*
X10241279Y-3101594D01*
X10241279Y-2898394D01*
X10203179Y-2898394D01*
X9796779Y-3101594D02*
G01*
X10203179Y-3101594D01*
X10203179Y-2898394D01*
X9796779Y-2898394D01*
X9796779Y-3101594D01*
X10203179Y-4601590D02*
G01*
X10241279Y-4601590D01*
X10241279Y-4398390D01*
X10203179Y-4398390D01*
X9796779Y-4601590D02*
G01*
X10203179Y-4601590D01*
X10203179Y-4398390D01*
X9796779Y-4398390D01*
X9796779Y-4601590D01*
X10203179Y-6101587D02*
G01*
X10241279Y-6101587D01*
X10241279Y-5898387D01*
X10203179Y-5898387D01*
X9796779Y-6101587D02*
G01*
X10203179Y-6101587D01*
X10203179Y-5898387D01*
X9796779Y-5898387D01*
X9796779Y-6101587D01*
X10203179Y-7601585D02*
G01*
X10241279Y-7601585D01*
X10241279Y-7398385D01*
X10203179Y-7398385D01*
X9796779Y-7601585D02*
G01*
X10203179Y-7601585D01*
X10203179Y-7398385D01*
X9796779Y-7398385D01*
X9796779Y-7601585D01*
X10203179Y-9101581D02*
G01*
X10241279Y-9101581D01*
X10241279Y-8898381D01*
X10203179Y-8898381D01*
X9796779Y-9101581D02*
G01*
X10203179Y-9101581D01*
X10203179Y-8898381D01*
X9796779Y-8898381D01*
X9796779Y-9101581D01*
X10203179Y-10601579D02*
G01*
X10241279Y-10601579D01*
X10241279Y-10398379D01*
X10203179Y-10398379D01*
X9796779Y-10601579D02*
G01*
X10203179Y-10601579D01*
X10203179Y-10398379D01*
X9796779Y-10398379D01*
X9796779Y-10601579D01*
X11703177Y-1601596D02*
G01*
X11741277Y-1601596D01*
X11741277Y-1398396D01*
X11703177Y-1398396D01*
X11296777Y-1601596D02*
G01*
X11703177Y-1601596D01*
X11703177Y-1398396D01*
X11296777Y-1398396D01*
X11296777Y-1601596D01*
X11703177Y-3101594D02*
G01*
X11741277Y-3101594D01*
X11741277Y-2898394D01*
X11703177Y-2898394D01*
X11296777Y-3101594D02*
G01*
X11703177Y-3101594D01*
X11703177Y-2898394D01*
X11296777Y-2898394D01*
X11296777Y-3101594D01*
X11703177Y-4601590D02*
G01*
X11741277Y-4601590D01*
X11741277Y-4398390D01*
X11703177Y-4398390D01*
X11296777Y-4601590D02*
G01*
X11703177Y-4601590D01*
X11703177Y-4398390D01*
X11296777Y-4398390D01*
X11296777Y-4601590D01*
X11703177Y-6101587D02*
G01*
X11741277Y-6101587D01*
X11741277Y-5898387D01*
X11703177Y-5898387D01*
X11296777Y-6101587D02*
G01*
X11703177Y-6101587D01*
X11703177Y-5898387D01*
X11296777Y-5898387D01*
X11296777Y-6101587D01*
X11703177Y-7601585D02*
G01*
X11741277Y-7601585D01*
X11741277Y-7398385D01*
X11703177Y-7398385D01*
X11296777Y-7601585D02*
G01*
X11703177Y-7601585D01*
X11703177Y-7398385D01*
X11296777Y-7398385D01*
X11296777Y-7601585D01*
X11703177Y-9101581D02*
G01*
X11741277Y-9101581D01*
X11741277Y-8898381D01*
X11703177Y-8898381D01*
X11296777Y-9101581D02*
G01*
X11703177Y-9101581D01*
X11703177Y-8898381D01*
X11296777Y-8898381D01*
X11296777Y-9101581D01*
X11703177Y-10601579D02*
G01*
X11741277Y-10601579D01*
X11741277Y-10398379D01*
X11703177Y-10398379D01*
X11296777Y-10601579D02*
G01*
X11703177Y-10601579D01*
X11703177Y-10398379D01*
X11296777Y-10398379D01*
X11296777Y-10601579D01*
X13203174Y-1601596D02*
G01*
X13241274Y-1601596D01*
X13241274Y-1398396D01*
X13203174Y-1398396D01*
X12796774Y-1601596D02*
G01*
X13203174Y-1601596D01*
X13203174Y-1398396D01*
X12796774Y-1398396D01*
X12796774Y-1601596D01*
X13203174Y-3101594D02*
G01*
X13241274Y-3101594D01*
X13241274Y-2898394D01*
X13203174Y-2898394D01*
X12796774Y-3101594D02*
G01*
X13203174Y-3101594D01*
X13203174Y-2898394D01*
X12796774Y-2898394D01*
X12796774Y-3101594D01*
X13203174Y-4601590D02*
G01*
X13241274Y-4601590D01*
X13241274Y-4398390D01*
X13203174Y-4398390D01*
X12796774Y-4601590D02*
G01*
X13203174Y-4601590D01*
X13203174Y-4398390D01*
X12796774Y-4398390D01*
X12796774Y-4601590D01*
X13203174Y-6101587D02*
G01*
X13241274Y-6101587D01*
X13241274Y-5898387D01*
X13203174Y-5898387D01*
X12796774Y-6101587D02*
G01*
X13203174Y-6101587D01*
X13203174Y-5898387D01*
X12796774Y-5898387D01*
X12796774Y-6101587D01*
X13203174Y-7601585D02*
G01*
X13241274Y-7601585D01*
X13241274Y-7398385D01*
X13203174Y-7398385D01*
X12796774Y-7601585D02*
G01*
X13203174Y-7601585D01*
X13203174Y-7398385D01*
X12796774Y-7398385D01*
X12796774Y-7601585D01*
X13203174Y-9101581D02*
G01*
X13241274Y-9101581D01*
X13241274Y-8898381D01*
X13203174Y-8898381D01*
X12796774Y-9101581D02*
G01*
X13203174Y-9101581D01*
X13203174Y-8898381D01*
X12796774Y-8898381D01*
X12796774Y-9101581D01*
X13203174Y-10601579D02*
G01*
X13241274Y-10601579D01*
X13241274Y-10398379D01*
X13203174Y-10398379D01*
X12796774Y-10601579D02*
G01*
X13203174Y-10601579D01*
X13203174Y-10398379D01*
X12796774Y-10398379D01*
X12796774Y-10601579D01*
X14703170Y-1601596D02*
G01*
X14741270Y-1601596D01*
X14741270Y-1398396D01*
X14703170Y-1398396D01*
X14296770Y-1601596D02*
G01*
X14703170Y-1601596D01*
X14703170Y-1398396D01*
X14296770Y-1398396D01*
X14296770Y-1601596D01*
X14703170Y-3101594D02*
G01*
X14741270Y-3101594D01*
X14741270Y-2898394D01*
X14703170Y-2898394D01*
X14296770Y-3101594D02*
G01*
X14703170Y-3101594D01*
X14703170Y-2898394D01*
X14296770Y-2898394D01*
X14296770Y-3101594D01*
X14703170Y-4601590D02*
G01*
X14741270Y-4601590D01*
X14741270Y-4398390D01*
X14703170Y-4398390D01*
X14296770Y-4601590D02*
G01*
X14703170Y-4601590D01*
X14703170Y-4398390D01*
X14296770Y-4398390D01*
X14296770Y-4601590D01*
X14703170Y-6101587D02*
G01*
X14741270Y-6101587D01*
X14741270Y-5898387D01*
X14703170Y-5898387D01*
X14296770Y-6101587D02*
G01*
X14703170Y-6101587D01*
X14703170Y-5898387D01*
X14296770Y-5898387D01*
X14296770Y-6101587D01*
X14703170Y-7601585D02*
G01*
X14741270Y-7601585D01*
X14741270Y-7398385D01*
X14703170Y-7398385D01*
X14296770Y-7601585D02*
G01*
X14703170Y-7601585D01*
X14703170Y-7398385D01*
X14296770Y-7398385D01*
X14296770Y-7601585D01*
X14703170Y-9101581D02*
G01*
X14741270Y-9101581D01*
X14741270Y-8898381D01*
X14703170Y-8898381D01*
X14296770Y-9101581D02*
G01*
X14703170Y-9101581D01*
X14703170Y-8898381D01*
X14296770Y-8898381D01*
X14296770Y-9101581D01*
X14703170Y-10601579D02*
G01*
X14741270Y-10601579D01*
X14741270Y-10398379D01*
X14703170Y-10398379D01*
X14296770Y-10601579D02*
G01*
X14703170Y-10601579D01*
X14703170Y-10398379D01*
X14296770Y-10398379D01*
X14296770Y-10601579D01*
X16203168Y-1601596D02*
G01*
X16241268Y-1601596D01*
X16241268Y-1398396D01*
X16203168Y-1398396D01*
X15796768Y-1601596D02*
G01*
X16203168Y-1601596D01*
X16203168Y-1398396D01*
X15796768Y-1398396D01*
X15796768Y-1601596D01*
X16203168Y-3101594D02*
G01*
X16241268Y-3101594D01*
X16241268Y-2898394D01*
X16203168Y-2898394D01*
X15796768Y-3101594D02*
G01*
X16203168Y-3101594D01*
X16203168Y-2898394D01*
X15796768Y-2898394D01*
X15796768Y-3101594D01*
X16203168Y-4601590D02*
G01*
X16241268Y-4601590D01*
X16241268Y-4398390D01*
X16203168Y-4398390D01*
X15796768Y-4601590D02*
G01*
X16203168Y-4601590D01*
X16203168Y-4398390D01*
X15796768Y-4398390D01*
X15796768Y-4601590D01*
X16203168Y-6101587D02*
G01*
X16241268Y-6101587D01*
X16241268Y-5898387D01*
X16203168Y-5898387D01*
X15796768Y-6101587D02*
G01*
X16203168Y-6101587D01*
X16203168Y-5898387D01*
X15796768Y-5898387D01*
X15796768Y-6101587D01*
X16203168Y-7601585D02*
G01*
X16241268Y-7601585D01*
X16241268Y-7398385D01*
X16203168Y-7398385D01*
X15796768Y-7601585D02*
G01*
X16203168Y-7601585D01*
X16203168Y-7398385D01*
X15796768Y-7398385D01*
X15796768Y-7601585D01*
X16203168Y-9101581D02*
G01*
X16241268Y-9101581D01*
X16241268Y-8898381D01*
X16203168Y-8898381D01*
X15796768Y-9101581D02*
G01*
X16203168Y-9101581D01*
X16203168Y-8898381D01*
X15796768Y-8898381D01*
X15796768Y-9101581D01*
X16203168Y-10601579D02*
G01*
X16241268Y-10601579D01*
X16241268Y-10398379D01*
X16203168Y-10398379D01*
X15796768Y-10601579D02*
G01*
X16203168Y-10601579D01*
X16203168Y-10398379D01*
X15796768Y-10398379D01*
X15796768Y-10601579D01*
X17703165Y-1601596D02*
G01*
X17741265Y-1601596D01*
X17741265Y-1398396D01*
X17703165Y-1398396D01*
X17296765Y-1601596D02*
G01*
X17703165Y-1601596D01*
X17703165Y-1398396D01*
X17296765Y-1398396D01*
X17296765Y-1601596D01*
X17703165Y-3101594D02*
G01*
X17741265Y-3101594D01*
X17741265Y-2898394D01*
X17703165Y-2898394D01*
X17296765Y-3101594D02*
G01*
X17703165Y-3101594D01*
X17703165Y-2898394D01*
X17296765Y-2898394D01*
X17296765Y-3101594D01*
X17703165Y-4601590D02*
G01*
X17741265Y-4601590D01*
X17741265Y-4398390D01*
X17703165Y-4398390D01*
X17296765Y-4601590D02*
G01*
X17703165Y-4601590D01*
X17703165Y-4398390D01*
X17296765Y-4398390D01*
X17296765Y-4601590D01*
X17703165Y-6101587D02*
G01*
X17741265Y-6101587D01*
X17741265Y-5898387D01*
X17703165Y-5898387D01*
X17296765Y-6101587D02*
G01*
X17703165Y-6101587D01*
X17703165Y-5898387D01*
X17296765Y-5898387D01*
X17296765Y-6101587D01*
X17703165Y-7601585D02*
G01*
X17741265Y-7601585D01*
X17741265Y-7398385D01*
X17703165Y-7398385D01*
X17296765Y-7601585D02*
G01*
X17703165Y-7601585D01*
X17703165Y-7398385D01*
X17296765Y-7398385D01*
X17296765Y-7601585D01*
X17703165Y-9101581D02*
G01*
X17741265Y-9101581D01*
X17741265Y-8898381D01*
X17703165Y-8898381D01*
X17296765Y-9101581D02*
G01*
X17703165Y-9101581D01*
X17703165Y-8898381D01*
X17296765Y-8898381D01*
X17296765Y-9101581D01*
X17703165Y-10601579D02*
G01*
X17741265Y-10601579D01*
X17741265Y-10398379D01*
X17703165Y-10398379D01*
X17296765Y-10601579D02*
G01*
X17703165Y-10601579D01*
X17703165Y-10398379D01*
X17296765Y-10398379D01*
X17296765Y-10601579D01*
D12*
X6749930Y-925433D02*
G01*
X6941700Y-746363D01*
D13*
X6749981Y-749995D02*
G01*
X7249980Y-749995D01*
X7249980Y-1249994D01*
X6749981Y-1249994D01*
X6749981Y-749995D01*
D12*
X6749930Y-2425430D02*
G01*
X6941700Y-2246360D01*
D13*
X6749981Y-2249992D02*
G01*
X7249980Y-2249992D01*
X7249980Y-2749991D01*
X6749981Y-2749991D01*
X6749981Y-2249992D01*
D12*
X6749930Y-3925427D02*
G01*
X6941700Y-3746357D01*
D13*
X6749981Y-3749989D02*
G01*
X7249980Y-3749989D01*
X7249980Y-4249988D01*
X6749981Y-4249988D01*
X6749981Y-3749989D01*
D12*
X6749930Y-5425424D02*
G01*
X6941700Y-5246354D01*
D13*
X6749981Y-5249986D02*
G01*
X7249980Y-5249986D01*
X7249980Y-5749985D01*
X6749981Y-5749985D01*
X6749981Y-5249986D01*
D12*
X6749930Y-6925421D02*
G01*
X6941700Y-6746351D01*
D13*
X6749981Y-6749983D02*
G01*
X7249980Y-6749983D01*
X7249980Y-7249982D01*
X6749981Y-7249982D01*
X6749981Y-6749983D01*
D12*
X6749930Y-8425418D02*
G01*
X6941700Y-8246348D01*
D13*
X6749981Y-8249980D02*
G01*
X7249980Y-8249980D01*
X7249980Y-8749979D01*
X6749981Y-8749979D01*
X6749981Y-8249980D01*
D12*
X6749930Y-9925415D02*
G01*
X6941700Y-9746345D01*
D13*
X6749981Y-9749977D02*
G01*
X7249980Y-9749977D01*
X7249980Y-10249976D01*
X6749981Y-10249976D01*
X6749981Y-9749977D01*
D12*
X8249927Y-925433D02*
G01*
X8441697Y-746363D01*
D13*
X8249978Y-749995D02*
G01*
X8749977Y-749995D01*
X8749977Y-1249994D01*
X8249978Y-1249994D01*
X8249978Y-749995D01*
D12*
X8249927Y-2425430D02*
G01*
X8441697Y-2246360D01*
D13*
X8249978Y-2249992D02*
G01*
X8749977Y-2249992D01*
X8749977Y-2749991D01*
X8249978Y-2749991D01*
X8249978Y-2249992D01*
D12*
X8249927Y-3925427D02*
G01*
X8441697Y-3746357D01*
D13*
X8249978Y-3749989D02*
G01*
X8749977Y-3749989D01*
X8749977Y-4249988D01*
X8249978Y-4249988D01*
X8249978Y-3749989D01*
D12*
X8249927Y-5425424D02*
G01*
X8441697Y-5246354D01*
D13*
X8249978Y-5249986D02*
G01*
X8749977Y-5249986D01*
X8749977Y-5749985D01*
X8249978Y-5749985D01*
X8249978Y-5249986D01*
D12*
X8249927Y-6925421D02*
G01*
X8441697Y-6746351D01*
D13*
X8249978Y-6749983D02*
G01*
X8749977Y-6749983D01*
X8749977Y-7249982D01*
X8249978Y-7249982D01*
X8249978Y-6749983D01*
D12*
X8249927Y-8425418D02*
G01*
X8441697Y-8246348D01*
D13*
X8249978Y-8249980D02*
G01*
X8749977Y-8249980D01*
X8749977Y-8749979D01*
X8249978Y-8749979D01*
X8249978Y-8249980D01*
D12*
X8249927Y-9925415D02*
G01*
X8441697Y-9746345D01*
D13*
X8249978Y-9749977D02*
G01*
X8749977Y-9749977D01*
X8749977Y-10249976D01*
X8249978Y-10249976D01*
X8249978Y-9749977D01*
D12*
X9749924Y-925433D02*
G01*
X9941694Y-746363D01*
D13*
X9749975Y-749995D02*
G01*
X10249974Y-749995D01*
X10249974Y-1249994D01*
X9749975Y-1249994D01*
X9749975Y-749995D01*
D12*
X9749924Y-2425430D02*
G01*
X9941694Y-2246360D01*
D13*
X9749975Y-2249992D02*
G01*
X10249974Y-2249992D01*
X10249974Y-2749991D01*
X9749975Y-2749991D01*
X9749975Y-2249992D01*
D12*
X9749924Y-3925427D02*
G01*
X9941694Y-3746357D01*
D13*
X9749975Y-3749989D02*
G01*
X10249974Y-3749989D01*
X10249974Y-4249988D01*
X9749975Y-4249988D01*
X9749975Y-3749989D01*
D12*
X9749924Y-5425424D02*
G01*
X9941694Y-5246354D01*
D13*
X9749975Y-5249986D02*
G01*
X10249974Y-5249986D01*
X10249974Y-5749985D01*
X9749975Y-5749985D01*
X9749975Y-5249986D01*
D12*
X9749924Y-6925421D02*
G01*
X9941694Y-6746351D01*
D13*
X9749975Y-6749983D02*
G01*
X10249974Y-6749983D01*
X10249974Y-7249982D01*
X9749975Y-7249982D01*
X9749975Y-6749983D01*
D12*
X9749924Y-8425418D02*
G01*
X9941694Y-8246348D01*
D13*
X9749975Y-8249980D02*
G01*
X10249974Y-8249980D01*
X10249974Y-8749979D01*
X9749975Y-8749979D01*
X9749975Y-8249980D01*
D12*
X9749924Y-9925415D02*
G01*
X9941694Y-9746345D01*
D13*
X9749975Y-9749977D02*
G01*
X10249974Y-9749977D01*
X10249974Y-10249976D01*
X9749975Y-10249976D01*
X9749975Y-9749977D01*
D12*
X11249921Y-925433D02*
G01*
X11441691Y-746363D01*
D13*
X11249972Y-749995D02*
G01*
X11749971Y-749995D01*
X11749971Y-1249994D01*
X11249972Y-1249994D01*
X11249972Y-749995D01*
D12*
X11249921Y-2425430D02*
G01*
X11441691Y-2246360D01*
D13*
X11249972Y-2249992D02*
G01*
X11749971Y-2249992D01*
X11749971Y-2749991D01*
X11249972Y-2749991D01*
X11249972Y-2249992D01*
D12*
X11249921Y-3925427D02*
G01*
X11441691Y-3746357D01*
D13*
X11249972Y-3749989D02*
G01*
X11749971Y-3749989D01*
X11749971Y-4249988D01*
X11249972Y-4249988D01*
X11249972Y-3749989D01*
D12*
X11249921Y-5425424D02*
G01*
X11441691Y-5246354D01*
D13*
X11249972Y-5249986D02*
G01*
X11749971Y-5249986D01*
X11749971Y-5749985D01*
X11249972Y-5749985D01*
X11249972Y-5249986D01*
D12*
X11249921Y-6925421D02*
G01*
X11441691Y-6746351D01*
D13*
X11249972Y-6749983D02*
G01*
X11749971Y-6749983D01*
X11749971Y-7249982D01*
X11249972Y-7249982D01*
X11249972Y-6749983D01*
D12*
X11249921Y-8425418D02*
G01*
X11441691Y-8246348D01*
D13*
X11249972Y-8249980D02*
G01*
X11749971Y-8249980D01*
X11749971Y-8749979D01*
X11249972Y-8749979D01*
X11249972Y-8249980D01*
D12*
X11249921Y-9925415D02*
G01*
X11441691Y-9746345D01*
D13*
X11249972Y-9749977D02*
G01*
X11749971Y-9749977D01*
X11749971Y-10249976D01*
X11249972Y-10249976D01*
X11249972Y-9749977D01*
D12*
X12749918Y-925433D02*
G01*
X12941688Y-746363D01*
D13*
X12749969Y-749995D02*
G01*
X13249968Y-749995D01*
X13249968Y-1249994D01*
X12749969Y-1249994D01*
X12749969Y-749995D01*
D12*
X12749918Y-2425430D02*
G01*
X12941688Y-2246360D01*
D13*
X12749969Y-2249992D02*
G01*
X13249968Y-2249992D01*
X13249968Y-2749991D01*
X12749969Y-2749991D01*
X12749969Y-2249992D01*
D12*
X12749918Y-3925427D02*
G01*
X12941688Y-3746357D01*
D13*
X12749969Y-3749989D02*
G01*
X13249968Y-3749989D01*
X13249968Y-4249988D01*
X12749969Y-4249988D01*
X12749969Y-3749989D01*
D12*
X12749918Y-5425424D02*
G01*
X12941688Y-5246354D01*
D13*
X12749969Y-5249986D02*
G01*
X13249968Y-5249986D01*
X13249968Y-5749985D01*
X12749969Y-5749985D01*
X12749969Y-5249986D01*
D12*
X12749918Y-6925421D02*
G01*
X12941688Y-6746351D01*
D13*
X12749969Y-6749983D02*
G01*
X13249968Y-6749983D01*
X13249968Y-7249982D01*
X12749969Y-7249982D01*
X12749969Y-6749983D01*
D12*
X12749918Y-8425418D02*
G01*
X12941688Y-8246348D01*
D13*
X12749969Y-8249980D02*
G01*
X13249968Y-8249980D01*
X13249968Y-8749979D01*
X12749969Y-8749979D01*
X12749969Y-8249980D01*
D12*
X12749918Y-9925415D02*
G01*
X12941688Y-9746345D01*
D13*
X12749969Y-9749977D02*
G01*
X13249968Y-9749977D01*
X13249968Y-10249976D01*
X12749969Y-10249976D01*
X12749969Y-9749977D01*
D12*
X14249915Y-925433D02*
G01*
X14441685Y-746363D01*
D13*
X14249966Y-749995D02*
G01*
X14749965Y-749995D01*
X14749965Y-1249994D01*
X14249966Y-1249994D01*
X14249966Y-749995D01*
D12*
X14249915Y-2425430D02*
G01*
X14441685Y-2246360D01*
D13*
X14249966Y-2249992D02*
G01*
X14749965Y-2249992D01*
X14749965Y-2749991D01*
X14249966Y-2749991D01*
X14249966Y-2249992D01*
D12*
X14249915Y-3925427D02*
G01*
X14441685Y-3746357D01*
D13*
X14249966Y-3749989D02*
G01*
X14749965Y-3749989D01*
X14749965Y-4249988D01*
X14249966Y-4249988D01*
X14249966Y-3749989D01*
D12*
X14249915Y-5425424D02*
G01*
X14441685Y-5246354D01*
D13*
X14249966Y-5249986D02*
G01*
X14749965Y-5249986D01*
X14749965Y-5749985D01*
X14249966Y-5749985D01*
X14249966Y-5249986D01*
D12*
X14249915Y-6925421D02*
G01*
X14441685Y-6746351D01*
D13*
X14249966Y-6749983D02*
G01*
X14749965Y-6749983D01*
X14749965Y-7249982D01*
X14249966Y-7249982D01*
X14249966Y-6749983D01*
D12*
X14249915Y-8425418D02*
G01*
X14441685Y-8246348D01*
D13*
X14249966Y-8249980D02*
G01*
X14749965Y-8249980D01*
X14749965Y-8749979D01*
X14249966Y-8749979D01*
X14249966Y-8249980D01*
D12*
X14249915Y-9925415D02*
G01*
X14441685Y-9746345D01*
D13*
X14249966Y-9749977D02*
G01*
X14749965Y-9749977D01*
X14749965Y-10249976D01*
X14249966Y-10249976D01*
X14249966Y-9749977D01*
D12*
X15749912Y-925433D02*
G01*
X15941682Y-746363D01*
D13*
X15749963Y-749995D02*
G01*
X16249962Y-749995D01*
X16249962Y-1249994D01*
X15749963Y-1249994D01*
X15749963Y-749995D01*
D12*
X15749912Y-2425430D02*
G01*
X15941682Y-2246360D01*
D13*
X15749963Y-2249992D02*
G01*
X16249962Y-2249992D01*
X16249962Y-2749991D01*
X15749963Y-2749991D01*
X15749963Y-2249992D01*
D12*
X15749912Y-3925427D02*
G01*
X15941682Y-3746357D01*
D13*
X15749963Y-3749989D02*
G01*
X16249962Y-3749989D01*
X16249962Y-4249988D01*
X15749963Y-4249988D01*
X15749963Y-3749989D01*
D12*
X15749912Y-5425424D02*
G01*
X15941682Y-5246354D01*
D13*
X15749963Y-5249986D02*
G01*
X16249962Y-5249986D01*
X16249962Y-5749985D01*
X15749963Y-5749985D01*
X15749963Y-5249986D01*
D12*
X15749912Y-6925421D02*
G01*
X15941682Y-6746351D01*
D13*
X15749963Y-6749983D02*
G01*
X16249962Y-6749983D01*
X16249962Y-7249982D01*
X15749963Y-7249982D01*
X15749963Y-6749983D01*
D12*
X15749912Y-8425418D02*
G01*
X15941682Y-8246348D01*
D13*
X15749963Y-8249980D02*
G01*
X16249962Y-8249980D01*
X16249962Y-8749979D01*
X15749963Y-8749979D01*
X15749963Y-8249980D01*
D12*
X15749912Y-9925415D02*
G01*
X15941682Y-9746345D01*
D13*
X15749963Y-9749977D02*
G01*
X16249962Y-9749977D01*
X16249962Y-10249976D01*
X15749963Y-10249976D01*
X15749963Y-9749977D01*
D12*
X17249909Y-925433D02*
G01*
X17441679Y-746363D01*
D13*
X17249960Y-749995D02*
G01*
X17749959Y-749995D01*
X17749959Y-1249994D01*
X17249960Y-1249994D01*
X17249960Y-749995D01*
D12*
X17249909Y-2425430D02*
G01*
X17441679Y-2246360D01*
D13*
X17249960Y-2249992D02*
G01*
X17749959Y-2249992D01*
X17749959Y-2749991D01*
X17249960Y-2749991D01*
X17249960Y-2249992D01*
D12*
X17249909Y-3925427D02*
G01*
X17441679Y-3746357D01*
D13*
X17249960Y-3749989D02*
G01*
X17749959Y-3749989D01*
X17749959Y-4249988D01*
X17249960Y-4249988D01*
X17249960Y-3749989D01*
D12*
X17249909Y-5425424D02*
G01*
X17441679Y-5246354D01*
D13*
X17249960Y-5249986D02*
G01*
X17749959Y-5249986D01*
X17749959Y-5749985D01*
X17249960Y-5749985D01*
X17249960Y-5249986D01*
D12*
X17249909Y-6925421D02*
G01*
X17441679Y-6746351D01*
D13*
X17249960Y-6749983D02*
G01*
X17749959Y-6749983D01*
X17749959Y-7249982D01*
X17249960Y-7249982D01*
X17249960Y-6749983D01*
D12*
X17249909Y-8425418D02*
G01*
X17441679Y-8246348D01*
D13*
X17249960Y-8249980D02*
G01*
X17749959Y-8249980D01*
X17749959Y-8749979D01*
X17249960Y-8749979D01*
X17249960Y-8249980D01*
D12*
X17249909Y-9925415D02*
G01*
X17441679Y-9746345D01*
D13*
X17249960Y-9749977D02*
G01*
X17749959Y-9749977D01*
X17749959Y-10249976D01*
X17249960Y-10249976D01*
X17249960Y-9749977D01*
D11*
X1203197Y-1601596D02*
G01*
X1241297Y-1601596D01*
X1241297Y-1398396D01*
X1203197Y-1398396D01*
X796797Y-1601596D02*
G01*
X1203197Y-1601596D01*
X1203197Y-1398396D01*
X796797Y-1398396D01*
X796797Y-1601596D01*
X1203197Y-3101594D02*
G01*
X1241297Y-3101594D01*
X1241297Y-2898394D01*
X1203197Y-2898394D01*
X796797Y-3101594D02*
G01*
X1203197Y-3101594D01*
X1203197Y-2898394D01*
X796797Y-2898394D01*
X796797Y-3101594D01*
X1203197Y-4601590D02*
G01*
X1241297Y-4601590D01*
X1241297Y-4398390D01*
X1203197Y-4398390D01*
X796797Y-4601590D02*
G01*
X1203197Y-4601590D01*
X1203197Y-4398390D01*
X796797Y-4398390D01*
X796797Y-4601590D01*
X1203197Y-6101587D02*
G01*
X1241297Y-6101587D01*
X1241297Y-5898387D01*
X1203197Y-5898387D01*
X796797Y-6101587D02*
G01*
X1203197Y-6101587D01*
X1203197Y-5898387D01*
X796797Y-5898387D01*
X796797Y-6101587D01*
X1371600Y-7594600D02*
G01*
X1409700Y-7594600D01*
X1409700Y-7391400D01*
X1371600Y-7391400D01*
X965200Y-7594600D02*
G01*
X1371600Y-7594600D01*
X1371600Y-7391400D01*
X965200Y-7391400D01*
X965200Y-7594600D01*
X1203197Y-9101581D02*
G01*
X1241297Y-9101581D01*
X1241297Y-8898381D01*
X1203197Y-8898381D01*
X796797Y-9101581D02*
G01*
X1203197Y-9101581D01*
X1203197Y-8898381D01*
X796797Y-8898381D01*
X796797Y-9101581D01*
X1203197Y-10601579D02*
G01*
X1241297Y-10601579D01*
X1241297Y-10398379D01*
X1203197Y-10398379D01*
X796797Y-10601579D02*
G01*
X1203197Y-10601579D01*
X1203197Y-10398379D01*
X796797Y-10398379D01*
X796797Y-10601579D01*
X2703195Y-1601596D02*
G01*
X2741295Y-1601596D01*
X2741295Y-1398396D01*
X2703195Y-1398396D01*
X2296795Y-1601596D02*
G01*
X2703195Y-1601596D01*
X2703195Y-1398396D01*
X2296795Y-1398396D01*
X2296795Y-1601596D01*
X2703195Y-3101594D02*
G01*
X2741295Y-3101594D01*
X2741295Y-2898394D01*
X2703195Y-2898394D01*
X2296795Y-3101594D02*
G01*
X2703195Y-3101594D01*
X2703195Y-2898394D01*
X2296795Y-2898394D01*
X2296795Y-3101594D01*
X2703195Y-4601590D02*
G01*
X2741295Y-4601590D01*
X2741295Y-4398390D01*
X2703195Y-4398390D01*
X2296795Y-4601590D02*
G01*
X2703195Y-4601590D01*
X2703195Y-4398390D01*
X2296795Y-4398390D01*
X2296795Y-4601590D01*
X2703195Y-6101587D02*
G01*
X2741295Y-6101587D01*
X2741295Y-5898387D01*
X2703195Y-5898387D01*
X2296795Y-6101587D02*
G01*
X2703195Y-6101587D01*
X2703195Y-5898387D01*
X2296795Y-5898387D01*
X2296795Y-6101587D01*
X2703195Y-7601585D02*
G01*
X2741295Y-7601585D01*
X2741295Y-7398385D01*
X2703195Y-7398385D01*
X2296795Y-7601585D02*
G01*
X2703195Y-7601585D01*
X2703195Y-7398385D01*
X2296795Y-7398385D01*
X2296795Y-7601585D01*
X2703195Y-9101581D02*
G01*
X2741295Y-9101581D01*
X2741295Y-8898381D01*
X2703195Y-8898381D01*
X2296795Y-9101581D02*
G01*
X2703195Y-9101581D01*
X2703195Y-8898381D01*
X2296795Y-8898381D01*
X2296795Y-9101581D01*
X2703195Y-10601579D02*
G01*
X2741295Y-10601579D01*
X2741295Y-10398379D01*
X2703195Y-10398379D01*
X2296795Y-10601579D02*
G01*
X2703195Y-10601579D01*
X2703195Y-10398379D01*
X2296795Y-10398379D01*
X2296795Y-10601579D01*
X4203191Y-1601596D02*
G01*
X4241291Y-1601596D01*
X4241291Y-1398396D01*
X4203191Y-1398396D01*
X3796791Y-1601596D02*
G01*
X4203191Y-1601596D01*
X4203191Y-1398396D01*
X3796791Y-1398396D01*
X3796791Y-1601596D01*
X4203191Y-3101594D02*
G01*
X4241291Y-3101594D01*
X4241291Y-2898394D01*
X4203191Y-2898394D01*
X3796791Y-3101594D02*
G01*
X4203191Y-3101594D01*
X4203191Y-2898394D01*
X3796791Y-2898394D01*
X3796791Y-3101594D01*
X4203191Y-4601590D02*
G01*
X4241291Y-4601590D01*
X4241291Y-4398390D01*
X4203191Y-4398390D01*
X3796791Y-4601590D02*
G01*
X4203191Y-4601590D01*
X4203191Y-4398390D01*
X3796791Y-4398390D01*
X3796791Y-4601590D01*
X4203191Y-6101587D02*
G01*
X4241291Y-6101587D01*
X4241291Y-5898387D01*
X4203191Y-5898387D01*
X3796791Y-6101587D02*
G01*
X4203191Y-6101587D01*
X4203191Y-5898387D01*
X3796791Y-5898387D01*
X3796791Y-6101587D01*
X4203191Y-7601585D02*
G01*
X4241291Y-7601585D01*
X4241291Y-7398385D01*
X4203191Y-7398385D01*
X3796791Y-7601585D02*
G01*
X4203191Y-7601585D01*
X4203191Y-7398385D01*
X3796791Y-7398385D01*
X3796791Y-7601585D01*
X4203191Y-9101581D02*
G01*
X4241291Y-9101581D01*
X4241291Y-8898381D01*
X4203191Y-8898381D01*
X3796791Y-9101581D02*
G01*
X4203191Y-9101581D01*
X4203191Y-8898381D01*
X3796791Y-8898381D01*
X3796791Y-9101581D01*
X4203191Y-10601579D02*
G01*
X4241291Y-10601579D01*
X4241291Y-10398379D01*
X4203191Y-10398379D01*
X3796791Y-10601579D02*
G01*
X4203191Y-10601579D01*
X4203191Y-10398379D01*
X3796791Y-10398379D01*
X3796791Y-10601579D01*
X5703188Y-1601596D02*
G01*
X5741288Y-1601596D01*
X5741288Y-1398396D01*
X5703188Y-1398396D01*
X5296788Y-1601596D02*
G01*
X5703188Y-1601596D01*
X5703188Y-1398396D01*
X5296788Y-1398396D01*
X5296788Y-1601596D01*
X5703188Y-3101594D02*
G01*
X5741288Y-3101594D01*
X5741288Y-2898394D01*
X5703188Y-2898394D01*
X5296788Y-3101594D02*
G01*
X5703188Y-3101594D01*
X5703188Y-2898394D01*
X5296788Y-2898394D01*
X5296788Y-3101594D01*
X5703188Y-4601590D02*
G01*
X5741288Y-4601590D01*
X5741288Y-4398390D01*
X5703188Y-4398390D01*
X5296788Y-4601590D02*
G01*
X5703188Y-4601590D01*
X5703188Y-4398390D01*
X5296788Y-4398390D01*
X5296788Y-4601590D01*
X5703188Y-6101587D02*
G01*
X5741288Y-6101587D01*
X5741288Y-5898387D01*
X5703188Y-5898387D01*
X5296788Y-6101587D02*
G01*
X5703188Y-6101587D01*
X5703188Y-5898387D01*
X5296788Y-5898387D01*
X5296788Y-6101587D01*
X5703188Y-7601585D02*
G01*
X5741288Y-7601585D01*
X5741288Y-7398385D01*
X5703188Y-7398385D01*
X5296788Y-7601585D02*
G01*
X5703188Y-7601585D01*
X5703188Y-7398385D01*
X5296788Y-7398385D01*
X5296788Y-7601585D01*
X5703188Y-9101581D02*
G01*
X5741288Y-9101581D01*
X5741288Y-8898381D01*
X5703188Y-8898381D01*
X5296788Y-9101581D02*
G01*
X5703188Y-9101581D01*
X5703188Y-8898381D01*
X5296788Y-8898381D01*
X5296788Y-9101581D01*
X5703188Y-10601579D02*
G01*
X5741288Y-10601579D01*
X5741288Y-10398379D01*
X5703188Y-10398379D01*
X5296788Y-10601579D02*
G01*
X5703188Y-10601579D01*
X5703188Y-10398379D01*
X5296788Y-10398379D01*
X5296788Y-10601579D01*
D12*
X750062Y-925321D02*
G01*
X941831Y-746252D01*
D13*
X750112Y-749884D02*
G01*
X1250111Y-749884D01*
X1250111Y-1249883D01*
X750112Y-1249883D01*
X750112Y-749884D01*
D12*
X750062Y-2425445D02*
G01*
X941831Y-2246376D01*
D13*
X750112Y-2250008D02*
G01*
X1250111Y-2250008D01*
X1250111Y-2750007D01*
X750112Y-2750007D01*
X750112Y-2250008D01*
D12*
X750062Y-3925315D02*
G01*
X941831Y-3746245D01*
D13*
X750112Y-3749878D02*
G01*
X1250111Y-3749878D01*
X1250111Y-4249877D01*
X750112Y-4249877D01*
X750112Y-3749878D01*
D12*
X750062Y-5425439D02*
G01*
X941831Y-5246370D01*
D13*
X750112Y-5250002D02*
G01*
X1250111Y-5250002D01*
X1250111Y-5750001D01*
X750112Y-5750001D01*
X750112Y-5250002D01*
D12*
X750062Y-6925310D02*
G01*
X941831Y-6746239D01*
D13*
X750112Y-6749872D02*
G01*
X1250111Y-6749872D01*
X1250111Y-7249871D01*
X750112Y-7249871D01*
X750112Y-6749872D01*
D12*
X750062Y-8425434D02*
G01*
X941831Y-8246363D01*
D13*
X750112Y-8249996D02*
G01*
X1250111Y-8249996D01*
X1250111Y-8749995D01*
X750112Y-8749995D01*
X750112Y-8249996D01*
D12*
X750062Y-9925304D02*
G01*
X941831Y-9746234D01*
D13*
X750112Y-9749866D02*
G01*
X1250111Y-9749866D01*
X1250111Y-10249865D01*
X750112Y-10249865D01*
X750112Y-9749866D01*
D12*
X2249931Y-925321D02*
G01*
X2441702Y-746252D01*
D13*
X2249982Y-749884D02*
G01*
X2749981Y-749884D01*
X2749981Y-1249883D01*
X2249982Y-1249883D01*
X2249982Y-749884D01*
D12*
X2249931Y-2425445D02*
G01*
X2441702Y-2246376D01*
D13*
X2249982Y-2250008D02*
G01*
X2749981Y-2250008D01*
X2749981Y-2750007D01*
X2249982Y-2750007D01*
X2249982Y-2250008D01*
D12*
X2249939Y-3925427D02*
G01*
X2441709Y-3746357D01*
D13*
X2249990Y-3749989D02*
G01*
X2749989Y-3749989D01*
X2749989Y-4249988D01*
X2249990Y-4249988D01*
X2249990Y-3749989D01*
D12*
X2249939Y-5425424D02*
G01*
X2441709Y-5246354D01*
D13*
X2249990Y-5249986D02*
G01*
X2749989Y-5249986D01*
X2749989Y-5749985D01*
X2249990Y-5749985D01*
X2249990Y-5249986D01*
D12*
X2249939Y-6925421D02*
G01*
X2441709Y-6746351D01*
D13*
X2249990Y-6749983D02*
G01*
X2749989Y-6749983D01*
X2749989Y-7249982D01*
X2249990Y-7249982D01*
X2249990Y-6749983D01*
D12*
X2249939Y-8425418D02*
G01*
X2441709Y-8246348D01*
D13*
X2249990Y-8249980D02*
G01*
X2749989Y-8249980D01*
X2749989Y-8749979D01*
X2249990Y-8749979D01*
X2249990Y-8249980D01*
D12*
X2249939Y-9925415D02*
G01*
X2441709Y-9746345D01*
D13*
X2249990Y-9749977D02*
G01*
X2749989Y-9749977D01*
X2749989Y-10249976D01*
X2249990Y-10249976D01*
X2249990Y-9749977D01*
D12*
X3749936Y-925433D02*
G01*
X3941706Y-746363D01*
D13*
X3749987Y-749995D02*
G01*
X4249986Y-749995D01*
X4249986Y-1249994D01*
X3749987Y-1249994D01*
X3749987Y-749995D01*
D12*
X3749936Y-2425430D02*
G01*
X3941706Y-2246360D01*
D13*
X3749987Y-2249992D02*
G01*
X4249986Y-2249992D01*
X4249986Y-2749991D01*
X3749987Y-2749991D01*
X3749987Y-2249992D01*
D12*
X3749936Y-3925427D02*
G01*
X3941706Y-3746357D01*
D13*
X3749987Y-3749989D02*
G01*
X4249986Y-3749989D01*
X4249986Y-4249988D01*
X3749987Y-4249988D01*
X3749987Y-3749989D01*
D12*
X3749936Y-5425424D02*
G01*
X3941706Y-5246354D01*
D13*
X3749987Y-5249986D02*
G01*
X4249986Y-5249986D01*
X4249986Y-5749985D01*
X3749987Y-5749985D01*
X3749987Y-5249986D01*
D12*
X3749936Y-6925421D02*
G01*
X3941706Y-6746351D01*
D13*
X3749987Y-6749983D02*
G01*
X4249986Y-6749983D01*
X4249986Y-7249982D01*
X3749987Y-7249982D01*
X3749987Y-6749983D01*
D12*
X3749936Y-8425418D02*
G01*
X3941706Y-8246348D01*
D13*
X3749987Y-8249980D02*
G01*
X4249986Y-8249980D01*
X4249986Y-8749979D01*
X3749987Y-8749979D01*
X3749987Y-8249980D01*
D12*
X3749936Y-9925415D02*
G01*
X3941706Y-9746345D01*
D13*
X3749987Y-9749977D02*
G01*
X4249986Y-9749977D01*
X4249986Y-10249976D01*
X3749987Y-10249976D01*
X3749987Y-9749977D01*
D12*
X5249933Y-925433D02*
G01*
X5441703Y-746363D01*
D13*
X5249984Y-749995D02*
G01*
X5749983Y-749995D01*
X5749983Y-1249994D01*
X5249984Y-1249994D01*
X5249984Y-749995D01*
D12*
X5249933Y-2425430D02*
G01*
X5441703Y-2246360D01*
D13*
X5249984Y-2249992D02*
G01*
X5749983Y-2249992D01*
X5749983Y-2749991D01*
X5249984Y-2749991D01*
X5249984Y-2249992D01*
D12*
X5249933Y-3925427D02*
G01*
X5441703Y-3746357D01*
D13*
X5249984Y-3749989D02*
G01*
X5749983Y-3749989D01*
X5749983Y-4249988D01*
X5249984Y-4249988D01*
X5249984Y-3749989D01*
D12*
X5249933Y-5425424D02*
G01*
X5441703Y-5246354D01*
D13*
X5249984Y-5249986D02*
G01*
X5749983Y-5249986D01*
X5749983Y-5749985D01*
X5249984Y-5749985D01*
X5249984Y-5249986D01*
D12*
X5249933Y-6925421D02*
G01*
X5441703Y-6746351D01*
D13*
X5249984Y-6749983D02*
G01*
X5749983Y-6749983D01*
X5749983Y-7249982D01*
X5249984Y-7249982D01*
X5249984Y-6749983D01*
D12*
X5249933Y-8425418D02*
G01*
X5441703Y-8246348D01*
D13*
X5249984Y-8249980D02*
G01*
X5749983Y-8249980D01*
X5749983Y-8749979D01*
X5249984Y-8749979D01*
X5249984Y-8249980D01*
D12*
X5249933Y-9925415D02*
G01*
X5441703Y-9746345D01*
D13*
X5249984Y-9749977D02*
G01*
X5749983Y-9749977D01*
X5749983Y-10249976D01*
X5249984Y-10249976D01*
X5249984Y-9749977D01*
M02*
