G04 Layer: TopSolderMaskLayer*
G04 EasyEDA v6.5.47, 2024-11-13 01:40:09*
G04 1c21e17b061f4530800f8f8e294a802d,69e988d02e8547bda770e33b2b7d29c3,10*
G04 Gerber Generator version 0.2*
G04 Scale: 100 percent, Rotated: No, Reflected: No *
G04 Dimensions in millimeters *
G04 leading zeros omitted , absolute positions ,4 integer and 5 decimal *
%FSLAX45Y45*%
%MOMM*%

%AMMACRO1*4,1,8,-0.6211,-0.8008,-0.6508,-0.771,-0.6508,0.7711,-0.6211,0.8008,0.621,0.8008,0.6508,0.7711,0.6508,-0.771,0.621,-0.8008,-0.6211,-0.8008,0*%
%AMMACRO2*4,1,8,-1.0042,-0.56,-1.01,-0.5542,-1.01,0.5542,-1.0042,0.56,1.0041,0.56,1.01,0.5542,1.01,-0.5542,1.0041,-0.56,-1.0042,-0.56,0*%
%ADD10C,5.2040*%
%ADD11O,1.4031976X3.6031932*%
%ADD12C,0.6096*%
%ADD13MACRO1*%
%ADD14MACRO2*%
%ADD15C,1.6256*%
%ADD16C,0.0142*%

%LPD*%
D10*
G01*
X2052396Y-11384000D03*
G01*
X2772384Y-11384000D03*
D11*
G01*
X3087395Y-11984024D03*
G01*
X1737385Y-11984024D03*
D12*
G01*
X2052396Y-11573992D03*
G01*
X1917395Y-11519001D03*
G01*
X1862378Y-11384000D03*
G01*
X1917395Y-11248999D03*
G01*
X2052396Y-11194008D03*
G01*
X2187397Y-11248999D03*
G01*
X2242388Y-11384000D03*
G01*
X2187397Y-11519001D03*
G01*
X2772384Y-11573992D03*
G01*
X2637383Y-11519001D03*
G01*
X2582392Y-11384000D03*
G01*
X2637383Y-11248999D03*
G01*
X2772384Y-11194008D03*
G01*
X2907385Y-11248999D03*
G01*
X2962376Y-11384000D03*
G01*
X2907385Y-11519001D03*
G36*
X2088984Y-87223D02*
G01*
X2088415Y-87190D01*
X2087854Y-87096D01*
X2087305Y-86939D01*
X2086780Y-86720D01*
X2086282Y-86443D01*
X2085817Y-86116D01*
X2085393Y-85735D01*
X2037260Y-37602D01*
X2036879Y-37177D01*
X2036551Y-36713D01*
X2036274Y-36215D01*
X2036056Y-35689D01*
X2035898Y-35140D01*
X2035804Y-34579D01*
X2035771Y-34010D01*
X2035771Y34010D01*
X2035804Y34579D01*
X2035898Y35140D01*
X2036056Y35689D01*
X2036274Y36215D01*
X2036551Y36713D01*
X2036879Y37177D01*
X2037260Y37602D01*
X2085393Y85735D01*
X2085817Y86116D01*
X2086282Y86443D01*
X2086780Y86720D01*
X2087305Y86939D01*
X2087854Y87096D01*
X2088415Y87190D01*
X2088984Y87223D01*
X2157006Y87223D01*
X2157575Y87190D01*
X2158136Y87096D01*
X2158685Y86939D01*
X2159210Y86720D01*
X2159708Y86443D01*
X2160173Y86116D01*
X2160597Y85735D01*
X2208730Y37602D01*
X2209111Y37177D01*
X2209439Y36713D01*
X2209716Y36215D01*
X2209934Y35689D01*
X2210092Y35140D01*
X2210186Y34579D01*
X2210219Y34010D01*
X2210219Y-34010D01*
X2210186Y-34579D01*
X2210092Y-35140D01*
X2209934Y-35689D01*
X2209716Y-36215D01*
X2209439Y-36713D01*
X2209111Y-37177D01*
X2208730Y-37602D01*
X2160597Y-85735D01*
X2160173Y-86116D01*
X2159708Y-86443D01*
X2159210Y-86720D01*
X2158685Y-86939D01*
X2158136Y-87096D01*
X2157575Y-87190D01*
X2157006Y-87223D01*
G37*
G36*
X2342984Y-87223D02*
G01*
X2342415Y-87190D01*
X2341854Y-87096D01*
X2341305Y-86939D01*
X2340780Y-86720D01*
X2340282Y-86443D01*
X2339817Y-86116D01*
X2339393Y-85735D01*
X2291260Y-37602D01*
X2290879Y-37177D01*
X2290551Y-36713D01*
X2290274Y-36215D01*
X2290056Y-35689D01*
X2289898Y-35140D01*
X2289804Y-34579D01*
X2289771Y-34010D01*
X2289771Y34010D01*
X2289804Y34579D01*
X2289898Y35140D01*
X2290056Y35689D01*
X2290274Y36215D01*
X2290551Y36713D01*
X2290879Y37177D01*
X2291260Y37602D01*
X2339393Y85735D01*
X2339817Y86116D01*
X2340282Y86443D01*
X2340780Y86720D01*
X2341305Y86939D01*
X2341854Y87096D01*
X2342415Y87190D01*
X2342984Y87223D01*
X2411006Y87223D01*
X2411575Y87190D01*
X2412136Y87096D01*
X2412685Y86939D01*
X2413210Y86720D01*
X2413708Y86443D01*
X2414173Y86116D01*
X2414597Y85735D01*
X2462730Y37602D01*
X2463111Y37177D01*
X2463439Y36713D01*
X2463716Y36215D01*
X2463934Y35689D01*
X2464092Y35140D01*
X2464186Y34579D01*
X2464219Y34010D01*
X2464219Y-34010D01*
X2464186Y-34579D01*
X2464092Y-35140D01*
X2463934Y-35689D01*
X2463716Y-36215D01*
X2463439Y-36713D01*
X2463111Y-37177D01*
X2462730Y-37602D01*
X2414597Y-85735D01*
X2414173Y-86116D01*
X2413708Y-86443D01*
X2413210Y-86720D01*
X2412685Y-86939D01*
X2412136Y-87096D01*
X2411575Y-87190D01*
X2411006Y-87223D01*
G37*
G36*
X16342956Y-87223D02*
G01*
X16342387Y-87190D01*
X16341826Y-87096D01*
X16341277Y-86939D01*
X16340752Y-86720D01*
X16340254Y-86443D01*
X16339789Y-86116D01*
X16339365Y-85735D01*
X16291232Y-37602D01*
X16290851Y-37177D01*
X16290523Y-36713D01*
X16290246Y-36215D01*
X16290028Y-35689D01*
X16289870Y-35140D01*
X16289776Y-34579D01*
X16289743Y-34010D01*
X16289743Y34010D01*
X16289776Y34579D01*
X16289870Y35140D01*
X16290028Y35689D01*
X16290246Y36215D01*
X16290523Y36713D01*
X16290851Y37177D01*
X16291232Y37602D01*
X16339365Y85735D01*
X16339789Y86116D01*
X16340254Y86443D01*
X16340752Y86720D01*
X16341277Y86939D01*
X16341826Y87096D01*
X16342387Y87190D01*
X16342956Y87223D01*
X16410978Y87223D01*
X16411547Y87190D01*
X16412108Y87096D01*
X16412657Y86939D01*
X16413182Y86720D01*
X16413680Y86443D01*
X16414145Y86116D01*
X16414569Y85735D01*
X16462702Y37602D01*
X16463083Y37177D01*
X16463411Y36713D01*
X16463688Y36215D01*
X16463906Y35689D01*
X16464064Y35140D01*
X16464158Y34579D01*
X16464191Y34010D01*
X16464191Y-34010D01*
X16464158Y-34579D01*
X16464064Y-35140D01*
X16463906Y-35689D01*
X16463688Y-36215D01*
X16463411Y-36713D01*
X16463083Y-37177D01*
X16462702Y-37602D01*
X16414569Y-85735D01*
X16414145Y-86116D01*
X16413680Y-86443D01*
X16413182Y-86720D01*
X16412657Y-86939D01*
X16412108Y-87096D01*
X16411547Y-87190D01*
X16410978Y-87223D01*
G37*
G36*
X16088956Y-87223D02*
G01*
X16088387Y-87190D01*
X16087826Y-87096D01*
X16087277Y-86939D01*
X16086752Y-86720D01*
X16086254Y-86443D01*
X16085789Y-86116D01*
X16085365Y-85735D01*
X16037232Y-37602D01*
X16036851Y-37177D01*
X16036523Y-36713D01*
X16036246Y-36215D01*
X16036028Y-35689D01*
X16035870Y-35140D01*
X16035776Y-34579D01*
X16035743Y-34010D01*
X16035743Y34010D01*
X16035776Y34579D01*
X16035870Y35140D01*
X16036028Y35689D01*
X16036246Y36215D01*
X16036523Y36713D01*
X16036851Y37177D01*
X16037232Y37602D01*
X16085365Y85735D01*
X16085789Y86116D01*
X16086254Y86443D01*
X16086752Y86720D01*
X16087277Y86939D01*
X16087826Y87096D01*
X16088387Y87190D01*
X16088956Y87223D01*
X16156978Y87223D01*
X16157547Y87190D01*
X16158108Y87096D01*
X16158657Y86939D01*
X16159182Y86720D01*
X16159680Y86443D01*
X16160145Y86116D01*
X16160569Y85735D01*
X16208702Y37602D01*
X16209083Y37177D01*
X16209411Y36713D01*
X16209688Y36215D01*
X16209906Y35689D01*
X16210064Y35140D01*
X16210158Y34579D01*
X16210191Y34010D01*
X16210191Y-34010D01*
X16210158Y-34579D01*
X16210064Y-35140D01*
X16209906Y-35689D01*
X16209688Y-36215D01*
X16209411Y-36713D01*
X16209083Y-37177D01*
X16208702Y-37602D01*
X16160569Y-85735D01*
X16160145Y-86116D01*
X16159680Y-86443D01*
X16159182Y-86720D01*
X16158657Y-86939D01*
X16158108Y-87096D01*
X16157547Y-87190D01*
X16156978Y-87223D01*
G37*
D13*
G01*
X6879996Y-1499997D03*
G01*
X7119975Y-1499997D03*
G01*
X6879996Y-2999993D03*
G01*
X7119975Y-2999993D03*
G01*
X6879996Y-4499990D03*
G01*
X7119975Y-4499990D03*
G01*
X6879996Y-5999988D03*
G01*
X7119975Y-5999988D03*
G01*
X6879996Y-7499984D03*
G01*
X7119975Y-7499984D03*
G01*
X6879996Y-8999982D03*
G01*
X7119975Y-8999982D03*
G01*
X6879996Y-10499979D03*
G01*
X7119975Y-10499979D03*
G01*
X8379993Y-1499997D03*
G01*
X8619972Y-1499997D03*
G01*
X8379993Y-2999993D03*
G01*
X8619972Y-2999993D03*
G01*
X8379993Y-4499990D03*
G01*
X8619972Y-4499990D03*
G01*
X8379993Y-5999988D03*
G01*
X8619972Y-5999988D03*
G01*
X8379993Y-7499984D03*
G01*
X8619972Y-7499984D03*
G01*
X8379993Y-8999982D03*
G01*
X8619972Y-8999982D03*
G01*
X8379993Y-10499979D03*
G01*
X8619972Y-10499979D03*
G01*
X9879990Y-1499997D03*
G01*
X10119969Y-1499997D03*
G01*
X9879990Y-2999993D03*
G01*
X10119969Y-2999993D03*
G01*
X9879990Y-4499990D03*
G01*
X10119969Y-4499990D03*
G01*
X9879990Y-5999988D03*
G01*
X10119969Y-5999988D03*
G01*
X9879990Y-7499984D03*
G01*
X10119969Y-7499984D03*
G01*
X9879990Y-8999982D03*
G01*
X10119969Y-8999982D03*
G01*
X9879990Y-10499979D03*
G01*
X10119969Y-10499979D03*
G01*
X11379987Y-1499997D03*
G01*
X11619966Y-1499997D03*
G01*
X11379987Y-2999993D03*
G01*
X11619966Y-2999993D03*
G01*
X11379987Y-4499990D03*
G01*
X11619966Y-4499990D03*
G01*
X11379987Y-5999988D03*
G01*
X11619966Y-5999988D03*
G01*
X11379987Y-7499984D03*
G01*
X11619966Y-7499984D03*
G01*
X11379987Y-8999982D03*
G01*
X11619966Y-8999982D03*
G01*
X11379987Y-10499979D03*
G01*
X11619966Y-10499979D03*
G01*
X12879984Y-1499997D03*
G01*
X13119963Y-1499997D03*
G01*
X12879984Y-2999993D03*
G01*
X13119963Y-2999993D03*
G01*
X12879984Y-4499990D03*
G01*
X13119963Y-4499990D03*
G01*
X12879984Y-5999988D03*
G01*
X13119963Y-5999988D03*
G01*
X12879984Y-7499984D03*
G01*
X13119963Y-7499984D03*
G01*
X12879984Y-8999982D03*
G01*
X13119963Y-8999982D03*
G01*
X12879984Y-10499979D03*
G01*
X13119963Y-10499979D03*
G01*
X14379981Y-1499997D03*
G01*
X14619960Y-1499997D03*
G01*
X14379981Y-2999993D03*
G01*
X14619960Y-2999993D03*
G01*
X14379981Y-4499990D03*
G01*
X14619960Y-4499990D03*
G01*
X14379981Y-5999988D03*
G01*
X14619960Y-5999988D03*
G01*
X14379981Y-7499984D03*
G01*
X14619960Y-7499984D03*
G01*
X14379981Y-8999982D03*
G01*
X14619960Y-8999982D03*
G01*
X14379981Y-10499979D03*
G01*
X14619960Y-10499979D03*
G01*
X15879978Y-1499997D03*
G01*
X16119957Y-1499997D03*
G01*
X15879978Y-2999993D03*
G01*
X16119957Y-2999993D03*
G01*
X15879978Y-4499990D03*
G01*
X16119957Y-4499990D03*
G01*
X15879978Y-5999988D03*
G01*
X16119957Y-5999988D03*
G01*
X15879978Y-7499984D03*
G01*
X16119957Y-7499984D03*
G01*
X15879978Y-8999982D03*
G01*
X16119957Y-8999982D03*
G01*
X15879978Y-10499979D03*
G01*
X16119957Y-10499979D03*
G01*
X17379975Y-1499997D03*
G01*
X17619954Y-1499997D03*
G01*
X17379975Y-2999993D03*
G01*
X17619954Y-2999993D03*
G01*
X17379975Y-4499990D03*
G01*
X17619954Y-4499990D03*
G01*
X17379975Y-5999988D03*
G01*
X17619954Y-5999988D03*
G01*
X17379975Y-7499984D03*
G01*
X17619954Y-7499984D03*
G01*
X17379975Y-8999982D03*
G01*
X17619954Y-8999982D03*
G01*
X17379975Y-10499979D03*
G01*
X17619954Y-10499979D03*
D14*
G01*
X6729986Y-839998D03*
G01*
X6729986Y-1000003D03*
G01*
X6729986Y-1160007D03*
G01*
X7269980Y-1160007D03*
G01*
X7269980Y-1000003D03*
G01*
X7269980Y-839998D03*
G01*
X6729986Y-2339995D03*
G01*
X6729986Y-2500000D03*
G01*
X6729986Y-2660004D03*
G01*
X7269980Y-2660004D03*
G01*
X7269980Y-2500000D03*
G01*
X7269980Y-2339995D03*
G01*
X6729986Y-3839992D03*
G01*
X6729986Y-3999997D03*
G01*
X6729986Y-4160001D03*
G01*
X7269980Y-4160001D03*
G01*
X7269980Y-3999997D03*
G01*
X7269980Y-3839992D03*
G01*
X6729986Y-5339989D03*
G01*
X6729986Y-5499994D03*
G01*
X6729986Y-5659998D03*
G01*
X7269980Y-5659998D03*
G01*
X7269980Y-5499994D03*
G01*
X7269980Y-5339989D03*
G01*
X6729986Y-6839986D03*
G01*
X6729986Y-6999991D03*
G01*
X6729986Y-7159995D03*
G01*
X7269980Y-7159995D03*
G01*
X7269980Y-6999991D03*
G01*
X7269980Y-6839986D03*
G01*
X6729986Y-8339983D03*
G01*
X6729986Y-8499988D03*
G01*
X6729986Y-8659992D03*
G01*
X7269980Y-8659992D03*
G01*
X7269980Y-8499988D03*
G01*
X7269980Y-8339983D03*
G01*
X6729986Y-9839980D03*
G01*
X6729986Y-9999985D03*
G01*
X6729986Y-10159989D03*
G01*
X7269980Y-10159989D03*
G01*
X7269980Y-9999985D03*
G01*
X7269980Y-9839980D03*
G01*
X8229983Y-839998D03*
G01*
X8229983Y-1000003D03*
G01*
X8229983Y-1160007D03*
G01*
X8769977Y-1160007D03*
G01*
X8769977Y-1000003D03*
G01*
X8769977Y-839998D03*
G01*
X8229983Y-2339995D03*
G01*
X8229983Y-2500000D03*
G01*
X8229983Y-2660004D03*
G01*
X8769977Y-2660004D03*
G01*
X8769977Y-2500000D03*
G01*
X8769977Y-2339995D03*
G01*
X8229983Y-3839992D03*
G01*
X8229983Y-3999997D03*
G01*
X8229983Y-4160001D03*
G01*
X8769977Y-4160001D03*
G01*
X8769977Y-3999997D03*
G01*
X8769977Y-3839992D03*
G01*
X8229983Y-5339989D03*
G01*
X8229983Y-5499994D03*
G01*
X8229983Y-5659998D03*
G01*
X8769977Y-5659998D03*
G01*
X8769977Y-5499994D03*
G01*
X8769977Y-5339989D03*
G01*
X8229983Y-6839986D03*
G01*
X8229983Y-6999991D03*
G01*
X8229983Y-7159995D03*
G01*
X8769977Y-7159995D03*
G01*
X8769977Y-6999991D03*
G01*
X8769977Y-6839986D03*
G01*
X8229983Y-8339983D03*
G01*
X8229983Y-8499988D03*
G01*
X8229983Y-8659992D03*
G01*
X8769977Y-8659992D03*
G01*
X8769977Y-8499988D03*
G01*
X8769977Y-8339983D03*
G01*
X8229983Y-9839980D03*
G01*
X8229983Y-9999985D03*
G01*
X8229983Y-10159989D03*
G01*
X8769977Y-10159989D03*
G01*
X8769977Y-9999985D03*
G01*
X8769977Y-9839980D03*
G01*
X9729980Y-839998D03*
G01*
X9729980Y-1000003D03*
G01*
X9729980Y-1160007D03*
G01*
X10269974Y-1160007D03*
G01*
X10269974Y-1000003D03*
G01*
X10269974Y-839998D03*
G01*
X9729980Y-2339995D03*
G01*
X9729980Y-2500000D03*
G01*
X9729980Y-2660004D03*
G01*
X10269974Y-2660004D03*
G01*
X10269974Y-2500000D03*
G01*
X10269974Y-2339995D03*
G01*
X9729980Y-3839992D03*
G01*
X9729980Y-3999997D03*
G01*
X9729980Y-4160001D03*
G01*
X10269974Y-4160001D03*
G01*
X10269974Y-3999997D03*
G01*
X10269974Y-3839992D03*
G01*
X9729980Y-5339989D03*
G01*
X9729980Y-5499994D03*
G01*
X9729980Y-5659998D03*
G01*
X10269974Y-5659998D03*
G01*
X10269974Y-5499994D03*
G01*
X10269974Y-5339989D03*
G01*
X9729980Y-6839986D03*
G01*
X9729980Y-6999991D03*
G01*
X9729980Y-7159995D03*
G01*
X10269974Y-7159995D03*
G01*
X10269974Y-6999991D03*
G01*
X10269974Y-6839986D03*
G01*
X9729980Y-8339983D03*
G01*
X9729980Y-8499988D03*
G01*
X9729980Y-8659992D03*
G01*
X10269974Y-8659992D03*
G01*
X10269974Y-8499988D03*
G01*
X10269974Y-8339983D03*
G01*
X9729980Y-9839980D03*
G01*
X9729980Y-9999985D03*
G01*
X9729980Y-10159989D03*
G01*
X10269974Y-10159989D03*
G01*
X10269974Y-9999985D03*
G01*
X10269974Y-9839980D03*
G01*
X11229977Y-839998D03*
G01*
X11229977Y-1000003D03*
G01*
X11229977Y-1160007D03*
G01*
X11769971Y-1160007D03*
G01*
X11769971Y-1000003D03*
G01*
X11769971Y-839998D03*
G01*
X11229977Y-2339995D03*
G01*
X11229977Y-2500000D03*
G01*
X11229977Y-2660004D03*
G01*
X11769971Y-2660004D03*
G01*
X11769971Y-2500000D03*
G01*
X11769971Y-2339995D03*
G01*
X11229977Y-3839992D03*
G01*
X11229977Y-3999997D03*
G01*
X11229977Y-4160001D03*
G01*
X11769971Y-4160001D03*
G01*
X11769971Y-3999997D03*
G01*
X11769971Y-3839992D03*
G01*
X11229977Y-5339989D03*
G01*
X11229977Y-5499994D03*
G01*
X11229977Y-5659998D03*
G01*
X11769971Y-5659998D03*
G01*
X11769971Y-5499994D03*
G01*
X11769971Y-5339989D03*
G01*
X11229977Y-6839986D03*
G01*
X11229977Y-6999991D03*
G01*
X11229977Y-7159995D03*
G01*
X11769971Y-7159995D03*
G01*
X11769971Y-6999991D03*
G01*
X11769971Y-6839986D03*
G01*
X11229977Y-8339983D03*
G01*
X11229977Y-8499988D03*
G01*
X11229977Y-8659992D03*
G01*
X11769971Y-8659992D03*
G01*
X11769971Y-8499988D03*
G01*
X11769971Y-8339983D03*
G01*
X11229977Y-9839980D03*
G01*
X11229977Y-9999985D03*
G01*
X11229977Y-10159989D03*
G01*
X11769971Y-10159989D03*
G01*
X11769971Y-9999985D03*
G01*
X11769971Y-9839980D03*
G01*
X12729974Y-839998D03*
G01*
X12729974Y-1000003D03*
G01*
X12729974Y-1160007D03*
G01*
X13269968Y-1160007D03*
G01*
X13269968Y-1000003D03*
G01*
X13269968Y-839998D03*
G01*
X12729974Y-2339995D03*
G01*
X12729974Y-2500000D03*
G01*
X12729974Y-2660004D03*
G01*
X13269968Y-2660004D03*
G01*
X13269968Y-2500000D03*
G01*
X13269968Y-2339995D03*
G01*
X12729974Y-3839992D03*
G01*
X12729974Y-3999997D03*
G01*
X12729974Y-4160001D03*
G01*
X13269968Y-4160001D03*
G01*
X13269968Y-3999997D03*
G01*
X13269968Y-3839992D03*
G01*
X12729974Y-5339989D03*
G01*
X12729974Y-5499994D03*
G01*
X12729974Y-5659998D03*
G01*
X13269968Y-5659998D03*
G01*
X13269968Y-5499994D03*
G01*
X13269968Y-5339989D03*
G01*
X12729974Y-6839986D03*
G01*
X12729974Y-6999991D03*
G01*
X12729974Y-7159995D03*
G01*
X13269968Y-7159995D03*
G01*
X13269968Y-6999991D03*
G01*
X13269968Y-6839986D03*
G01*
X12729974Y-8339983D03*
G01*
X12729974Y-8499988D03*
G01*
X12729974Y-8659992D03*
G01*
X13269968Y-8659992D03*
G01*
X13269968Y-8499988D03*
G01*
X13269968Y-8339983D03*
G01*
X12729974Y-9839980D03*
G01*
X12729974Y-9999985D03*
G01*
X12729974Y-10159989D03*
G01*
X13269968Y-10159989D03*
G01*
X13269968Y-9999985D03*
G01*
X13269968Y-9839980D03*
G01*
X14229971Y-839998D03*
G01*
X14229971Y-1000003D03*
G01*
X14229971Y-1160007D03*
G01*
X14769965Y-1160007D03*
G01*
X14769965Y-1000003D03*
G01*
X14769965Y-839998D03*
G01*
X14229971Y-2339995D03*
G01*
X14229971Y-2500000D03*
G01*
X14229971Y-2660004D03*
G01*
X14769965Y-2660004D03*
G01*
X14769965Y-2500000D03*
G01*
X14769965Y-2339995D03*
G01*
X14229971Y-3839992D03*
G01*
X14229971Y-3999997D03*
G01*
X14229971Y-4160001D03*
G01*
X14769965Y-4160001D03*
G01*
X14769965Y-3999997D03*
G01*
X14769965Y-3839992D03*
G01*
X14229971Y-5339989D03*
G01*
X14229971Y-5499994D03*
G01*
X14229971Y-5659998D03*
G01*
X14769965Y-5659998D03*
G01*
X14769965Y-5499994D03*
G01*
X14769965Y-5339989D03*
G01*
X14229971Y-6839986D03*
G01*
X14229971Y-6999991D03*
G01*
X14229971Y-7159995D03*
G01*
X14769965Y-7159995D03*
G01*
X14769965Y-6999991D03*
G01*
X14769965Y-6839986D03*
G01*
X14229971Y-8339983D03*
G01*
X14229971Y-8499988D03*
G01*
X14229971Y-8659992D03*
G01*
X14769965Y-8659992D03*
G01*
X14769965Y-8499988D03*
G01*
X14769965Y-8339983D03*
G01*
X14229971Y-9839980D03*
G01*
X14229971Y-9999985D03*
G01*
X14229971Y-10159989D03*
G01*
X14769965Y-10159989D03*
G01*
X14769965Y-9999985D03*
G01*
X14769965Y-9839980D03*
G01*
X15729968Y-839998D03*
G01*
X15729968Y-1000003D03*
G01*
X15729968Y-1160007D03*
G01*
X16269962Y-1160007D03*
G01*
X16269962Y-1000003D03*
G01*
X16269962Y-839998D03*
G01*
X15729968Y-2339995D03*
G01*
X15729968Y-2500000D03*
G01*
X15729968Y-2660004D03*
G01*
X16269962Y-2660004D03*
G01*
X16269962Y-2500000D03*
G01*
X16269962Y-2339995D03*
G01*
X15729968Y-3839992D03*
G01*
X15729968Y-3999997D03*
G01*
X15729968Y-4160001D03*
G01*
X16269962Y-4160001D03*
G01*
X16269962Y-3999997D03*
G01*
X16269962Y-3839992D03*
G01*
X15729968Y-5339989D03*
G01*
X15729968Y-5499994D03*
G01*
X15729968Y-5659998D03*
G01*
X16269962Y-5659998D03*
G01*
X16269962Y-5499994D03*
G01*
X16269962Y-5339989D03*
G01*
X15729968Y-6839986D03*
G01*
X15729968Y-6999991D03*
G01*
X15729968Y-7159995D03*
G01*
X16269962Y-7159995D03*
G01*
X16269962Y-6999991D03*
G01*
X16269962Y-6839986D03*
G01*
X15729968Y-8339983D03*
G01*
X15729968Y-8499988D03*
G01*
X15729968Y-8659992D03*
G01*
X16269962Y-8659992D03*
G01*
X16269962Y-8499988D03*
G01*
X16269962Y-8339983D03*
G01*
X15729968Y-9839980D03*
G01*
X15729968Y-9999985D03*
G01*
X15729968Y-10159989D03*
G01*
X16269962Y-10159989D03*
G01*
X16269962Y-9999985D03*
G01*
X16269962Y-9839980D03*
G01*
X17229965Y-839998D03*
G01*
X17229965Y-1000003D03*
G01*
X17229965Y-1160007D03*
G01*
X17769959Y-1160007D03*
G01*
X17769959Y-1000003D03*
G01*
X17769959Y-839998D03*
G01*
X17229965Y-2339995D03*
G01*
X17229965Y-2500000D03*
G01*
X17229965Y-2660004D03*
G01*
X17769959Y-2660004D03*
G01*
X17769959Y-2500000D03*
G01*
X17769959Y-2339995D03*
G01*
X17229965Y-3839992D03*
G01*
X17229965Y-3999997D03*
G01*
X17229965Y-4160001D03*
G01*
X17769959Y-4160001D03*
G01*
X17769959Y-3999997D03*
G01*
X17769959Y-3839992D03*
G01*
X17229965Y-5339989D03*
G01*
X17229965Y-5499994D03*
G01*
X17229965Y-5659998D03*
G01*
X17769959Y-5659998D03*
G01*
X17769959Y-5499994D03*
G01*
X17769959Y-5339989D03*
G01*
X17229965Y-6839986D03*
G01*
X17229965Y-6999991D03*
G01*
X17229965Y-7159995D03*
G01*
X17769959Y-7159995D03*
G01*
X17769959Y-6999991D03*
G01*
X17769959Y-6839986D03*
G01*
X17229965Y-8339983D03*
G01*
X17229965Y-8499988D03*
G01*
X17229965Y-8659992D03*
G01*
X17769959Y-8659992D03*
G01*
X17769959Y-8499988D03*
G01*
X17769959Y-8339983D03*
G01*
X17229965Y-9839980D03*
G01*
X17229965Y-9999985D03*
G01*
X17229965Y-10159989D03*
G01*
X17769959Y-10159989D03*
G01*
X17769959Y-9999985D03*
G01*
X17769959Y-9839980D03*
D13*
G01*
X880008Y-1499997D03*
G01*
X1119987Y-1499997D03*
G01*
X880008Y-2999993D03*
G01*
X1119987Y-2999993D03*
G01*
X880008Y-4499990D03*
G01*
X1119987Y-4499990D03*
G01*
X880008Y-5999988D03*
G01*
X1119987Y-5999988D03*
G01*
X1048410Y-7493000D03*
G01*
X1288389Y-7493000D03*
G01*
X880008Y-8999982D03*
G01*
X1119987Y-8999982D03*
G01*
X880008Y-10499979D03*
G01*
X1119987Y-10499979D03*
G01*
X2380005Y-1499997D03*
G01*
X2619984Y-1499997D03*
G01*
X2380005Y-2999993D03*
G01*
X2619984Y-2999993D03*
G01*
X2380005Y-4499990D03*
G01*
X2619984Y-4499990D03*
G01*
X2380005Y-5999988D03*
G01*
X2619984Y-5999988D03*
G01*
X2380005Y-7499984D03*
G01*
X2619984Y-7499984D03*
G01*
X2380005Y-8999982D03*
G01*
X2619984Y-8999982D03*
G01*
X2380005Y-10499979D03*
G01*
X2619984Y-10499979D03*
G01*
X3880002Y-1499997D03*
G01*
X4119981Y-1499997D03*
G01*
X3880002Y-2999993D03*
G01*
X4119981Y-2999993D03*
G01*
X3880002Y-4499990D03*
G01*
X4119981Y-4499990D03*
G01*
X3880002Y-5999988D03*
G01*
X4119981Y-5999988D03*
G01*
X3880002Y-7499984D03*
G01*
X4119981Y-7499984D03*
G01*
X3880002Y-8999982D03*
G01*
X4119981Y-8999982D03*
G01*
X3880002Y-10499979D03*
G01*
X4119981Y-10499979D03*
G01*
X5379999Y-1499997D03*
G01*
X5619978Y-1499997D03*
G01*
X5379999Y-2999993D03*
G01*
X5619978Y-2999993D03*
G01*
X5379999Y-4499990D03*
G01*
X5619978Y-4499990D03*
G01*
X5379999Y-5999988D03*
G01*
X5619978Y-5999988D03*
G01*
X5379999Y-7499984D03*
G01*
X5619978Y-7499984D03*
G01*
X5379999Y-8999982D03*
G01*
X5619978Y-8999982D03*
G01*
X5379999Y-10499979D03*
G01*
X5619978Y-10499979D03*
D14*
G01*
X730117Y-839886D03*
G01*
X730117Y-999891D03*
G01*
X730117Y-1159896D03*
G01*
X1270111Y-1159896D03*
G01*
X1270111Y-999891D03*
G01*
X1270111Y-839886D03*
G01*
X730117Y-2340010D03*
G01*
X730117Y-2500015D03*
G01*
X730117Y-2660020D03*
G01*
X1270111Y-2660020D03*
G01*
X1270111Y-2500015D03*
G01*
X1270111Y-2340010D03*
G01*
X730117Y-3839880D03*
G01*
X730117Y-3999885D03*
G01*
X730117Y-4159890D03*
G01*
X1270111Y-4159890D03*
G01*
X1270111Y-3999885D03*
G01*
X1270111Y-3839880D03*
G01*
X730117Y-5340004D03*
G01*
X730117Y-5500009D03*
G01*
X730117Y-5660014D03*
G01*
X1270111Y-5660014D03*
G01*
X1270111Y-5500009D03*
G01*
X1270111Y-5340004D03*
G01*
X730117Y-6839874D03*
G01*
X730117Y-6999879D03*
G01*
X730117Y-7159884D03*
G01*
X1270111Y-7159884D03*
G01*
X1270111Y-6999879D03*
G01*
X1270111Y-6839874D03*
G01*
X730117Y-8339998D03*
G01*
X730117Y-8500003D03*
G01*
X730117Y-8660008D03*
G01*
X1270111Y-8660008D03*
G01*
X1270111Y-8500003D03*
G01*
X1270111Y-8339998D03*
G01*
X730117Y-9839868D03*
G01*
X730117Y-9999873D03*
G01*
X730117Y-10159878D03*
G01*
X1270111Y-10159878D03*
G01*
X1270111Y-9999873D03*
G01*
X1270111Y-9839868D03*
G01*
X2229987Y-839886D03*
G01*
X2229987Y-999891D03*
G01*
X2229987Y-1159896D03*
G01*
X2769981Y-1159896D03*
G01*
X2769981Y-999891D03*
G01*
X2769981Y-839886D03*
G01*
X2229987Y-2340010D03*
G01*
X2229987Y-2500015D03*
G01*
X2229987Y-2660020D03*
G01*
X2769981Y-2660020D03*
G01*
X2769981Y-2500015D03*
G01*
X2769981Y-2340010D03*
G01*
X2229995Y-3839992D03*
G01*
X2229995Y-3999997D03*
G01*
X2229995Y-4160001D03*
G01*
X2769989Y-4160001D03*
G01*
X2769989Y-3999997D03*
G01*
X2769989Y-3839992D03*
G01*
X2229995Y-5339989D03*
G01*
X2229995Y-5499994D03*
G01*
X2229995Y-5659998D03*
G01*
X2769989Y-5659998D03*
G01*
X2769989Y-5499994D03*
G01*
X2769989Y-5339989D03*
G01*
X2229995Y-6839986D03*
G01*
X2229995Y-6999991D03*
G01*
X2229995Y-7159995D03*
G01*
X2769989Y-7159995D03*
G01*
X2769989Y-6999991D03*
G01*
X2769989Y-6839986D03*
G01*
X2229995Y-8339983D03*
G01*
X2229995Y-8499988D03*
G01*
X2229995Y-8659992D03*
G01*
X2769989Y-8659992D03*
G01*
X2769989Y-8499988D03*
G01*
X2769989Y-8339983D03*
G01*
X2229995Y-9839980D03*
G01*
X2229995Y-9999985D03*
G01*
X2229995Y-10159989D03*
G01*
X2769989Y-10159989D03*
G01*
X2769989Y-9999985D03*
G01*
X2769989Y-9839980D03*
G01*
X3729992Y-839998D03*
G01*
X3729992Y-1000003D03*
G01*
X3729992Y-1160007D03*
G01*
X4269986Y-1160007D03*
G01*
X4269986Y-1000003D03*
G01*
X4269986Y-839998D03*
G01*
X3729992Y-2339995D03*
G01*
X3729992Y-2500000D03*
G01*
X3729992Y-2660004D03*
G01*
X4269986Y-2660004D03*
G01*
X4269986Y-2500000D03*
G01*
X4269986Y-2339995D03*
G01*
X3729992Y-3839992D03*
G01*
X3729992Y-3999997D03*
G01*
X3729992Y-4160001D03*
G01*
X4269986Y-4160001D03*
G01*
X4269986Y-3999997D03*
G01*
X4269986Y-3839992D03*
G01*
X3729992Y-5339989D03*
G01*
X3729992Y-5499994D03*
G01*
X3729992Y-5659998D03*
G01*
X4269986Y-5659998D03*
G01*
X4269986Y-5499994D03*
G01*
X4269986Y-5339989D03*
G01*
X3729992Y-6839986D03*
G01*
X3729992Y-6999991D03*
G01*
X3729992Y-7159995D03*
G01*
X4269986Y-7159995D03*
G01*
X4269986Y-6999991D03*
G01*
X4269986Y-6839986D03*
G01*
X3729992Y-8339983D03*
G01*
X3729992Y-8499988D03*
G01*
X3729992Y-8659992D03*
G01*
X4269986Y-8659992D03*
G01*
X4269986Y-8499988D03*
G01*
X4269986Y-8339983D03*
G01*
X3729992Y-9839980D03*
G01*
X3729992Y-9999985D03*
G01*
X3729992Y-10159989D03*
G01*
X4269986Y-10159989D03*
G01*
X4269986Y-9999985D03*
G01*
X4269986Y-9839980D03*
G01*
X5229989Y-839998D03*
G01*
X5229989Y-1000003D03*
G01*
X5229989Y-1160007D03*
G01*
X5769983Y-1160007D03*
G01*
X5769983Y-1000003D03*
G01*
X5769983Y-839998D03*
G01*
X5229989Y-2339995D03*
G01*
X5229989Y-2500000D03*
G01*
X5229989Y-2660004D03*
G01*
X5769983Y-2660004D03*
G01*
X5769983Y-2500000D03*
G01*
X5769983Y-2339995D03*
G01*
X5229989Y-3839992D03*
G01*
X5229989Y-3999997D03*
G01*
X5229989Y-4160001D03*
G01*
X5769983Y-4160001D03*
G01*
X5769983Y-3999997D03*
G01*
X5769983Y-3839992D03*
G01*
X5229989Y-5339989D03*
G01*
X5229989Y-5499994D03*
G01*
X5229989Y-5659998D03*
G01*
X5769983Y-5659998D03*
G01*
X5769983Y-5499994D03*
G01*
X5769983Y-5339989D03*
G01*
X5229989Y-6839986D03*
G01*
X5229989Y-6999991D03*
G01*
X5229989Y-7159995D03*
G01*
X5769983Y-7159995D03*
G01*
X5769983Y-6999991D03*
G01*
X5769983Y-6839986D03*
G01*
X5229989Y-8339983D03*
G01*
X5229989Y-8499988D03*
G01*
X5229989Y-8659992D03*
G01*
X5769983Y-8659992D03*
G01*
X5769983Y-8499988D03*
G01*
X5769983Y-8339983D03*
G01*
X5229989Y-9839980D03*
G01*
X5229989Y-9999985D03*
G01*
X5229989Y-10159989D03*
G01*
X5769983Y-10159989D03*
G01*
X5769983Y-9999985D03*
G01*
X5769983Y-9839980D03*
D15*
G01*
X999997Y-999997D03*
G01*
X999997Y-2499995D03*
G01*
X2499995Y-999997D03*
G01*
X2499995Y-2499995D03*
G01*
X3999991Y-999997D03*
G01*
X3999991Y-2499995D03*
G01*
X5499988Y-999997D03*
G01*
X5499988Y-2499995D03*
G01*
X5499988Y-3999992D03*
G01*
X3999991Y-3999992D03*
G01*
X2499995Y-3999992D03*
G01*
X999997Y-3999992D03*
G01*
X999997Y-2499995D03*
G01*
X2499995Y-2499995D03*
G01*
X3999991Y-2499995D03*
G01*
X5499988Y-2499995D03*
G01*
X9999979Y-5499988D03*
G01*
X8499983Y-5499988D03*
G01*
X6999986Y-5499988D03*
G01*
X5499988Y-5499988D03*
G01*
X5499988Y-3999992D03*
G01*
X6999986Y-3999992D03*
G01*
X8499983Y-3999992D03*
G01*
X9999979Y-3999992D03*
G01*
X9999979Y-2499995D03*
G01*
X8499983Y-2499995D03*
G01*
X6999986Y-2499995D03*
G01*
X5499988Y-2499995D03*
G01*
X5499988Y-999997D03*
G01*
X6999986Y-999997D03*
G01*
X8499983Y-999997D03*
G01*
X9999979Y-999997D03*
G01*
X5499988Y-5499988D03*
G01*
X3999991Y-5499988D03*
G01*
X2499995Y-5499988D03*
G01*
X999997Y-5499988D03*
G01*
X999997Y-3999992D03*
G01*
X2499995Y-3999992D03*
G01*
X3999991Y-3999992D03*
G01*
X5499988Y-3999992D03*
G01*
X5499988Y-6999986D03*
G01*
X3999991Y-6999986D03*
G01*
X2499995Y-6999986D03*
G01*
X999997Y-6999986D03*
G01*
X999997Y-5499988D03*
G01*
X2499995Y-5499988D03*
G01*
X3999991Y-5499988D03*
G01*
X5499988Y-5499988D03*
G01*
X5499988Y-8499983D03*
G01*
X3999991Y-8499983D03*
G01*
X2499995Y-8499983D03*
G01*
X999997Y-8499983D03*
G01*
X999997Y-6999986D03*
G01*
X2499995Y-6999986D03*
G01*
X3999991Y-6999986D03*
G01*
X5499988Y-6999986D03*
G01*
X5499988Y-9999979D03*
G01*
X3999991Y-9999979D03*
G01*
X2499995Y-9999979D03*
G01*
X999997Y-9999979D03*
G01*
X999997Y-8499983D03*
G01*
X2499995Y-8499983D03*
G01*
X3999991Y-8499983D03*
G01*
X5499988Y-8499983D03*
G01*
X9999979Y-9999979D03*
G01*
X8499983Y-9999979D03*
G01*
X6999986Y-9999979D03*
G01*
X5499988Y-9999979D03*
G01*
X5499988Y-8499983D03*
G01*
X6999986Y-8499983D03*
G01*
X8499983Y-8499983D03*
G01*
X9999979Y-8499983D03*
G01*
X9999979Y-6999986D03*
G01*
X8499983Y-6999986D03*
G01*
X6999986Y-6999986D03*
G01*
X5499988Y-6999986D03*
G01*
X5499988Y-5499988D03*
G01*
X6999986Y-5499988D03*
G01*
X8499983Y-5499988D03*
G01*
X9999979Y-5499988D03*
G01*
X14499970Y-2499995D03*
G01*
X12999974Y-2499995D03*
G01*
X11499977Y-2499995D03*
G01*
X9999979Y-2499995D03*
G01*
X9999979Y-999997D03*
G01*
X11499977Y-999997D03*
G01*
X12999974Y-999997D03*
G01*
X14499970Y-999997D03*
G01*
X17499965Y-2499995D03*
G01*
X15999968Y-2499995D03*
G01*
X14499970Y-2499995D03*
G01*
X12999974Y-2499995D03*
G01*
X12999974Y-999997D03*
G01*
X14499970Y-999997D03*
G01*
X15999968Y-999997D03*
G01*
X17499965Y-999997D03*
G01*
X15999968Y-3999992D03*
G01*
X14499970Y-3999992D03*
G01*
X12999974Y-3999992D03*
G01*
X11499977Y-3999992D03*
G01*
X11499977Y-2499995D03*
G01*
X12999974Y-2499995D03*
G01*
X14499970Y-2499995D03*
G01*
X15999968Y-2499995D03*
G01*
X17499965Y-3999992D03*
G01*
X15999968Y-3999992D03*
G01*
X14499970Y-3999992D03*
G01*
X12999974Y-3999992D03*
G01*
X12999974Y-2499995D03*
G01*
X14499970Y-2499995D03*
G01*
X15999968Y-2499995D03*
G01*
X17499965Y-2499995D03*
G01*
X15999968Y-5499988D03*
G01*
X14499970Y-5499988D03*
G01*
X12999974Y-5499988D03*
G01*
X11499977Y-5499988D03*
G01*
X11499977Y-3999992D03*
G01*
X12999974Y-3999992D03*
G01*
X14499970Y-3999992D03*
G01*
X15999968Y-3999992D03*
G01*
X15999968Y-6999986D03*
G01*
X14499970Y-6999986D03*
G01*
X12999974Y-6999986D03*
G01*
X11499977Y-6999986D03*
G01*
X11499977Y-5499988D03*
G01*
X12999974Y-5499988D03*
G01*
X14499970Y-5499988D03*
G01*
X15999968Y-5499988D03*
G01*
X17499965Y-6999986D03*
G01*
X15999968Y-6999986D03*
G01*
X14499970Y-6999986D03*
G01*
X12999974Y-6999986D03*
G01*
X12999974Y-5499988D03*
G01*
X14499970Y-5499988D03*
G01*
X15999968Y-5499988D03*
G01*
X17499965Y-5499988D03*
G01*
X14499970Y-9999979D03*
G01*
X12999974Y-9999979D03*
G01*
X11499977Y-9999979D03*
G01*
X9999979Y-9999979D03*
G01*
X9999979Y-8499983D03*
G01*
X11499977Y-8499983D03*
G01*
X12999974Y-8499983D03*
G01*
X14499970Y-8499983D03*
G01*
X17499965Y-9999979D03*
G01*
X15999968Y-9999979D03*
G01*
X14499970Y-9999979D03*
G01*
X12999974Y-9999979D03*
G01*
X12999974Y-8499983D03*
G01*
X14499970Y-8499983D03*
G01*
X15999968Y-8499983D03*
G01*
X17499965Y-8499983D03*
M02*
